<?xml version="1.0" encoding="UTF-8"?>
<svg xmlns="http://www.w3.org/2000/svg" xmlns:xlink="http://www.w3.org/1999/xlink" version="1.2" >
<font id="Modern Era Medium">
<font-face  font-family="Modern Era" units-per-em="1000" ascent="785" descent="-215" font-style="normal" font-weight="500" font-stretch="normal" cap-height="700" x-height="495" underline-position="-50" underline-thickness="86" />
<missing-glyph  horiz-adv-x="828" d="M414 -14 Q316 -14 232 35 Q148 84 99 167.5 Q50 251 50 350 Q50 449 99 532.5 Q148 616 232 665 Q316 714 414 714 Q513 714 596.5 665 Q680 616 729 532.5 Q778 449 778 350 Q778 251 729 167.5 Q680 84 596.5 35 Q513 -14 414 -14 Z M414 51 Q495 51 564 91.5 Q633 132 673.5 200.5 Q714 269 714 350 Q714 431 673.5 499.5 Q633 568 564 608.5 Q495 649 414 649 Q333 649 264.5 608.5 Q196 568 155.5 499.5 Q115 431 115 350 Q115 269 155.5 200.5 Q196 132 264.5 91.5 Q333 51 414 51 Z M302 350 Q277 350 258.5 368 Q240 386 240 411 Q240 437 258.5 455 Q277 473 302 473 Q327 473 345 455 Q363 437 363 411 Q363 386 345 368 Q327 350 302 350 Z M526 350 Q501 350 483 368 Q465 386 465 411 Q465 437 483 455 Q501 473 526 473 Q552 473 570 455 Q588 437 588 411 Q588 386 569.5 368 Q551 350 526 350 Z " />
<glyph glyph-name="NULL" d="" />
<glyph glyph-name="nonmarkingreturn" unicode="&#xd;" horiz-adv-x="280" d="" />
<glyph glyph-name="space" unicode="&#x20;" horiz-adv-x="280" d="" />
<glyph glyph-name="A" unicode="A" horiz-adv-x="671" d="M480 177 L190 177 L125 0 L22 0 L284 700 L387 700 L649 0 L546 0 L480 177 Z M447 267 L335 568 L224 267 L447 267 Z " />
<glyph glyph-name="Aacute" unicode="&#xc1;" horiz-adv-x="671" d="M480 177 L190 177 L125 0 L22 0 L284 700 L387 700 L649 0 L546 0 L480 177 Z M447 267 L335 568 L224 267 L447 267 Z M358 897 L485 897 L378 771 L291 771 L358 897 Z " />
<glyph glyph-name="Abreve" unicode="&#x102;" horiz-adv-x="671" d="M480 177 L190 177 L125 0 L22 0 L284 700 L387 700 L649 0 L546 0 L480 177 Z M447 267 L335 568 L224 267 L447 267 Z M335 775 Q279 775 243 810.5 Q207 846 204 901 L276 901 Q278 875 294 859 Q310 843 336 843 Q362 843 378.5 859 Q395 875 397 901 L468 901 Q466 846 429 810.5 Q392 775 335 775 Z " />
<glyph glyph-name="Acircumflex" unicode="&#xc2;" horiz-adv-x="671" d="M480 177 L190 177 L125 0 L22 0 L284 700 L387 700 L649 0 L546 0 L480 177 Z M447 267 L335 568 L224 267 L447 267 Z M392 771 L336 834 L280 771 L194 771 L284 897 L387 897 L477 771 L392 771 Z " />
<glyph glyph-name="Adieresis" unicode="&#xc4;" horiz-adv-x="671" d="M480 177 L190 177 L125 0 L22 0 L284 700 L387 700 L649 0 L546 0 L480 177 Z M447 267 L335 568 L224 267 L447 267 Z M249 770 Q223 770 203.5 789 Q184 808 184 834 Q184 860 203.5 879 Q223 898 249 898 Q275 898 294 879 Q313 860 313 834 Q313 808 294 789 Q275 770 249 770 Z M423 770 Q397 770 378 789 Q359 808 359 834 Q359 860 378 879 Q397 898 423 898 Q450 898 468.5 879 Q487 860 487 834 Q487 808 468.5 789 Q450 770 423 770 Z " />
<glyph glyph-name="Agrave" unicode="&#xc0;" horiz-adv-x="671" d="M480 177 L190 177 L125 0 L22 0 L284 700 L387 700 L649 0 L546 0 L480 177 Z M447 267 L335 568 L224 267 L447 267 Z M187 897 L314 897 L381 771 L294 771 L187 897 Z " />
<glyph glyph-name="Amacron" unicode="&#x100;" horiz-adv-x="671" d="M480 177 L190 177 L125 0 L22 0 L284 700 L387 700 L649 0 L546 0 L480 177 Z M447 267 L335 568 L224 267 L447 267 Z M230 872 L442 872 L442 796 L230 796 L230 872 Z " />
<glyph glyph-name="Aogonek" unicode="&#x104;" horiz-adv-x="671" d="M588 -75 Q588 -93 600.5 -104.5 Q613 -116 637 -116 L643 -116 L643 -182 Q636 -183 623 -183 Q572 -183 542 -158.5 Q512 -134 512 -94 Q512 -47 549 -8 L480 177 L190 177 L125 0 L22 0 L284 700 L387 700 L649 0 Q588 -33 588 -75 Z M447 267 L335 568 L224 267 L447 267 Z " />
<glyph glyph-name="Aring" unicode="&#xc5;" horiz-adv-x="671" d="M480 177 L190 177 L125 0 L22 0 L284 700 L387 700 L649 0 L546 0 L480 177 Z M447 267 L335 568 L224 267 L447 267 Z M334 742 Q297 742 270 769 Q243 796 243 834 Q243 872 270 899 Q297 926 334 926 Q372 926 399 899 Q426 872 426 834 Q426 797 399 769.5 Q372 742 334 742 Z M334 800 Q348 800 358 810 Q368 820 368 834 Q368 848 358 858 Q348 868 334 868 Q320 868 310 858 Q300 848 300 834 Q300 820 310 810 Q320 800 334 800 Z " />
<glyph glyph-name="Atilde" unicode="&#xc3;" horiz-adv-x="671" d="M480 177 L190 177 L125 0 L22 0 L284 700 L387 700 L649 0 L546 0 L480 177 Z M447 267 L335 568 L224 267 L447 267 Z M398 777 Q377 777 361.5 782.5 Q346 788 327 798 Q299 813 282 813 Q269 813 256 804 Q243 795 234 776 L179 813 Q194 852 219.5 870 Q245 888 275 888 Q295 888 310 883 Q325 878 344 868 Q361 860 371 856 Q381 852 393 852 Q420 852 440 892 L497 853 Q483 815 457 796 Q431 777 398 777 Z " />
<glyph glyph-name="AE" unicode="&#xc6;" horiz-adv-x="986" d="M604 610 L604 397 L894 397 L894 309 L604 309 L604 90 L936 90 L936 0 L504 0 L504 160 L236 160 L129 0 L22 0 L489 700 L936 700 L936 610 L604 610 Z M504 248 L504 563 L294 248 L504 248 Z " />
<glyph glyph-name="AEacute" unicode="&#x1fc;" horiz-adv-x="986" d="M604 610 L604 397 L894 397 L894 309 L604 309 L604 90 L936 90 L936 0 L504 0 L504 160 L236 160 L129 0 L22 0 L489 700 L936 700 L936 610 L604 610 Z M504 248 L504 563 L294 248 L504 248 Z M696 897 L823 897 L716 771 L629 771 L696 897 Z " />
<glyph glyph-name="B" unicode="B" horiz-adv-x="608" d="M77 700 L330 700 Q431 700 484 648.5 Q537 597 537 515 Q537 462 513.5 424.5 Q490 387 450 365 L450 363 Q495 348 529 308.5 Q563 269 563 200 Q563 142 536 96.5 Q509 51 458.5 25.5 Q408 0 340 0 L77 0 L77 700 Z M327 398 Q382 398 410.5 428 Q439 458 439 509 Q439 557 409 584.5 Q379 612 327 612 L177 612 L177 398 L327 398 Z M340 88 Q399 88 431 120.5 Q463 153 463 202 Q463 253 430.5 283.5 Q398 314 331 314 L177 314 L177 88 L340 88 Z " />
<glyph glyph-name="C" unicode="C" horiz-adv-x="759" d="M407 -14 Q304 -14 224 32 Q144 78 99.5 160.5 Q55 243 55 350 Q55 454 100 537 Q145 620 224.5 667 Q304 714 404 714 Q517 714 598.5 657 Q680 600 714 497 L618 465 Q594 540 540 581 Q486 622 405 622 Q334 622 277 586.5 Q220 551 187.5 489 Q155 427 155 350 Q155 271 187.5 209 Q220 147 277.5 112.5 Q335 78 408 78 Q489 78 541.5 117 Q594 156 616 221 L711 190 Q674 93 597 39.5 Q520 -14 407 -14 Z " />
<glyph glyph-name="Cacute" unicode="&#x106;" horiz-adv-x="759" d="M407 -14 Q304 -14 224 32 Q144 78 99.5 160.5 Q55 243 55 350 Q55 454 100 537 Q145 620 224.5 667 Q304 714 404 714 Q517 714 598.5 657 Q680 600 714 497 L618 465 Q594 540 540 581 Q486 622 405 622 Q334 622 277 586.5 Q220 551 187.5 489 Q155 427 155 350 Q155 271 187.5 209 Q220 147 277.5 112.5 Q335 78 408 78 Q489 78 541.5 117 Q594 156 616 221 L711 190 Q674 93 597 39.5 Q520 -14 407 -14 Z M426 897 L553 897 L446 771 L359 771 L426 897 Z " />
<glyph glyph-name="Ccaron" unicode="&#x10c;" horiz-adv-x="759" d="M407 -14 Q304 -14 224 32 Q144 78 99.5 160.5 Q55 243 55 350 Q55 454 100 537 Q145 620 224.5 667 Q304 714 404 714 Q517 714 598.5 657 Q680 600 714 497 L618 465 Q594 540 540 581 Q486 622 405 622 Q334 622 277 586.5 Q220 551 187.5 489 Q155 427 155 350 Q155 271 187.5 209 Q220 147 277.5 112.5 Q335 78 408 78 Q489 78 541.5 117 Q594 156 616 221 L711 190 Q674 93 597 39.5 Q520 -14 407 -14 Z M545 900 L455 774 L352 774 L262 900 L348 900 L404 837 L460 900 L545 900 Z " />
<glyph glyph-name="Ccedilla" unicode="&#xc7;" horiz-adv-x="759" d="M408 78 Q489 78 541.5 117 Q594 156 616 221 L711 190 Q676 98 605 45 Q534 -8 430 -13 L415 -42 Q451 -43 475 -65 Q499 -87 499 -123 Q499 -166 473 -191.5 Q447 -217 404 -217 Q367 -217 341 -196.5 Q315 -176 313 -146 L368 -127 Q368 -143 377.5 -152.5 Q387 -162 404 -162 Q420 -162 429.5 -152.5 Q439 -143 439 -127 Q439 -112 429 -103 Q419 -94 404 -94 Q389 -94 382 -101 L338 -76 L372 -13 Q279 -5 207 42.5 Q135 90 95 169.5 Q55 249 55 350 Q55 454 100 537 Q145 620 224.5 667 Q304 714 404 714 Q517 714 598.5 657 Q680 600 714 497 L618 465 Q594 540 540 581 Q486 622 405 622 Q334 622 277 586.5 Q220 551 187.5 489 Q155 427 155 350 Q155 271 187.5 209 Q220 147 277.5 112.5 Q335 78 408 78 Z " />
<glyph glyph-name="Ccircumflex" unicode="&#x108;" horiz-adv-x="759" d="M407 -14 Q304 -14 224 32 Q144 78 99.5 160.5 Q55 243 55 350 Q55 454 100 537 Q145 620 224.5 667 Q304 714 404 714 Q517 714 598.5 657 Q680 600 714 497 L618 465 Q594 540 540 581 Q486 622 405 622 Q334 622 277 586.5 Q220 551 187.5 489 Q155 427 155 350 Q155 271 187.5 209 Q220 147 277.5 112.5 Q335 78 408 78 Q489 78 541.5 117 Q594 156 616 221 L711 190 Q674 93 597 39.5 Q520 -14 407 -14 Z M460 771 L404 834 L348 771 L262 771 L352 897 L455 897 L545 771 L460 771 Z " />
<glyph glyph-name="Cdotaccent" unicode="&#x10a;" horiz-adv-x="759" d="M407 -14 Q304 -14 224 32 Q144 78 99.5 160.5 Q55 243 55 350 Q55 454 100 537 Q145 620 224.5 667 Q304 714 404 714 Q517 714 598.5 657 Q680 600 714 497 L618 465 Q594 540 540 581 Q486 622 405 622 Q334 622 277 586.5 Q220 551 187.5 489 Q155 427 155 350 Q155 271 187.5 209 Q220 147 277.5 112.5 Q335 78 408 78 Q489 78 541.5 117 Q594 156 616 221 L711 190 Q674 93 597 39.5 Q520 -14 407 -14 Z M405 772 Q378 772 359 790.5 Q340 809 340 836 Q340 862 359 881 Q378 900 405 900 Q431 900 449.5 881 Q468 862 468 836 Q468 809 449.5 790.5 Q431 772 405 772 Z " />
<glyph glyph-name="D" unicode="D" horiz-adv-x="706" d="M77 700 L306 700 Q426 700 503 652 Q580 604 615.5 526 Q651 448 651 353 Q651 255 612.5 175 Q574 95 498 47.5 Q422 0 315 0 L77 0 L77 700 Z M310 90 Q436 90 493.5 166 Q551 242 551 354 Q551 468 495 539 Q439 610 301 610 L177 610 L177 90 L310 90 Z " />
<glyph glyph-name="Eth" unicode="&#xd0;" horiz-adv-x="706" d="M306 700 Q426 700 503 652 Q580 604 615.5 526 Q651 448 651 353 Q651 255 612.5 175 Q574 95 498 47.5 Q422 0 315 0 L77 0 L77 311 L2 311 L2 392 L77 392 L77 700 L306 700 Z M310 90 Q436 90 493.5 166 Q551 242 551 354 Q551 468 495 539 Q439 610 301 610 L177 610 L177 392 L329 392 L329 311 L177 311 L177 90 L310 90 Z " />
<glyph glyph-name="Dcaron" unicode="&#x10e;" horiz-adv-x="706" d="M77 700 L306 700 Q426 700 503 652 Q580 604 615.5 526 Q651 448 651 353 Q651 255 612.5 175 Q574 95 498 47.5 Q422 0 315 0 L77 0 L77 700 Z M310 90 Q436 90 493.5 166 Q551 242 551 354 Q551 468 495 539 Q439 610 301 610 L177 610 L177 90 L310 90 Z M490 900 L400 774 L297 774 L207 900 L293 900 L349 837 L405 900 L490 900 Z " />
<glyph glyph-name="Dcroat" unicode="&#x110;" horiz-adv-x="706" d="M306 700 Q426 700 503 652 Q580 604 615.5 526 Q651 448 651 353 Q651 255 612.5 175 Q574 95 498 47.5 Q422 0 315 0 L77 0 L77 311 L2 311 L2 392 L77 392 L77 700 L306 700 Z M310 90 Q436 90 493.5 166 Q551 242 551 354 Q551 468 495 539 Q439 610 301 610 L177 610 L177 392 L329 392 L329 311 L177 311 L177 90 L310 90 Z " />
<glyph glyph-name="E" unicode="E" horiz-adv-x="559" d="M77 700 L509 700 L509 610 L177 610 L177 397 L467 397 L467 309 L177 309 L177 90 L509 90 L509 0 L77 0 L77 700 Z " />
<glyph glyph-name="Eacute" unicode="&#xc9;" horiz-adv-x="559" d="M77 700 L509 700 L509 610 L177 610 L177 397 L467 397 L467 309 L177 309 L177 90 L509 90 L509 0 L77 0 L77 700 Z M329 897 L456 897 L349 771 L262 771 L329 897 Z " />
<glyph glyph-name="Ebreve" unicode="&#x114;" horiz-adv-x="559" d="M77 700 L509 700 L509 610 L177 610 L177 397 L467 397 L467 309 L177 309 L177 90 L509 90 L509 0 L77 0 L77 700 Z M306 775 Q250 775 214 810.5 Q178 846 175 901 L247 901 Q249 875 265 859 Q281 843 307 843 Q333 843 349.5 859 Q366 875 368 901 L439 901 Q437 846 400 810.5 Q363 775 306 775 Z " />
<glyph glyph-name="Ecaron" unicode="&#x11a;" horiz-adv-x="559" d="M77 700 L509 700 L509 610 L177 610 L177 397 L467 397 L467 309 L177 309 L177 90 L509 90 L509 0 L77 0 L77 700 Z M448 900 L358 774 L255 774 L165 900 L251 900 L307 837 L363 900 L448 900 Z " />
<glyph glyph-name="Ecircumflex" unicode="&#xca;" horiz-adv-x="559" d="M77 700 L509 700 L509 610 L177 610 L177 397 L467 397 L467 309 L177 309 L177 90 L509 90 L509 0 L77 0 L77 700 Z M363 771 L307 834 L251 771 L165 771 L255 897 L358 897 L448 771 L363 771 Z " />
<glyph glyph-name="Edieresis" unicode="&#xcb;" horiz-adv-x="559" d="M77 700 L509 700 L509 610 L177 610 L177 397 L467 397 L467 309 L177 309 L177 90 L509 90 L509 0 L77 0 L77 700 Z M220 770 Q194 770 174.5 789 Q155 808 155 834 Q155 860 174.5 879 Q194 898 220 898 Q246 898 265 879 Q284 860 284 834 Q284 808 265 789 Q246 770 220 770 Z M394 770 Q368 770 349 789 Q330 808 330 834 Q330 860 349 879 Q368 898 394 898 Q421 898 439.5 879 Q458 860 458 834 Q458 808 439.5 789 Q421 770 394 770 Z " />
<glyph glyph-name="Edotaccent" unicode="&#x116;" horiz-adv-x="559" d="M77 700 L509 700 L509 610 L177 610 L177 397 L467 397 L467 309 L177 309 L177 90 L509 90 L509 0 L77 0 L77 700 Z M308 772 Q281 772 262 790.5 Q243 809 243 836 Q243 862 262 881 Q281 900 308 900 Q334 900 352.5 881 Q371 862 371 836 Q371 809 352.5 790.5 Q334 772 308 772 Z " />
<glyph glyph-name="Egrave" unicode="&#xc8;" horiz-adv-x="559" d="M77 700 L509 700 L509 610 L177 610 L177 397 L467 397 L467 309 L177 309 L177 90 L509 90 L509 0 L77 0 L77 700 Z M158 897 L285 897 L352 771 L265 771 L158 897 Z " />
<glyph glyph-name="Emacron" unicode="&#x112;" horiz-adv-x="559" d="M77 700 L509 700 L509 610 L177 610 L177 397 L467 397 L467 309 L177 309 L177 90 L509 90 L509 0 L77 0 L77 700 Z M201 872 L413 872 L413 796 L201 796 L201 872 Z " />
<glyph glyph-name="Eogonek" unicode="&#x118;" horiz-adv-x="559" d="M177 610 L177 397 L467 397 L467 309 L177 309 L177 90 L509 90 L509 0 Q447 -32 447 -75 Q447 -93 460 -104.5 Q473 -116 497 -116 L503 -116 L502 -182 Q495 -183 482 -183 Q431 -183 401.5 -158.5 Q372 -134 372 -94 Q372 -40 417 0 L77 0 L77 700 L509 700 L509 610 L177 610 Z " />
<glyph glyph-name="F" unicode="F" horiz-adv-x="559" d="M77 700 L509 700 L509 610 L177 610 L177 380 L469 380 L469 292 L177 292 L177 0 L77 0 L77 700 Z " />
<glyph glyph-name="G" unicode="G" horiz-adv-x="792" d="M408 -14 Q306 -14 225.5 32.5 Q145 79 100 162 Q55 245 55 350 Q55 452 100.5 535 Q146 618 226.5 666 Q307 714 406 714 Q518 714 593.5 662 Q669 610 703 521 L610 489 Q585 551 535.5 586.5 Q486 622 410 622 Q336 622 278 585.5 Q220 549 187.5 487 Q155 425 155 350 Q155 273 187.5 211 Q220 149 278 113.5 Q336 78 411 78 Q482 78 530.5 108.5 Q579 139 603 188 Q627 237 629 292 L466 292 L466 378 L727 378 L727 0 L656 0 L641 92 Q627 70 597 46 Q567 22 518.5 4 Q470 -14 408 -14 Z " />
<glyph glyph-name="Gbreve" unicode="&#x11e;" horiz-adv-x="792" d="M408 -14 Q306 -14 225.5 32.5 Q145 79 100 162 Q55 245 55 350 Q55 452 100.5 535 Q146 618 226.5 666 Q307 714 406 714 Q518 714 593.5 662 Q669 610 703 521 L610 489 Q585 551 535.5 586.5 Q486 622 410 622 Q336 622 278 585.5 Q220 549 187.5 487 Q155 425 155 350 Q155 273 187.5 211 Q220 149 278 113.5 Q336 78 411 78 Q482 78 530.5 108.5 Q579 139 603 188 Q627 237 629 292 L466 292 L466 378 L727 378 L727 0 L656 0 L641 92 Q627 70 597 46 Q567 22 518.5 4 Q470 -14 408 -14 Z M406 775 Q350 775 314 810.5 Q278 846 275 901 L347 901 Q349 875 365 859 Q381 843 407 843 Q433 843 449.5 859 Q466 875 468 901 L539 901 Q537 846 500 810.5 Q463 775 406 775 Z " />
<glyph glyph-name="Gcircumflex" unicode="&#x11c;" horiz-adv-x="792" d="M408 -14 Q306 -14 225.5 32.5 Q145 79 100 162 Q55 245 55 350 Q55 452 100.5 535 Q146 618 226.5 666 Q307 714 406 714 Q518 714 593.5 662 Q669 610 703 521 L610 489 Q585 551 535.5 586.5 Q486 622 410 622 Q336 622 278 585.5 Q220 549 187.5 487 Q155 425 155 350 Q155 273 187.5 211 Q220 149 278 113.5 Q336 78 411 78 Q482 78 530.5 108.5 Q579 139 603 188 Q627 237 629 292 L466 292 L466 378 L727 378 L727 0 L656 0 L641 92 Q627 70 597 46 Q567 22 518.5 4 Q470 -14 408 -14 Z M463 771 L407 834 L351 771 L265 771 L355 897 L458 897 L548 771 L463 771 Z " />
<glyph glyph-name="Gcommaaccent" unicode="&#x122;" horiz-adv-x="792" d="M408 -14 Q306 -14 225.5 32.5 Q145 79 100 162 Q55 245 55 350 Q55 452 100.5 535 Q146 618 226.5 666 Q307 714 406 714 Q518 714 593.5 662 Q669 610 703 521 L610 489 Q585 551 535.5 586.5 Q486 622 410 622 Q336 622 278 585.5 Q220 549 187.5 487 Q155 425 155 350 Q155 273 187.5 211 Q220 149 278 113.5 Q336 78 411 78 Q482 78 530.5 108.5 Q579 139 603 188 Q627 237 629 292 L466 292 L466 378 L727 378 L727 0 L656 0 L641 92 Q627 70 597 46 Q567 22 518.5 4 Q470 -14 408 -14 Z M367 -210 Q385 -189 391 -165 Q371 -161 359 -147.5 Q347 -134 347 -114 Q347 -88 364.5 -73.5 Q382 -59 403 -59 Q429 -59 445.5 -75 Q462 -91 462 -120 Q462 -151 446 -183 Q430 -215 403 -236 L367 -210 Z " />
<glyph glyph-name="Gdotaccent" unicode="&#x120;" horiz-adv-x="792" d="M408 -14 Q306 -14 225.5 32.5 Q145 79 100 162 Q55 245 55 350 Q55 452 100.5 535 Q146 618 226.5 666 Q307 714 406 714 Q518 714 593.5 662 Q669 610 703 521 L610 489 Q585 551 535.5 586.5 Q486 622 410 622 Q336 622 278 585.5 Q220 549 187.5 487 Q155 425 155 350 Q155 273 187.5 211 Q220 149 278 113.5 Q336 78 411 78 Q482 78 530.5 108.5 Q579 139 603 188 Q627 237 629 292 L466 292 L466 378 L727 378 L727 0 L656 0 L641 92 Q627 70 597 46 Q567 22 518.5 4 Q470 -14 408 -14 Z M408 772 Q381 772 362 790.5 Q343 809 343 836 Q343 862 362 881 Q381 900 408 900 Q434 900 452.5 881 Q471 862 471 836 Q471 809 452.5 790.5 Q434 772 408 772 Z " />
<glyph glyph-name="H" unicode="H" horiz-adv-x="689" d="M77 700 L177 700 L177 403 L512 403 L512 700 L612 700 L612 0 L512 0 L512 311 L177 311 L177 0 L77 0 L77 700 Z " />
<glyph glyph-name="Hbar" unicode="&#x126;" horiz-adv-x="789" d="M711 508 L662 508 L662 0 L562 0 L562 303 L227 303 L227 0 L127 0 L127 508 L77 508 L77 589 L127 589 L127 700 L227 700 L227 589 L562 589 L562 700 L662 700 L662 589 L711 589 L711 508 Z M562 508 L227 508 L227 395 L562 395 L562 508 Z " />
<glyph glyph-name="Hcircumflex" unicode="&#x124;" horiz-adv-x="689" d="M77 700 L177 700 L177 403 L512 403 L512 700 L612 700 L612 0 L512 0 L512 311 L177 311 L177 0 L77 0 L77 700 Z M402 771 L346 834 L290 771 L204 771 L294 897 L397 897 L487 771 L402 771 Z " />
<glyph glyph-name="I" unicode="I" horiz-adv-x="254" d="M77 700 L177 700 L177 0 L77 0 L77 700 Z " />
<glyph glyph-name="IJ" unicode="&#x132;" horiz-adv-x="770" d="M77 700 L177 700 L177 0 L77 0 L77 700 Z M488 -14 Q399 -14 342.5 37.5 Q286 89 284 175 L284 212 L382 194 L382 183 Q382 136 410 107 Q438 78 488 78 Q540 78 567.5 110.5 Q595 143 595 201 L595 700 L695 700 L695 204 Q695 97 639.5 41.5 Q584 -14 488 -14 Z " />
<glyph glyph-name="Iacute" unicode="&#xcd;" horiz-adv-x="254" d="M77 700 L177 700 L177 0 L77 0 L77 700 Z M149 897 L276 897 L169 771 L82 771 L149 897 Z " />
<glyph glyph-name="Ibreve" unicode="&#x12c;" horiz-adv-x="254" d="M77 700 L177 700 L177 0 L77 0 L77 700 Z M126 775 Q70 775 34 810.5 Q-2 846 -5 901 L67 901 Q69 875 85 859 Q101 843 127 843 Q153 843 169.5 859 Q186 875 188 901 L259 901 Q257 846 220 810.5 Q183 775 126 775 Z " />
<glyph glyph-name="Icircumflex" unicode="&#xce;" horiz-adv-x="254" d="M77 700 L177 700 L177 0 L77 0 L77 700 Z M183 771 L127 834 L71 771 L-15 771 L75 897 L178 897 L268 771 L183 771 Z " />
<glyph glyph-name="Idieresis" unicode="&#xcf;" horiz-adv-x="254" d="M77 700 L177 700 L177 0 L77 0 L77 700 Z M43 773 Q17 773 -2 792 Q-21 811 -21 837 Q-21 863 -2 882 Q17 901 43 901 Q69 901 88 882 Q107 863 107 837 Q107 811 88 792 Q69 773 43 773 Z M211 773 Q185 773 166 792 Q147 811 147 837 Q147 863 166 882 Q185 901 211 901 Q237 901 256 882 Q275 863 275 837 Q275 811 256 792 Q237 773 211 773 Z " />
<glyph glyph-name="Idot" unicode="&#x130;" horiz-adv-x="254" d="M77 700 L177 700 L177 0 L77 0 L77 700 Z M128 772 Q101 772 82 790.5 Q63 809 63 836 Q63 862 82 881 Q101 900 128 900 Q154 900 172.5 881 Q191 862 191 836 Q191 809 172.5 790.5 Q154 772 128 772 Z " />
<glyph glyph-name="Igrave" unicode="&#xcc;" horiz-adv-x="254" d="M77 700 L177 700 L177 0 L77 0 L77 700 Z M-22 897 L105 897 L172 771 L85 771 L-22 897 Z " />
<glyph glyph-name="Imacron" unicode="&#x12a;" horiz-adv-x="254" d="M77 700 L177 700 L177 0 L77 0 L77 700 Z M21 872 L233 872 L233 796 L21 796 L21 872 Z " />
<glyph glyph-name="Iogonek" unicode="&#x12e;" horiz-adv-x="254" d="M177 0 Q115 -32 115 -75 Q115 -93 128 -104.5 Q141 -116 165 -116 L171 -116 L170 -182 Q163 -183 150 -183 Q99 -183 69.5 -158.5 Q40 -134 40 -94 Q40 -40 85 0 L77 0 L77 700 L177 700 L177 0 Z " />
<glyph glyph-name="Itilde" unicode="&#x128;" horiz-adv-x="254" d="M77 700 L177 700 L177 0 L77 0 L77 700 Z M189 777 Q168 777 152.5 782.5 Q137 788 118 798 Q90 813 73 813 Q60 813 47 804 Q34 795 25 776 L-30 813 Q-15 852 10.5 870 Q36 888 66 888 Q86 888 101 883 Q116 878 135 868 Q152 860 162 856 Q172 852 184 852 Q211 852 231 892 L288 853 Q274 815 248 796 Q222 777 189 777 Z " />
<glyph glyph-name="J" unicode="J" horiz-adv-x="516" d="M234 -14 Q145 -14 88.5 37.5 Q32 89 30 175 L30 212 L128 194 L128 183 Q128 136 156 107 Q184 78 234 78 Q286 78 313.5 110.5 Q341 143 341 201 L341 700 L441 700 L441 204 Q441 97 385.5 41.5 Q330 -14 234 -14 Z " />
<glyph glyph-name="Jcircumflex" unicode="&#x134;" horiz-adv-x="516" d="M234 -14 Q145 -14 88.5 37.5 Q32 89 30 175 L30 212 L128 194 L128 183 Q128 136 156 107 Q184 78 234 78 Q286 78 313.5 110.5 Q341 143 341 201 L341 700 L441 700 L441 204 Q441 97 385.5 41.5 Q330 -14 234 -14 Z M446 771 L390 834 L334 771 L248 771 L338 897 L441 897 L531 771 L446 771 Z " />
<glyph glyph-name="K" unicode="K" horiz-adv-x="638" d="M259 336 L176 249 L176 0 L77 0 L77 700 L176 700 L176 387 L472 700 L602 700 L328 410 L616 0 L492 0 L259 336 Z " />
<glyph glyph-name="Kcommaaccent" unicode="&#x136;" horiz-adv-x="638" d="M259 336 L176 249 L176 0 L77 0 L77 700 L176 700 L176 387 L472 700 L602 700 L328 410 L616 0 L492 0 L259 336 Z M288 -210 Q306 -189 312 -165 Q292 -161 280 -147.5 Q268 -134 268 -114 Q268 -88 285.5 -73.5 Q303 -59 324 -59 Q350 -59 366.5 -75 Q383 -91 383 -120 Q383 -151 367 -183 Q351 -215 324 -236 L288 -210 Z " />
<glyph glyph-name="L" unicode="L" horiz-adv-x="527" d="M77 700 L177 700 L177 92 L498 92 L498 0 L77 0 L77 700 Z " />
<glyph glyph-name="Lacute" unicode="&#x139;" horiz-adv-x="527" d="M77 700 L177 700 L177 92 L498 92 L498 0 L77 0 L77 700 Z M159 897 L286 897 L179 771 L92 771 L159 897 Z " />
<glyph glyph-name="Lcaron" unicode="&#x13d;" horiz-adv-x="527" d="M77 700 L177 700 L177 92 L498 92 L498 0 L77 0 L77 700 Z M279 700 L395 700 L318 574 L238 574 L279 700 Z " />
<glyph glyph-name="Lcommaaccent" unicode="&#x13b;" horiz-adv-x="527" d="M77 700 L177 700 L177 92 L498 92 L498 0 L77 0 L77 700 Z M248 -210 Q266 -189 272 -165 Q252 -161 240 -147.5 Q228 -134 228 -114 Q228 -88 245.5 -73.5 Q263 -59 284 -59 Q310 -59 326.5 -75 Q343 -91 343 -120 Q343 -151 327 -183 Q311 -215 284 -236 L248 -210 Z " />
<glyph glyph-name="Ldot" unicode="&#x13f;" horiz-adv-x="527" d="M77 700 L177 700 L177 92 L498 92 L498 0 L77 0 L77 700 Z M390 327 Q362 327 342.5 346.5 Q323 366 323 394 Q323 422 342.5 441.5 Q362 461 390 461 Q418 461 437.5 441.5 Q457 422 457 394 Q457 366 437.5 346.5 Q418 327 390 327 Z " />
<glyph glyph-name="Lslash" unicode="&#x141;" horiz-adv-x="557" d="M528 92 L528 0 L107 0 L107 275 L37 243 L7 314 L107 360 L107 700 L207 700 L207 406 L345 469 L377 398 L207 321 L207 92 L528 92 Z " />
<glyph glyph-name="M" unicode="M" horiz-adv-x="872" d="M791 0 L692 0 L692 515 L472 0 L398 0 L180 513 L179 0 L80 0 L80 700 L194 700 L436 134 L677 700 L792 700 L791 0 Z " />
<glyph glyph-name="N" unicode="N" horiz-adv-x="729" d="M80 700 L185 700 L548 161 L548 700 L649 700 L649 0 L544 0 L180 538 L180 0 L80 0 L80 700 Z " />
<glyph glyph-name="Nacute" unicode="&#x143;" horiz-adv-x="729" d="M80 700 L185 700 L548 161 L548 700 L649 700 L649 0 L544 0 L180 538 L180 0 L80 0 L80 700 Z M393 897 L520 897 L413 771 L326 771 L393 897 Z " />
<glyph glyph-name="Ncaron" unicode="&#x147;" horiz-adv-x="729" d="M80 700 L185 700 L548 161 L548 700 L649 700 L649 0 L544 0 L180 538 L180 0 L80 0 L80 700 Z M512 900 L422 774 L319 774 L229 900 L315 900 L371 837 L427 900 L512 900 Z " />
<glyph glyph-name="Ncommaaccent" unicode="&#x145;" horiz-adv-x="729" d="M80 700 L185 700 L548 161 L548 700 L649 700 L649 0 L544 0 L180 538 L180 0 L80 0 L80 700 Z M326 -210 Q344 -189 350 -165 Q330 -161 318 -147.5 Q306 -134 306 -114 Q306 -88 323.5 -73.5 Q341 -59 362 -59 Q388 -59 404.5 -75 Q421 -91 421 -120 Q421 -151 405 -183 Q389 -215 362 -236 L326 -210 Z " />
<glyph glyph-name="Eng" unicode="&#x14a;" horiz-adv-x="729" d="M649 0 L648 0 L648 -80 Q648 -143 610.5 -181 Q573 -219 516 -219 Q476 -219 448.5 -207 Q421 -195 409 -181 L454 -111 Q470 -129 500 -129 Q550 -129 550 -69 L550 -9 L544 0 L180 538 L180 0 L80 0 L80 700 L185 700 L548 161 L548 700 L649 700 L649 0 Z " />
<glyph glyph-name="Ntilde" unicode="&#xd1;" horiz-adv-x="729" d="M80 700 L185 700 L548 161 L548 700 L649 700 L649 0 L544 0 L180 538 L180 0 L80 0 L80 700 Z M433 777 Q412 777 396.5 782.5 Q381 788 362 798 Q334 813 317 813 Q304 813 291 804 Q278 795 269 776 L214 813 Q229 852 254.5 870 Q280 888 310 888 Q330 888 345 883 Q360 878 379 868 Q396 860 406 856 Q416 852 428 852 Q455 852 475 892 L532 853 Q518 815 492 796 Q466 777 433 777 Z " />
<glyph glyph-name="O" unicode="O" horiz-adv-x="821" d="M411 -13 Q306 -13 225 35 Q144 83 99.5 166 Q55 249 55 351 Q55 452 99.5 535 Q144 618 225 666.5 Q306 715 411 715 Q515 715 596 666.5 Q677 618 721.5 535 Q766 452 766 351 Q766 249 721 166 Q676 83 595.5 35 Q515 -13 411 -13 Z M411 79 Q486 79 544 114 Q602 149 634 211 Q666 273 666 351 Q666 428 633.5 490 Q601 552 543 587.5 Q485 623 411 623 Q336 623 277.5 587.5 Q219 552 187 490 Q155 428 155 351 Q155 272 187 210.5 Q219 149 277 114 Q335 79 411 79 Z " />
<glyph glyph-name="Oacute" unicode="&#xd3;" horiz-adv-x="821" d="M411 -13 Q306 -13 225 35 Q144 83 99.5 166 Q55 249 55 351 Q55 452 99.5 535 Q144 618 225 666.5 Q306 715 411 715 Q515 715 596 666.5 Q677 618 721.5 535 Q766 452 766 351 Q766 249 721 166 Q676 83 595.5 35 Q515 -13 411 -13 Z M411 79 Q486 79 544 114 Q602 149 634 211 Q666 273 666 351 Q666 428 633.5 490 Q601 552 543 587.5 Q485 623 411 623 Q336 623 277.5 587.5 Q219 552 187 490 Q155 428 155 351 Q155 272 187 210.5 Q219 149 277 114 Q335 79 411 79 Z M433 897 L560 897 L453 771 L366 771 L433 897 Z " />
<glyph glyph-name="Obreve" unicode="&#x14e;" horiz-adv-x="821" d="M411 -13 Q306 -13 225 35 Q144 83 99.5 166 Q55 249 55 351 Q55 452 99.5 535 Q144 618 225 666.5 Q306 715 411 715 Q515 715 596 666.5 Q677 618 721.5 535 Q766 452 766 351 Q766 249 721 166 Q676 83 595.5 35 Q515 -13 411 -13 Z M411 79 Q486 79 544 114 Q602 149 634 211 Q666 273 666 351 Q666 428 633.5 490 Q601 552 543 587.5 Q485 623 411 623 Q336 623 277.5 587.5 Q219 552 187 490 Q155 428 155 351 Q155 272 187 210.5 Q219 149 277 114 Q335 79 411 79 Z M410 775 Q354 775 318 810.5 Q282 846 279 901 L351 901 Q353 875 369 859 Q385 843 411 843 Q437 843 453.5 859 Q470 875 472 901 L543 901 Q541 846 504 810.5 Q467 775 410 775 Z " />
<glyph glyph-name="Ocircumflex" unicode="&#xd4;" horiz-adv-x="821" d="M411 -13 Q306 -13 225 35 Q144 83 99.5 166 Q55 249 55 351 Q55 452 99.5 535 Q144 618 225 666.5 Q306 715 411 715 Q515 715 596 666.5 Q677 618 721.5 535 Q766 452 766 351 Q766 249 721 166 Q676 83 595.5 35 Q515 -13 411 -13 Z M411 79 Q486 79 544 114 Q602 149 634 211 Q666 273 666 351 Q666 428 633.5 490 Q601 552 543 587.5 Q485 623 411 623 Q336 623 277.5 587.5 Q219 552 187 490 Q155 428 155 351 Q155 272 187 210.5 Q219 149 277 114 Q335 79 411 79 Z M467 771 L411 834 L355 771 L269 771 L359 897 L462 897 L552 771 L467 771 Z " />
<glyph glyph-name="Odieresis" unicode="&#xd6;" horiz-adv-x="821" d="M411 -13 Q306 -13 225 35 Q144 83 99.5 166 Q55 249 55 351 Q55 452 99.5 535 Q144 618 225 666.5 Q306 715 411 715 Q515 715 596 666.5 Q677 618 721.5 535 Q766 452 766 351 Q766 249 721 166 Q676 83 595.5 35 Q515 -13 411 -13 Z M411 79 Q486 79 544 114 Q602 149 634 211 Q666 273 666 351 Q666 428 633.5 490 Q601 552 543 587.5 Q485 623 411 623 Q336 623 277.5 587.5 Q219 552 187 490 Q155 428 155 351 Q155 272 187 210.5 Q219 149 277 114 Q335 79 411 79 Z M324 770 Q298 770 278.5 789 Q259 808 259 834 Q259 860 278.5 879 Q298 898 324 898 Q350 898 369 879 Q388 860 388 834 Q388 808 369 789 Q350 770 324 770 Z M498 770 Q472 770 453 789 Q434 808 434 834 Q434 860 453 879 Q472 898 498 898 Q525 898 543.5 879 Q562 860 562 834 Q562 808 543.5 789 Q525 770 498 770 Z " />
<glyph glyph-name="Ograve" unicode="&#xd2;" horiz-adv-x="821" d="M411 -13 Q306 -13 225 35 Q144 83 99.5 166 Q55 249 55 351 Q55 452 99.5 535 Q144 618 225 666.5 Q306 715 411 715 Q515 715 596 666.5 Q677 618 721.5 535 Q766 452 766 351 Q766 249 721 166 Q676 83 595.5 35 Q515 -13 411 -13 Z M411 79 Q486 79 544 114 Q602 149 634 211 Q666 273 666 351 Q666 428 633.5 490 Q601 552 543 587.5 Q485 623 411 623 Q336 623 277.5 587.5 Q219 552 187 490 Q155 428 155 351 Q155 272 187 210.5 Q219 149 277 114 Q335 79 411 79 Z M262 897 L389 897 L456 771 L369 771 L262 897 Z " />
<glyph glyph-name="Ohungarumlaut" unicode="&#x150;" horiz-adv-x="821" d="M411 -13 Q306 -13 225 35 Q144 83 99.5 166 Q55 249 55 351 Q55 452 99.5 535 Q144 618 225 666.5 Q306 715 411 715 Q515 715 596 666.5 Q677 618 721.5 535 Q766 452 766 351 Q766 249 721 166 Q676 83 595.5 35 Q515 -13 411 -13 Z M411 79 Q486 79 544 114 Q602 149 634 211 Q666 273 666 351 Q666 428 633.5 490 Q601 552 543 587.5 Q485 623 411 623 Q336 623 277.5 587.5 Q219 552 187 490 Q155 428 155 351 Q155 272 187 210.5 Q219 149 277 114 Q335 79 411 79 Z M296 774 L361 900 L476 900 L371 774 L296 774 Z M443 774 L508 900 L623 900 L518 774 L443 774 Z " />
<glyph glyph-name="Omacron" unicode="&#x14c;" horiz-adv-x="821" d="M411 -13 Q306 -13 225 35 Q144 83 99.5 166 Q55 249 55 351 Q55 452 99.5 535 Q144 618 225 666.5 Q306 715 411 715 Q515 715 596 666.5 Q677 618 721.5 535 Q766 452 766 351 Q766 249 721 166 Q676 83 595.5 35 Q515 -13 411 -13 Z M411 79 Q486 79 544 114 Q602 149 634 211 Q666 273 666 351 Q666 428 633.5 490 Q601 552 543 587.5 Q485 623 411 623 Q336 623 277.5 587.5 Q219 552 187 490 Q155 428 155 351 Q155 272 187 210.5 Q219 149 277 114 Q335 79 411 79 Z M305 872 L517 872 L517 796 L305 796 L305 872 Z " />
<glyph glyph-name="Oslash" unicode="&#xd8;" horiz-adv-x="821" d="M658 619 Q710 569 738 499.5 Q766 430 766 351 Q766 249 721 166 Q676 83 595.5 35 Q515 -13 411 -13 Q316 -13 237 28 L180 -52 L110 -2 L167 78 Q113 128 84 198.5 Q55 269 55 351 Q55 452 99.5 535 Q144 618 225 666.5 Q306 715 411 715 Q510 715 589 670 L639 740 L708 690 L658 619 Z M155 351 Q155 293 173 243.5 Q191 194 224 157 L534 593 Q477 623 411 623 Q336 623 277.5 587.5 Q219 552 187 490 Q155 428 155 351 Z M411 79 Q486 79 544 114 Q602 149 634 211 Q666 273 666 351 Q666 406 649 454.5 Q632 503 601 539 L292 106 Q345 79 411 79 Z " />
<glyph glyph-name="Oslashacute" unicode="&#x1fe;" horiz-adv-x="821" d="M658 619 Q710 569 738 499.5 Q766 430 766 351 Q766 249 721 166 Q676 83 595.5 35 Q515 -13 411 -13 Q316 -13 237 28 L180 -52 L110 -2 L167 78 Q113 128 84 198.5 Q55 269 55 351 Q55 452 99.5 535 Q144 618 225 666.5 Q306 715 411 715 Q510 715 589 670 L639 740 L708 690 L658 619 Z M155 351 Q155 293 173 243.5 Q191 194 224 157 L534 593 Q477 623 411 623 Q336 623 277.5 587.5 Q219 552 187 490 Q155 428 155 351 Z M411 79 Q486 79 544 114 Q602 149 634 211 Q666 273 666 351 Q666 406 649 454.5 Q632 503 601 539 L292 106 Q345 79 411 79 Z M434 897 L561 897 L454 771 L367 771 L434 897 Z " />
<glyph glyph-name="Otilde" unicode="&#xd5;" horiz-adv-x="821" d="M411 -13 Q306 -13 225 35 Q144 83 99.5 166 Q55 249 55 351 Q55 452 99.5 535 Q144 618 225 666.5 Q306 715 411 715 Q515 715 596 666.5 Q677 618 721.5 535 Q766 452 766 351 Q766 249 721 166 Q676 83 595.5 35 Q515 -13 411 -13 Z M411 79 Q486 79 544 114 Q602 149 634 211 Q666 273 666 351 Q666 428 633.5 490 Q601 552 543 587.5 Q485 623 411 623 Q336 623 277.5 587.5 Q219 552 187 490 Q155 428 155 351 Q155 272 187 210.5 Q219 149 277 114 Q335 79 411 79 Z M473 777 Q452 777 436.5 782.5 Q421 788 402 798 Q374 813 357 813 Q344 813 331 804 Q318 795 309 776 L254 813 Q269 852 294.5 870 Q320 888 350 888 Q370 888 385 883 Q400 878 419 868 Q436 860 446 856 Q456 852 468 852 Q495 852 515 892 L572 853 Q558 815 532 796 Q506 777 473 777 Z " />
<glyph glyph-name="OE" unicode="&#x152;" horiz-adv-x="1147" d="M765 610 L765 397 L1055 397 L1055 309 L765 309 L765 90 L1097 90 L1097 0 L665 0 L665 102 Q621 47 556.5 17 Q492 -13 411 -13 Q305 -13 224.5 35 Q144 83 99.5 166 Q55 249 55 351 Q55 452 100 535 Q145 618 226 666.5 Q307 715 411 715 Q492 715 556.5 684 Q621 653 665 598 L665 700 L1097 700 L1097 610 L765 610 Z M411 81 Q486 81 543.5 116 Q601 151 633 212.5 Q665 274 665 351 Q665 426 632.5 488 Q600 550 542 585.5 Q484 621 411 621 Q337 621 279 585.5 Q221 550 189.5 488.5 Q158 427 158 351 Q158 273 189 211.5 Q220 150 277.5 115.5 Q335 81 411 81 Z " />
<glyph glyph-name="P" unicode="P" horiz-adv-x="596" d="M77 700 L313 700 Q419 700 484.5 644.5 Q550 589 550 483 Q550 414 519.5 365 Q489 316 436 291 Q383 266 317 266 L177 266 L177 0 L77 0 L77 700 Z M306 356 Q375 356 412.5 389 Q450 422 450 484 Q450 545 412 577.5 Q374 610 306 610 L177 610 L177 356 L306 356 Z " />
<glyph glyph-name="Thorn" unicode="&#xde;" horiz-adv-x="590" d="M77 700 L177 700 L177 570 L307 570 Q413 570 478.5 514 Q544 458 544 351 Q544 281 513 231.5 Q482 182 429.5 157 Q377 132 311 132 L177 132 L177 0 L77 0 L77 700 Z M300 222 Q369 222 406.5 255.5 Q444 289 444 352 Q444 414 406 447 Q368 480 300 480 L177 480 L177 222 L300 222 Z " />
<glyph glyph-name="Q" unicode="Q" horiz-adv-x="821" d="M766 351 Q766 283 745.5 222.5 Q725 162 686 113 L763 36 L696 -28 L618 50 Q530 -13 411 -13 Q306 -13 225 35 Q144 83 99.5 166 Q55 249 55 351 Q55 452 99.5 535 Q144 618 225 666.5 Q306 715 411 715 Q515 715 596 666.5 Q677 618 721.5 535 Q766 452 766 351 Z M411 79 Q491 79 550 118 L464 204 L531 269 L617 182 Q666 252 666 351 Q666 428 633.5 490 Q601 552 543 587.5 Q485 623 411 623 Q336 623 277.5 587.5 Q219 552 187 490 Q155 428 155 351 Q155 272 187 210.5 Q219 149 277 114 Q335 79 411 79 Z " />
<glyph glyph-name="R" unicode="R" horiz-adv-x="621" d="M77 700 L319 700 Q392 700 443.5 673.5 Q495 647 521 600.5 Q547 554 547 496 Q547 416 505 365.5 Q463 315 401 298 L575 0 L465 0 L300 285 L177 285 L177 0 L77 0 L77 700 Z M317 373 Q377 373 412 404 Q447 435 447 492 Q447 551 411 580.5 Q375 610 315 610 L177 610 L177 373 L317 373 Z " />
<glyph glyph-name="Racute" unicode="&#x154;" horiz-adv-x="621" d="M77 700 L319 700 Q392 700 443.5 673.5 Q495 647 521 600.5 Q547 554 547 496 Q547 416 505 365.5 Q463 315 401 298 L575 0 L465 0 L300 285 L177 285 L177 0 L77 0 L77 700 Z M317 373 Q377 373 412 404 Q447 435 447 492 Q447 551 411 580.5 Q375 610 315 610 L177 610 L177 373 L317 373 Z M316 897 L443 897 L336 771 L249 771 L316 897 Z " />
<glyph glyph-name="Rcaron" unicode="&#x158;" horiz-adv-x="621" d="M77 700 L319 700 Q392 700 443.5 673.5 Q495 647 521 600.5 Q547 554 547 496 Q547 416 505 365.5 Q463 315 401 298 L575 0 L465 0 L300 285 L177 285 L177 0 L77 0 L77 700 Z M317 373 Q377 373 412 404 Q447 435 447 492 Q447 551 411 580.5 Q375 610 315 610 L177 610 L177 373 L317 373 Z M435 900 L345 774 L242 774 L152 900 L238 900 L294 837 L350 900 L435 900 Z " />
<glyph glyph-name="Rcommaaccent" unicode="&#x156;" horiz-adv-x="621" d="M77 700 L319 700 Q392 700 443.5 673.5 Q495 647 521 600.5 Q547 554 547 496 Q547 416 505 365.5 Q463 315 401 298 L575 0 L465 0 L300 285 L177 285 L177 0 L77 0 L77 700 Z M317 373 Q377 373 412 404 Q447 435 447 492 Q447 551 411 580.5 Q375 610 315 610 L177 610 L177 373 L317 373 Z M271 -210 Q289 -189 295 -165 Q275 -161 263 -147.5 Q251 -134 251 -114 Q251 -88 268.5 -73.5 Q286 -59 307 -59 Q333 -59 349.5 -75 Q366 -91 366 -120 Q366 -151 350 -183 Q334 -215 307 -236 L271 -210 Z " />
<glyph glyph-name="S" unicode="S" horiz-adv-x="602" d="M307 -13 Q203 -13 135 37.5 Q67 88 42 187 L136 214 Q154 144 195 110.5 Q236 77 307 77 Q375 77 417.5 107 Q460 137 460 193 Q460 235 429.5 263.5 Q399 292 309 309 Q189 330 127 378.5 Q65 427 65 513 Q65 573 96.5 619 Q128 665 183 690 Q238 715 307 715 Q403 715 463.5 665 Q524 615 547 524 L454 497 Q439 560 404 592.5 Q369 625 307 625 Q243 625 204 595.5 Q165 566 165 513 Q165 466 203 443 Q241 420 326 404 Q446 379 503 329.5 Q560 280 560 193 Q560 131 526.5 84.5 Q493 38 435.5 12.5 Q378 -13 307 -13 Z " />
<glyph glyph-name="Sacute" unicode="&#x15a;" horiz-adv-x="602" d="M307 -13 Q203 -13 135 37.5 Q67 88 42 187 L136 214 Q154 144 195 110.5 Q236 77 307 77 Q375 77 417.5 107 Q460 137 460 193 Q460 235 429.5 263.5 Q399 292 309 309 Q189 330 127 378.5 Q65 427 65 513 Q65 573 96.5 619 Q128 665 183 690 Q238 715 307 715 Q403 715 463.5 665 Q524 615 547 524 L454 497 Q439 560 404 592.5 Q369 625 307 625 Q243 625 204 595.5 Q165 566 165 513 Q165 466 203 443 Q241 420 326 404 Q446 379 503 329.5 Q560 280 560 193 Q560 131 526.5 84.5 Q493 38 435.5 12.5 Q378 -13 307 -13 Z M329 897 L456 897 L349 771 L262 771 L329 897 Z " />
<glyph glyph-name="Scaron" unicode="&#x160;" horiz-adv-x="602" d="M307 -13 Q203 -13 135 37.5 Q67 88 42 187 L136 214 Q154 144 195 110.5 Q236 77 307 77 Q375 77 417.5 107 Q460 137 460 193 Q460 235 429.5 263.5 Q399 292 309 309 Q189 330 127 378.5 Q65 427 65 513 Q65 573 96.5 619 Q128 665 183 690 Q238 715 307 715 Q403 715 463.5 665 Q524 615 547 524 L454 497 Q439 560 404 592.5 Q369 625 307 625 Q243 625 204 595.5 Q165 566 165 513 Q165 466 203 443 Q241 420 326 404 Q446 379 503 329.5 Q560 280 560 193 Q560 131 526.5 84.5 Q493 38 435.5 12.5 Q378 -13 307 -13 Z M448 900 L358 774 L255 774 L165 900 L251 900 L307 837 L363 900 L448 900 Z " />
<glyph glyph-name="Scedilla" unicode="&#x15e;" horiz-adv-x="602" d="M560 193 Q560 135 530.5 90.5 Q501 46 449.5 19.5 Q398 -7 333 -12 L317 -42 Q353 -43 377 -65 Q401 -87 401 -123 Q401 -166 375 -191.5 Q349 -217 306 -217 Q269 -217 243 -196.5 Q217 -176 215 -146 L270 -127 Q270 -143 279.5 -152.5 Q289 -162 306 -162 Q322 -162 331.5 -152.5 Q341 -143 341 -127 Q341 -112 331 -103 Q321 -94 306 -94 Q291 -94 284 -101 L240 -76 L274 -12 Q184 -4 124.5 46 Q65 96 42 187 L136 214 Q154 144 195 110.5 Q236 77 307 77 Q375 77 417.5 107 Q460 137 460 193 Q460 235 429.5 263.5 Q399 292 309 309 Q189 330 127 378.5 Q65 427 65 513 Q65 573 96.5 619 Q128 665 183 690 Q238 715 307 715 Q403 715 463.5 665 Q524 615 547 524 L454 497 Q439 560 404 592.5 Q369 625 307 625 Q243 625 204 595.5 Q165 566 165 513 Q165 466 203 443 Q241 420 326 404 Q446 379 503 329.5 Q560 280 560 193 Z " />
<glyph glyph-name="Scircumflex" unicode="&#x15c;" horiz-adv-x="602" d="M307 -13 Q203 -13 135 37.5 Q67 88 42 187 L136 214 Q154 144 195 110.5 Q236 77 307 77 Q375 77 417.5 107 Q460 137 460 193 Q460 235 429.5 263.5 Q399 292 309 309 Q189 330 127 378.5 Q65 427 65 513 Q65 573 96.5 619 Q128 665 183 690 Q238 715 307 715 Q403 715 463.5 665 Q524 615 547 524 L454 497 Q439 560 404 592.5 Q369 625 307 625 Q243 625 204 595.5 Q165 566 165 513 Q165 466 203 443 Q241 420 326 404 Q446 379 503 329.5 Q560 280 560 193 Q560 131 526.5 84.5 Q493 38 435.5 12.5 Q378 -13 307 -13 Z M363 771 L307 834 L251 771 L165 771 L255 897 L358 897 L448 771 L363 771 Z " />
<glyph glyph-name="Scommaaccent" unicode="&#x218;" horiz-adv-x="602" d="M307 -13 Q203 -13 135 37.5 Q67 88 42 187 L136 214 Q154 144 195 110.5 Q236 77 307 77 Q375 77 417.5 107 Q460 137 460 193 Q460 235 429.5 263.5 Q399 292 309 309 Q189 330 127 378.5 Q65 427 65 513 Q65 573 96.5 619 Q128 665 183 690 Q238 715 307 715 Q403 715 463.5 665 Q524 615 547 524 L454 497 Q439 560 404 592.5 Q369 625 307 625 Q243 625 204 595.5 Q165 566 165 513 Q165 466 203 443 Q241 420 326 404 Q446 379 503 329.5 Q560 280 560 193 Q560 131 526.5 84.5 Q493 38 435.5 12.5 Q378 -13 307 -13 Z M268 -210 Q286 -189 292 -165 Q272 -161 260 -147.5 Q248 -134 248 -114 Q248 -88 265.5 -73.5 Q283 -59 304 -59 Q330 -59 346.5 -75 Q363 -91 363 -120 Q363 -151 347 -183 Q331 -215 304 -236 L268 -210 Z " />
<glyph glyph-name="T" unicode="T" horiz-adv-x="575" d="M237 608 L29 608 L29 700 L546 700 L546 608 L337 608 L337 0 L237 0 L237 608 Z " />
<glyph glyph-name="Tbar" unicode="&#x166;" horiz-adv-x="575" d="M337 608 L337 372 L449 372 L449 295 L337 295 L337 0 L237 0 L237 295 L127 295 L127 372 L237 372 L237 608 L29 608 L29 700 L546 700 L546 608 L337 608 Z " />
<glyph glyph-name="Tcaron" unicode="&#x164;" horiz-adv-x="575" d="M237 608 L29 608 L29 700 L546 700 L546 608 L337 608 L337 0 L237 0 L237 608 Z M429 900 L339 774 L236 774 L146 900 L232 900 L288 837 L344 900 L429 900 Z " />
<glyph glyph-name="uni0162" unicode="&#x162;" horiz-adv-x="575" d="M320 0 L298 -42 Q334 -43 358 -65 Q382 -87 382 -123 Q382 -166 356 -191.5 Q330 -217 287 -217 Q250 -217 224 -196.5 Q198 -176 196 -146 L251 -127 Q251 -143 260.5 -152.5 Q270 -162 287 -162 Q303 -162 312.5 -152.5 Q322 -143 322 -127 Q322 -112 312 -103 Q302 -94 287 -94 Q272 -94 265 -101 L221 -76 L262 0 L237 0 L237 608 L29 608 L29 700 L546 700 L546 608 L337 608 L337 0 L320 0 Z " />
<glyph glyph-name="uni021A" unicode="&#x21a;" horiz-adv-x="575" d="M237 608 L29 608 L29 700 L546 700 L546 608 L337 608 L337 0 L237 0 L237 608 Z M249 -210 Q267 -189 273 -165 Q253 -161 241 -147.5 Q229 -134 229 -114 Q229 -88 246.5 -73.5 Q264 -59 285 -59 Q311 -59 327.5 -75 Q344 -91 344 -120 Q344 -151 328 -183 Q312 -215 285 -236 L249 -210 Z " />
<glyph glyph-name="U" unicode="U" horiz-adv-x="685" d="M343 -14 Q224 -14 150.5 55.5 Q77 125 77 263 L77 700 L177 700 L177 268 Q177 170 220.5 124 Q264 78 343 78 Q421 78 464.5 124.5 Q508 171 508 268 L508 700 L608 700 L608 262 Q608 123 535 54.5 Q462 -14 343 -14 Z " />
<glyph glyph-name="Uacute" unicode="&#xda;" horiz-adv-x="685" d="M343 -14 Q224 -14 150.5 55.5 Q77 125 77 263 L77 700 L177 700 L177 268 Q177 170 220.5 124 Q264 78 343 78 Q421 78 464.5 124.5 Q508 171 508 268 L508 700 L608 700 L608 262 Q608 123 535 54.5 Q462 -14 343 -14 Z M368 897 L495 897 L388 771 L301 771 L368 897 Z " />
<glyph glyph-name="Ubreve" unicode="&#x16c;" horiz-adv-x="685" d="M343 -14 Q224 -14 150.5 55.5 Q77 125 77 263 L77 700 L177 700 L177 268 Q177 170 220.5 124 Q264 78 343 78 Q421 78 464.5 124.5 Q508 171 508 268 L508 700 L608 700 L608 262 Q608 123 535 54.5 Q462 -14 343 -14 Z M345 775 Q289 775 253 810.5 Q217 846 214 901 L286 901 Q288 875 304 859 Q320 843 346 843 Q372 843 388.5 859 Q405 875 407 901 L478 901 Q476 846 439 810.5 Q402 775 345 775 Z " />
<glyph glyph-name="Ucircumflex" unicode="&#xdb;" horiz-adv-x="685" d="M343 -14 Q224 -14 150.5 55.5 Q77 125 77 263 L77 700 L177 700 L177 268 Q177 170 220.5 124 Q264 78 343 78 Q421 78 464.5 124.5 Q508 171 508 268 L508 700 L608 700 L608 262 Q608 123 535 54.5 Q462 -14 343 -14 Z M402 771 L346 834 L290 771 L204 771 L294 897 L397 897 L487 771 L402 771 Z " />
<glyph glyph-name="Udieresis" unicode="&#xdc;" horiz-adv-x="685" d="M343 -14 Q224 -14 150.5 55.5 Q77 125 77 263 L77 700 L177 700 L177 268 Q177 170 220.5 124 Q264 78 343 78 Q421 78 464.5 124.5 Q508 171 508 268 L508 700 L608 700 L608 262 Q608 123 535 54.5 Q462 -14 343 -14 Z M259 770 Q233 770 213.5 789 Q194 808 194 834 Q194 860 213.5 879 Q233 898 259 898 Q285 898 304 879 Q323 860 323 834 Q323 808 304 789 Q285 770 259 770 Z M433 770 Q407 770 388 789 Q369 808 369 834 Q369 860 388 879 Q407 898 433 898 Q460 898 478.5 879 Q497 860 497 834 Q497 808 478.5 789 Q460 770 433 770 Z " />
<glyph glyph-name="Ugrave" unicode="&#xd9;" horiz-adv-x="685" d="M343 -14 Q224 -14 150.5 55.5 Q77 125 77 263 L77 700 L177 700 L177 268 Q177 170 220.5 124 Q264 78 343 78 Q421 78 464.5 124.5 Q508 171 508 268 L508 700 L608 700 L608 262 Q608 123 535 54.5 Q462 -14 343 -14 Z M197 897 L324 897 L391 771 L304 771 L197 897 Z " />
<glyph glyph-name="Uhungarumlaut" unicode="&#x170;" horiz-adv-x="685" d="M343 -14 Q224 -14 150.5 55.5 Q77 125 77 263 L77 700 L177 700 L177 268 Q177 170 220.5 124 Q264 78 343 78 Q421 78 464.5 124.5 Q508 171 508 268 L508 700 L608 700 L608 262 Q608 123 535 54.5 Q462 -14 343 -14 Z M231 774 L296 900 L411 900 L306 774 L231 774 Z M378 774 L443 900 L558 900 L453 774 L378 774 Z " />
<glyph glyph-name="Umacron" unicode="&#x16a;" horiz-adv-x="685" d="M343 -14 Q224 -14 150.5 55.5 Q77 125 77 263 L77 700 L177 700 L177 268 Q177 170 220.5 124 Q264 78 343 78 Q421 78 464.5 124.5 Q508 171 508 268 L508 700 L608 700 L608 262 Q608 123 535 54.5 Q462 -14 343 -14 Z M240 872 L452 872 L452 796 L240 796 L240 872 Z " />
<glyph glyph-name="Uogonek" unicode="&#x172;" horiz-adv-x="685" d="M417 -182 Q410 -183 397 -183 Q346 -183 316.5 -158.5 Q287 -134 287 -94 Q287 -48 324 -13 Q212 -7 144.5 62 Q77 131 77 263 L77 700 L177 700 L177 268 Q177 170 220.5 124 Q264 78 343 78 Q421 78 464.5 124.5 Q508 171 508 268 L508 700 L608 700 L608 262 Q608 94 500 27 Q478 12 457 5 Q436 -2 431 -4 Q362 -32 362 -75 Q362 -93 375 -104.5 Q388 -116 412 -116 L418 -116 L417 -182 Z " />
<glyph glyph-name="Uring" unicode="&#x16e;" horiz-adv-x="685" d="M343 -14 Q224 -14 150.5 55.5 Q77 125 77 263 L77 700 L177 700 L177 268 Q177 170 220.5 124 Q264 78 343 78 Q421 78 464.5 124.5 Q508 171 508 268 L508 700 L608 700 L608 262 Q608 123 535 54.5 Q462 -14 343 -14 Z M344 742 Q307 742 280 769 Q253 796 253 834 Q253 872 280 899 Q307 926 344 926 Q382 926 409 899 Q436 872 436 834 Q436 797 409 769.5 Q382 742 344 742 Z M344 800 Q358 800 368 810 Q378 820 378 834 Q378 848 368 858 Q358 868 344 868 Q330 868 320 858 Q310 848 310 834 Q310 820 320 810 Q330 800 344 800 Z " />
<glyph glyph-name="Utilde" unicode="&#x168;" horiz-adv-x="685" d="M343 -14 Q224 -14 150.5 55.5 Q77 125 77 263 L77 700 L177 700 L177 268 Q177 170 220.5 124 Q264 78 343 78 Q421 78 464.5 124.5 Q508 171 508 268 L508 700 L608 700 L608 262 Q608 123 535 54.5 Q462 -14 343 -14 Z M408 777 Q387 777 371.5 782.5 Q356 788 337 798 Q309 813 292 813 Q279 813 266 804 Q253 795 244 776 L189 813 Q204 852 229.5 870 Q255 888 285 888 Q305 888 320 883 Q335 878 354 868 Q371 860 381 856 Q391 852 403 852 Q430 852 450 892 L507 853 Q493 815 467 796 Q441 777 408 777 Z " />
<glyph glyph-name="V" unicode="V" horiz-adv-x="669" d="M647 700 L388 0 L281 0 L22 700 L128 700 L335 128 L542 700 L647 700 Z " />
<glyph glyph-name="W" unicode="W" horiz-adv-x="940" d="M918 700 L721 0 L620 0 L470 556 L320 0 L219 0 L22 700 L125 700 L273 151 L420 700 L522 700 L669 153 L816 700 L918 700 Z " />
<glyph glyph-name="Wacute" unicode="&#x1e82;" horiz-adv-x="940" d="M918 700 L721 0 L620 0 L470 556 L320 0 L219 0 L22 700 L125 700 L273 151 L420 700 L522 700 L669 153 L816 700 L918 700 Z M492 897 L619 897 L512 771 L425 771 L492 897 Z " />
<glyph glyph-name="Wcircumflex" unicode="&#x174;" horiz-adv-x="940" d="M918 700 L721 0 L620 0 L470 556 L320 0 L219 0 L22 700 L125 700 L273 151 L420 700 L522 700 L669 153 L816 700 L918 700 Z M526 771 L470 834 L414 771 L328 771 L418 897 L521 897 L611 771 L526 771 Z " />
<glyph glyph-name="Wdieresis" unicode="&#x1e84;" horiz-adv-x="940" d="M918 700 L721 0 L620 0 L470 556 L320 0 L219 0 L22 700 L125 700 L273 151 L420 700 L522 700 L669 153 L816 700 L918 700 Z M383 770 Q357 770 337.5 789 Q318 808 318 834 Q318 860 337.5 879 Q357 898 383 898 Q409 898 428 879 Q447 860 447 834 Q447 808 428 789 Q409 770 383 770 Z M557 770 Q531 770 512 789 Q493 808 493 834 Q493 860 512 879 Q531 898 557 898 Q584 898 602.5 879 Q621 860 621 834 Q621 808 602.5 789 Q584 770 557 770 Z " />
<glyph glyph-name="Wgrave" unicode="&#x1e80;" horiz-adv-x="940" d="M918 700 L721 0 L620 0 L470 556 L320 0 L219 0 L22 700 L125 700 L273 151 L420 700 L522 700 L669 153 L816 700 L918 700 Z M321 897 L448 897 L515 771 L428 771 L321 897 Z " />
<glyph glyph-name="X" unicode="X" horiz-adv-x="658" d="M518 0 L329 278 L141 0 L22 0 L264 356 L32 700 L150 700 L329 434 L509 700 L627 700 L396 357 L636 0 L518 0 Z " />
<glyph glyph-name="uni1E8A" unicode="&#x1e8a;" horiz-adv-x="658" d="M518 0 L329 278 L141 0 L22 0 L264 356 L32 700 L150 700 L329 434 L509 700 L627 700 L396 357 L636 0 L518 0 Z M333 772 Q306 772 287 790.5 Q268 809 268 836 Q268 862 287 881 Q306 900 333 900 Q359 900 377.5 881 Q396 862 396 836 Q396 809 377.5 790.5 Q359 772 333 772 Z " />
<glyph glyph-name="Y" unicode="Y" horiz-adv-x="623" d="M262 279 L22 700 L131 700 L311 378 L492 700 L601 700 L362 279 L362 0 L262 0 L262 279 Z " />
<glyph glyph-name="Yacute" unicode="&#xdd;" horiz-adv-x="623" d="M262 279 L22 700 L131 700 L311 378 L492 700 L601 700 L362 279 L362 0 L262 0 L262 279 Z M334 897 L461 897 L354 771 L267 771 L334 897 Z " />
<glyph glyph-name="Ycircumflex" unicode="&#x176;" horiz-adv-x="623" d="M262 279 L22 700 L131 700 L311 378 L492 700 L601 700 L362 279 L362 0 L262 0 L262 279 Z M368 771 L312 834 L256 771 L170 771 L260 897 L363 897 L453 771 L368 771 Z " />
<glyph glyph-name="Ydieresis" unicode="&#x178;" horiz-adv-x="623" d="M262 279 L22 700 L131 700 L311 378 L492 700 L601 700 L362 279 L362 0 L262 0 L262 279 Z M225 770 Q199 770 179.5 789 Q160 808 160 834 Q160 860 179.5 879 Q199 898 225 898 Q251 898 270 879 Q289 860 289 834 Q289 808 270 789 Q251 770 225 770 Z M399 770 Q373 770 354 789 Q335 808 335 834 Q335 860 354 879 Q373 898 399 898 Q426 898 444.5 879 Q463 860 463 834 Q463 808 444.5 789 Q426 770 399 770 Z " />
<glyph glyph-name="Ygrave" unicode="&#x1ef2;" horiz-adv-x="623" d="M262 279 L22 700 L131 700 L311 378 L492 700 L601 700 L362 279 L362 0 L262 0 L262 279 Z M163 897 L290 897 L357 771 L270 771 L163 897 Z " />
<glyph glyph-name="Z" unicode="Z" horiz-adv-x="615" d="M43 88 L448 610 L71 610 L71 700 L571 700 L571 612 L167 90 L567 90 L567 0 L43 0 L43 88 Z " />
<glyph glyph-name="Zacute" unicode="&#x179;" horiz-adv-x="615" d="M43 88 L448 610 L71 610 L71 700 L571 700 L571 612 L167 90 L567 90 L567 0 L43 0 L43 88 Z M339 897 L466 897 L359 771 L272 771 L339 897 Z " />
<glyph glyph-name="Zcaron" unicode="&#x17d;" horiz-adv-x="615" d="M43 88 L448 610 L71 610 L71 700 L571 700 L571 612 L167 90 L567 90 L567 0 L43 0 L43 88 Z M458 900 L368 774 L265 774 L175 900 L261 900 L317 837 L373 900 L458 900 Z " />
<glyph glyph-name="Zdotaccent" unicode="&#x17b;" horiz-adv-x="615" d="M43 88 L448 610 L71 610 L71 700 L571 700 L571 612 L167 90 L567 90 L567 0 L43 0 L43 88 Z M318 772 Q291 772 272 790.5 Q253 809 253 836 Q253 862 272 881 Q291 900 318 900 Q344 900 362.5 881 Q381 862 381 836 Q381 809 362.5 790.5 Q344 772 318 772 Z " />
<glyph glyph-name="uni01B5" unicode="&#x1b5;" horiz-adv-x="615" d="M571 612 L396 386 L520 386 L520 309 L336 309 L167 90 L567 90 L567 0 L43 0 L43 88 L214 309 L101 309 L101 386 L274 386 L448 610 L71 610 L71 700 L571 700 L571 612 Z " />
<glyph glyph-name="a" unicode="a" horiz-adv-x="507" d="M213 -14 Q162 -14 123 5.5 Q84 25 63 59.5 Q42 94 42 137 Q42 201 86.5 242.5 Q131 284 235 299 L354 316 L354 327 Q354 428 248 428 Q197 428 170.5 404.5 Q144 381 137 338 L50 359 Q86 508 250 508 Q341 508 396.5 462 Q452 416 452 328 L452 0 L369 0 L359 48 Q314 -14 213 -14 Z M237 67 Q286 67 320 95 Q354 123 354 176 L354 241 L243 224 Q190 216 163.5 197.5 Q137 179 137 142 Q137 108 164 87.5 Q191 67 237 67 Z " />
<glyph glyph-name="aacute" unicode="&#xe1;" horiz-adv-x="507" d="M213 -14 Q162 -14 123 5.5 Q84 25 63 59.5 Q42 94 42 137 Q42 201 86.5 242.5 Q131 284 235 299 L354 316 L354 327 Q354 428 248 428 Q197 428 170.5 404.5 Q144 381 137 338 L50 359 Q86 508 250 508 Q341 508 396.5 462 Q452 416 452 328 L452 0 L369 0 L359 48 Q314 -14 213 -14 Z M237 67 Q286 67 320 95 Q354 123 354 176 L354 241 L243 224 Q190 216 163.5 197.5 Q137 179 137 142 Q137 108 164 87.5 Q191 67 237 67 Z M271 694 L398 694 L291 568 L204 568 L271 694 Z " />
<glyph glyph-name="abreve" unicode="&#x103;" horiz-adv-x="507" d="M213 -14 Q162 -14 123 5.5 Q84 25 63 59.5 Q42 94 42 137 Q42 201 86.5 242.5 Q131 284 235 299 L354 316 L354 327 Q354 428 248 428 Q197 428 170.5 404.5 Q144 381 137 338 L50 359 Q86 508 250 508 Q341 508 396.5 462 Q452 416 452 328 L452 0 L369 0 L359 48 Q314 -14 213 -14 Z M237 67 Q286 67 320 95 Q354 123 354 176 L354 241 L243 224 Q190 216 163.5 197.5 Q137 179 137 142 Q137 108 164 87.5 Q191 67 237 67 Z M250 569 Q194 569 158 604.5 Q122 640 119 695 L191 695 Q193 669 209 653 Q225 637 251 637 Q277 637 293.5 653 Q310 669 312 695 L383 695 Q381 640 344 604.5 Q307 569 250 569 Z " />
<glyph glyph-name="acircumflex" unicode="&#xe2;" horiz-adv-x="507" d="M213 -14 Q162 -14 123 5.5 Q84 25 63 59.5 Q42 94 42 137 Q42 201 86.5 242.5 Q131 284 235 299 L354 316 L354 327 Q354 428 248 428 Q197 428 170.5 404.5 Q144 381 137 338 L50 359 Q86 508 250 508 Q341 508 396.5 462 Q452 416 452 328 L452 0 L369 0 L359 48 Q314 -14 213 -14 Z M237 67 Q286 67 320 95 Q354 123 354 176 L354 241 L243 224 Q190 216 163.5 197.5 Q137 179 137 142 Q137 108 164 87.5 Q191 67 237 67 Z M307 568 L251 631 L195 568 L109 568 L199 694 L302 694 L392 568 L307 568 Z " />
<glyph glyph-name="adieresis" unicode="&#xe4;" horiz-adv-x="507" d="M213 -14 Q162 -14 123 5.5 Q84 25 63 59.5 Q42 94 42 137 Q42 201 86.5 242.5 Q131 284 235 299 L354 316 L354 327 Q354 428 248 428 Q197 428 170.5 404.5 Q144 381 137 338 L50 359 Q86 508 250 508 Q341 508 396.5 462 Q452 416 452 328 L452 0 L369 0 L359 48 Q314 -14 213 -14 Z M237 67 Q286 67 320 95 Q354 123 354 176 L354 241 L243 224 Q190 216 163.5 197.5 Q137 179 137 142 Q137 108 164 87.5 Q191 67 237 67 Z M167 567 Q141 567 122 586 Q103 605 103 631 Q103 657 122 676 Q141 695 167 695 Q193 695 212 676 Q231 657 231 631 Q231 605 212 586 Q193 567 167 567 Z M335 567 Q309 567 290 586 Q271 605 271 631 Q271 657 290 676 Q309 695 335 695 Q361 695 380 676 Q399 657 399 631 Q399 605 380 586 Q361 567 335 567 Z " />
<glyph glyph-name="agrave" unicode="&#xe0;" horiz-adv-x="507" d="M213 -14 Q162 -14 123 5.5 Q84 25 63 59.5 Q42 94 42 137 Q42 201 86.5 242.5 Q131 284 235 299 L354 316 L354 327 Q354 428 248 428 Q197 428 170.5 404.5 Q144 381 137 338 L50 359 Q86 508 250 508 Q341 508 396.5 462 Q452 416 452 328 L452 0 L369 0 L359 48 Q314 -14 213 -14 Z M237 67 Q286 67 320 95 Q354 123 354 176 L354 241 L243 224 Q190 216 163.5 197.5 Q137 179 137 142 Q137 108 164 87.5 Q191 67 237 67 Z M104 694 L231 694 L298 568 L211 568 L104 694 Z " />
<glyph glyph-name="amacron" unicode="&#x101;" horiz-adv-x="507" d="M213 -14 Q162 -14 123 5.5 Q84 25 63 59.5 Q42 94 42 137 Q42 201 86.5 242.5 Q131 284 235 299 L354 316 L354 327 Q354 428 248 428 Q197 428 170.5 404.5 Q144 381 137 338 L50 359 Q86 508 250 508 Q341 508 396.5 462 Q452 416 452 328 L452 0 L369 0 L359 48 Q314 -14 213 -14 Z M237 67 Q286 67 320 95 Q354 123 354 176 L354 241 L243 224 Q190 216 163.5 197.5 Q137 179 137 142 Q137 108 164 87.5 Q191 67 237 67 Z M145 669 L357 669 L357 593 L145 593 L145 669 Z " />
<glyph glyph-name="aogonek" unicode="&#x105;" horiz-adv-x="507" d="M250 508 Q341 508 396.5 462 Q452 416 452 328 L452 0 L418 0 Q356 -32 356 -75 Q356 -93 369 -104.5 Q382 -116 406 -116 L412 -116 L411 -182 Q404 -183 391 -183 Q340 -183 310.5 -158.5 Q281 -134 281 -94 Q281 -55 302.5 -26 Q324 3 357 22 L365 19 L359 48 Q314 -14 213 -14 Q162 -14 123 5.5 Q84 25 63 59.5 Q42 94 42 137 Q42 201 86.5 242.5 Q131 284 235 299 L354 316 L354 327 Q354 428 248 428 Q197 428 170.5 404.5 Q144 381 137 338 L50 359 Q86 508 250 508 Z M354 241 L243 224 Q190 216 163.5 197.5 Q137 179 137 142 Q137 108 164 87.5 Q191 67 237 67 Q286 67 320 95 Q354 123 354 176 L354 241 Z " />
<glyph glyph-name="aring" unicode="&#xe5;" horiz-adv-x="507" d="M213 -14 Q162 -14 123 5.5 Q84 25 63 59.5 Q42 94 42 137 Q42 201 86.5 242.5 Q131 284 235 299 L354 316 L354 327 Q354 428 248 428 Q197 428 170.5 404.5 Q144 381 137 338 L50 359 Q86 508 250 508 Q341 508 396.5 462 Q452 416 452 328 L452 0 L369 0 L359 48 Q314 -14 213 -14 Z M237 67 Q286 67 320 95 Q354 123 354 176 L354 241 L243 224 Q190 216 163.5 197.5 Q137 179 137 142 Q137 108 164 87.5 Q191 67 237 67 Z M251 543 Q214 543 187 570 Q160 597 160 635 Q160 673 187 700 Q214 727 251 727 Q289 727 316 700 Q343 673 343 635 Q343 598 316 570.5 Q289 543 251 543 Z M251 601 Q265 601 275 611 Q285 621 285 635 Q285 649 275 659 Q265 669 251 669 Q237 669 227 659 Q217 649 217 635 Q217 621 227 611 Q237 601 251 601 Z " />
<glyph glyph-name="atilde" unicode="&#xe3;" horiz-adv-x="507" d="M213 -14 Q162 -14 123 5.5 Q84 25 63 59.5 Q42 94 42 137 Q42 201 86.5 242.5 Q131 284 235 299 L354 316 L354 327 Q354 428 248 428 Q197 428 170.5 404.5 Q144 381 137 338 L50 359 Q86 508 250 508 Q341 508 396.5 462 Q452 416 452 328 L452 0 L369 0 L359 48 Q314 -14 213 -14 Z M237 67 Q286 67 320 95 Q354 123 354 176 L354 241 L243 224 Q190 216 163.5 197.5 Q137 179 137 142 Q137 108 164 87.5 Q191 67 237 67 Z M310 575 Q290 575 275 580 Q260 585 239 595 Q211 610 194 610 Q181 610 168.5 601 Q156 592 146 573 L91 610 Q119 685 187 685 Q207 685 221.5 680.5 Q236 676 256 666 Q273 658 283 654 Q293 650 306 650 Q333 650 353 689 L410 651 Q396 613 369.5 594 Q343 575 310 575 Z " />
<glyph glyph-name="ae" unicode="&#xe6;" horiz-adv-x="884" d="M841 217 L456 217 Q459 177 478.5 143 Q498 109 532 88.5 Q566 68 609 68 Q661 68 696.5 93.5 Q732 119 744 154 L828 127 Q806 65 750 25.5 Q694 -14 609 -14 Q546 -14 494.5 12.5 Q443 39 409 87 L409 86 Q397 50 354.5 18 Q312 -14 233 -14 Q176 -14 133.5 5.5 Q91 25 68 59.5 Q45 94 45 137 Q45 200 89.5 241 Q134 282 238 296 L356 313 L356 326 Q356 429 251 429 Q155 429 140 338 L53 359 Q89 509 253 509 Q312 509 357.5 489 Q403 469 428 429 Q462 466 508.5 487 Q555 508 608 508 Q678 508 730.5 476.5 Q783 445 812 388 Q841 331 841 256 L841 217 Z M753 294 Q749 347 710.5 386.5 Q672 426 609 426 Q546 426 506 388 Q466 350 457 294 L753 294 Z M356 243 L246 227 Q193 219 166.5 199.5 Q140 180 140 143 Q140 108 166.5 87.5 Q193 67 240 67 Q289 67 322.5 95 Q356 123 356 176 L356 243 Z " />
<glyph glyph-name="aeacute" unicode="&#x1fd;" horiz-adv-x="884" d="M841 217 L456 217 Q459 177 478.5 143 Q498 109 532 88.5 Q566 68 609 68 Q661 68 696.5 93.5 Q732 119 744 154 L828 127 Q806 65 750 25.5 Q694 -14 609 -14 Q546 -14 494.5 12.5 Q443 39 409 87 L409 86 Q397 50 354.5 18 Q312 -14 233 -14 Q176 -14 133.5 5.5 Q91 25 68 59.5 Q45 94 45 137 Q45 200 89.5 241 Q134 282 238 296 L356 313 L356 326 Q356 429 251 429 Q155 429 140 338 L53 359 Q89 509 253 509 Q312 509 357.5 489 Q403 469 428 429 Q462 466 508.5 487 Q555 508 608 508 Q678 508 730.5 476.5 Q783 445 812 388 Q841 331 841 256 L841 217 Z M753 294 Q749 347 710.5 386.5 Q672 426 609 426 Q546 426 506 388 Q466 350 457 294 L753 294 Z M356 243 L246 227 Q193 219 166.5 199.5 Q140 180 140 143 Q140 108 166.5 87.5 Q193 67 240 67 Q289 67 322.5 95 Q356 123 356 176 L356 243 Z M461 695 L588 695 L481 569 L394 569 L461 695 Z " />
<glyph glyph-name="b" unicode="b" horiz-adv-x="606" d="M326 -13 Q268 -13 226 10 Q184 33 159 67 L146 0 L65 0 L65 700 L163 700 L163 431 Q188 465 230 487 Q272 509 327 509 Q399 509 453 473 Q507 437 535.5 377.5 Q564 318 564 248 Q564 180 534 120 Q504 60 449.5 23.5 Q395 -13 326 -13 Z M314 75 Q357 75 392 97.5 Q427 120 446.5 159.5 Q466 199 466 248 Q466 298 446.5 337.5 Q427 377 392 399 Q357 421 314 421 Q247 421 204.5 372.5 Q162 324 162 248 Q162 173 204.5 124 Q247 75 314 75 Z " />
<glyph glyph-name="c" unicode="c" horiz-adv-x="558" d="M295 -14 Q219 -14 161.5 21.5 Q104 57 73 117 Q42 177 42 247 Q42 318 73.5 378 Q105 438 162.5 473.5 Q220 509 295 509 Q377 509 434 467 Q491 425 514 355 L424 325 Q410 369 376 394 Q342 419 295 419 Q250 419 215 397 Q180 375 160 335.5 Q140 296 140 247 Q140 198 160 159 Q180 120 215 98 Q250 76 295 76 Q341 76 375 101 Q409 126 424 169 L513 139 Q487 70 430.5 28 Q374 -14 295 -14 Z " />
<glyph glyph-name="cacute" unicode="&#x107;" horiz-adv-x="558" d="M295 -14 Q219 -14 161.5 21.5 Q104 57 73 117 Q42 177 42 247 Q42 318 73.5 378 Q105 438 162.5 473.5 Q220 509 295 509 Q377 509 434 467 Q491 425 514 355 L424 325 Q410 369 376 394 Q342 419 295 419 Q250 419 215 397 Q180 375 160 335.5 Q140 296 140 247 Q140 198 160 159 Q180 120 215 98 Q250 76 295 76 Q341 76 375 101 Q409 126 424 169 L513 139 Q487 70 430.5 28 Q374 -14 295 -14 Z M315 695 L442 695 L335 569 L248 569 L315 695 Z " />
<glyph glyph-name="ccaron" unicode="&#x10d;" horiz-adv-x="558" d="M295 -14 Q219 -14 161.5 21.5 Q104 57 73 117 Q42 177 42 247 Q42 318 73.5 378 Q105 438 162.5 473.5 Q220 509 295 509 Q377 509 434 467 Q491 425 514 355 L424 325 Q410 369 376 394 Q342 419 295 419 Q250 419 215 397 Q180 375 160 335.5 Q140 296 140 247 Q140 198 160 159 Q180 120 215 98 Q250 76 295 76 Q341 76 375 101 Q409 126 424 169 L513 139 Q487 70 430.5 28 Q374 -14 295 -14 Z M436 695 L346 569 L243 569 L153 695 L239 695 L295 632 L351 695 L436 695 Z " />
<glyph glyph-name="ccedilla" unicode="&#xe7;" horiz-adv-x="558" d="M295 76 Q341 76 375 101 Q409 126 424 169 L513 139 Q490 76 440 35 Q390 -6 321 -13 L306 -42 Q342 -43 366.5 -65 Q391 -87 391 -123 Q391 -166 365 -191.5 Q339 -217 296 -217 Q258 -217 232.5 -196.5 Q207 -176 204 -146 L259 -127 Q259 -143 269 -152.5 Q279 -162 296 -162 Q311 -162 321 -152.5 Q331 -143 331 -127 Q331 -112 321 -103 Q311 -94 296 -94 Q280 -94 273 -101 L230 -76 L264 -12 Q197 -5 146.5 32 Q96 69 69 125.5 Q42 182 42 247 Q42 318 73.5 378 Q105 438 162.5 473.5 Q220 509 295 509 Q377 509 434 467 Q491 425 514 355 L424 325 Q410 369 376 394 Q342 419 295 419 Q250 419 215 397 Q180 375 160 335.5 Q140 296 140 247 Q140 198 160 159 Q180 120 215 98 Q250 76 295 76 Z " />
<glyph glyph-name="ccircumflex" unicode="&#x109;" horiz-adv-x="558" d="M295 -14 Q219 -14 161.5 21.5 Q104 57 73 117 Q42 177 42 247 Q42 318 73.5 378 Q105 438 162.5 473.5 Q220 509 295 509 Q377 509 434 467 Q491 425 514 355 L424 325 Q410 369 376 394 Q342 419 295 419 Q250 419 215 397 Q180 375 160 335.5 Q140 296 140 247 Q140 198 160 159 Q180 120 215 98 Q250 76 295 76 Q341 76 375 101 Q409 126 424 169 L513 139 Q487 70 430.5 28 Q374 -14 295 -14 Z M351 569 L295 632 L239 569 L153 569 L243 695 L346 695 L436 569 L351 569 Z " />
<glyph glyph-name="cdotaccent" unicode="&#x10b;" horiz-adv-x="558" d="M295 -14 Q219 -14 161.5 21.5 Q104 57 73 117 Q42 177 42 247 Q42 318 73.5 378 Q105 438 162.5 473.5 Q220 509 295 509 Q377 509 434 467 Q491 425 514 355 L424 325 Q410 369 376 394 Q342 419 295 419 Q250 419 215 397 Q180 375 160 335.5 Q140 296 140 247 Q140 198 160 159 Q180 120 215 98 Q250 76 295 76 Q341 76 375 101 Q409 126 424 169 L513 139 Q487 70 430.5 28 Q374 -14 295 -14 Z M296 568 Q269 568 250 586.5 Q231 605 231 632 Q231 658 250 677 Q269 696 296 696 Q322 696 340.5 677 Q359 658 359 632 Q359 605 340.5 586.5 Q322 568 296 568 Z " />
<glyph glyph-name="d" unicode="d" horiz-adv-x="606" d="M280 -13 Q211 -13 156.5 23.5 Q102 60 72 120 Q42 180 42 248 Q42 318 70.5 377.5 Q99 437 153 473 Q207 509 279 509 Q334 509 376 487 Q418 465 443 431 L443 700 L541 700 L541 0 L460 0 L447 67 Q422 33 380 10 Q338 -13 280 -13 Z M292 75 Q359 75 401 123.5 Q443 172 443 248 Q443 324 401 372.5 Q359 421 292 421 Q248 421 213.5 399 Q179 377 159.5 337.5 Q140 298 140 248 Q140 199 159.5 159.5 Q179 120 213.5 97.5 Q248 75 292 75 Z " />
<glyph glyph-name="eth" unicode="&#xf0;" horiz-adv-x="611" d="M297 -14 Q219 -14 161 22 Q103 58 72.5 117 Q42 176 42 244 Q42 310 74.5 369 Q107 428 165 463.5 Q223 499 297 499 Q379 499 438 442 Q425 485 398.5 525.5 Q372 566 339 599 L209 551 L185 613 L284 649 Q246 681 204 706 L258 764 Q265 759 299 736 Q333 713 369 680 L475 719 L498 657 L420 628 Q479 562 516.5 475 Q554 388 554 286 Q554 195 523 127.5 Q492 60 434 23 Q376 -14 297 -14 Z M297 74 Q343 74 379 96 Q415 118 435 157 Q455 196 455 244 Q455 292 435 330.5 Q415 369 379 391 Q343 413 297 413 Q252 413 216 391 Q180 369 160 330.5 Q140 292 140 244 Q140 196 160 157 Q180 118 216 96 Q252 74 297 74 Z " />
<glyph glyph-name="dcaron" unicode="&#x10f;" horiz-adv-x="606" d="M280 -13 Q211 -13 156.5 23.5 Q102 60 72 120 Q42 180 42 248 Q42 318 70.5 377.5 Q99 437 153 473 Q207 509 279 509 Q334 509 376 487 Q418 465 443 431 L443 700 L541 700 L541 0 L460 0 L447 67 Q422 33 380 10 Q338 -13 280 -13 Z M619 700 L721 700 L648 574 L582 574 L619 700 Z M292 75 Q359 75 401 123.5 Q443 172 443 248 Q443 324 401 372.5 Q359 421 292 421 Q248 421 213.5 399 Q179 377 159.5 337.5 Q140 298 140 248 Q140 199 159.5 159.5 Q179 120 213.5 97.5 Q248 75 292 75 Z " />
<glyph glyph-name="dslash" unicode="&#x111;" horiz-adv-x="607" d="M589 556 L541 556 L541 0 L460 0 L447 67 Q422 33 380 10 Q338 -13 280 -13 Q211 -13 156.5 23.5 Q102 60 72 120 Q42 180 42 248 Q42 318 70.5 377.5 Q99 437 153 473 Q207 509 279 509 Q334 509 376 487 Q418 465 443 431 L443 556 L301 556 L301 626 L443 626 L443 700 L541 700 L541 626 L589 626 L589 556 Z M292 75 Q359 75 401 123.5 Q443 172 443 248 Q443 324 401 372.5 Q359 421 292 421 Q248 421 213.5 399 Q179 377 159.5 337.5 Q140 298 140 248 Q140 199 159.5 159.5 Q179 120 213.5 97.5 Q248 75 292 75 Z " />
<glyph glyph-name="e" unicode="e" horiz-adv-x="564" d="M137 217 Q140 177 159.5 143 Q179 109 213 88.5 Q247 68 290 68 Q342 68 377.5 93.5 Q413 119 425 154 L509 127 Q487 65 431 25.5 Q375 -14 290 -14 Q218 -14 161.5 20.5 Q105 55 73.5 115 Q42 175 42 248 Q42 320 74.5 379.5 Q107 439 163.5 473.5 Q220 508 289 508 Q359 508 411.5 476.5 Q464 445 493 388 Q522 331 522 256 L522 217 L137 217 Z M434 294 Q430 347 391.5 386.5 Q353 426 290 426 Q227 426 187 388 Q147 350 138 294 L434 294 Z " />
<glyph glyph-name="eacute" unicode="&#xe9;" horiz-adv-x="564" d="M137 217 Q140 177 159.5 143 Q179 109 213 88.5 Q247 68 290 68 Q342 68 377.5 93.5 Q413 119 425 154 L509 127 Q487 65 431 25.5 Q375 -14 290 -14 Q218 -14 161.5 20.5 Q105 55 73.5 115 Q42 175 42 248 Q42 320 74.5 379.5 Q107 439 163.5 473.5 Q220 508 289 508 Q359 508 411.5 476.5 Q464 445 493 388 Q522 331 522 256 L522 217 L137 217 Z M434 294 Q430 347 391.5 386.5 Q353 426 290 426 Q227 426 187 388 Q147 350 138 294 L434 294 Z M310 694 L437 694 L330 568 L243 568 L310 694 Z " />
<glyph glyph-name="ebreve" unicode="&#x115;" horiz-adv-x="564" d="M137 217 Q140 177 159.5 143 Q179 109 213 88.5 Q247 68 290 68 Q342 68 377.5 93.5 Q413 119 425 154 L509 127 Q487 65 431 25.5 Q375 -14 290 -14 Q218 -14 161.5 20.5 Q105 55 73.5 115 Q42 175 42 248 Q42 320 74.5 379.5 Q107 439 163.5 473.5 Q220 508 289 508 Q359 508 411.5 476.5 Q464 445 493 388 Q522 331 522 256 L522 217 L137 217 Z M434 294 Q430 347 391.5 386.5 Q353 426 290 426 Q227 426 187 388 Q147 350 138 294 L434 294 Z M289 569 Q233 569 197 604.5 Q161 640 158 695 L230 695 Q232 669 248 653 Q264 637 290 637 Q316 637 332.5 653 Q349 669 351 695 L422 695 Q420 640 383 604.5 Q346 569 289 569 Z " />
<glyph glyph-name="ecaron" unicode="&#x11b;" horiz-adv-x="564" d="M137 217 Q140 177 159.5 143 Q179 109 213 88.5 Q247 68 290 68 Q342 68 377.5 93.5 Q413 119 425 154 L509 127 Q487 65 431 25.5 Q375 -14 290 -14 Q218 -14 161.5 20.5 Q105 55 73.5 115 Q42 175 42 248 Q42 320 74.5 379.5 Q107 439 163.5 473.5 Q220 508 289 508 Q359 508 411.5 476.5 Q464 445 493 388 Q522 331 522 256 L522 217 L137 217 Z M434 294 Q430 347 391.5 386.5 Q353 426 290 426 Q227 426 187 388 Q147 350 138 294 L434 294 Z M431 694 L341 568 L238 568 L148 694 L234 694 L290 631 L346 694 L431 694 Z " />
<glyph glyph-name="ecircumflex" unicode="&#xea;" horiz-adv-x="564" d="M137 217 Q140 177 159.5 143 Q179 109 213 88.5 Q247 68 290 68 Q342 68 377.5 93.5 Q413 119 425 154 L509 127 Q487 65 431 25.5 Q375 -14 290 -14 Q218 -14 161.5 20.5 Q105 55 73.5 115 Q42 175 42 248 Q42 320 74.5 379.5 Q107 439 163.5 473.5 Q220 508 289 508 Q359 508 411.5 476.5 Q464 445 493 388 Q522 331 522 256 L522 217 L137 217 Z M434 294 Q430 347 391.5 386.5 Q353 426 290 426 Q227 426 187 388 Q147 350 138 294 L434 294 Z M346 568 L290 631 L234 568 L148 568 L238 694 L341 694 L431 568 L346 568 Z " />
<glyph glyph-name="edieresis" unicode="&#xeb;" horiz-adv-x="564" d="M137 217 Q140 177 159.5 143 Q179 109 213 88.5 Q247 68 290 68 Q342 68 377.5 93.5 Q413 119 425 154 L509 127 Q487 65 431 25.5 Q375 -14 290 -14 Q218 -14 161.5 20.5 Q105 55 73.5 115 Q42 175 42 248 Q42 320 74.5 379.5 Q107 439 163.5 473.5 Q220 508 289 508 Q359 508 411.5 476.5 Q464 445 493 388 Q522 331 522 256 L522 217 L137 217 Z M434 294 Q430 347 391.5 386.5 Q353 426 290 426 Q227 426 187 388 Q147 350 138 294 L434 294 Z M206 567 Q180 567 161 586 Q142 605 142 631 Q142 657 161 676 Q180 695 206 695 Q232 695 251 676 Q270 657 270 631 Q270 605 251 586 Q232 567 206 567 Z M374 567 Q348 567 329 586 Q310 605 310 631 Q310 657 329 676 Q348 695 374 695 Q400 695 419 676 Q438 657 438 631 Q438 605 419 586 Q400 567 374 567 Z " />
<glyph glyph-name="edotaccent" unicode="&#x117;" horiz-adv-x="564" d="M137 217 Q140 177 159.5 143 Q179 109 213 88.5 Q247 68 290 68 Q342 68 377.5 93.5 Q413 119 425 154 L509 127 Q487 65 431 25.5 Q375 -14 290 -14 Q218 -14 161.5 20.5 Q105 55 73.5 115 Q42 175 42 248 Q42 320 74.5 379.5 Q107 439 163.5 473.5 Q220 508 289 508 Q359 508 411.5 476.5 Q464 445 493 388 Q522 331 522 256 L522 217 L137 217 Z M434 294 Q430 347 391.5 386.5 Q353 426 290 426 Q227 426 187 388 Q147 350 138 294 L434 294 Z M291 567 Q264 567 245 585.5 Q226 604 226 631 Q226 657 245 676 Q264 695 291 695 Q317 695 335.5 676 Q354 657 354 631 Q354 604 335.5 585.5 Q317 567 291 567 Z " />
<glyph glyph-name="egrave" unicode="&#xe8;" horiz-adv-x="564" d="M137 217 Q140 177 159.5 143 Q179 109 213 88.5 Q247 68 290 68 Q342 68 377.5 93.5 Q413 119 425 154 L509 127 Q487 65 431 25.5 Q375 -14 290 -14 Q218 -14 161.5 20.5 Q105 55 73.5 115 Q42 175 42 248 Q42 320 74.5 379.5 Q107 439 163.5 473.5 Q220 508 289 508 Q359 508 411.5 476.5 Q464 445 493 388 Q522 331 522 256 L522 217 L137 217 Z M434 294 Q430 347 391.5 386.5 Q353 426 290 426 Q227 426 187 388 Q147 350 138 294 L434 294 Z M143 694 L270 694 L337 568 L250 568 L143 694 Z " />
<glyph glyph-name="emacron" unicode="&#x113;" horiz-adv-x="564" d="M137 217 Q140 177 159.5 143 Q179 109 213 88.5 Q247 68 290 68 Q342 68 377.5 93.5 Q413 119 425 154 L509 127 Q487 65 431 25.5 Q375 -14 290 -14 Q218 -14 161.5 20.5 Q105 55 73.5 115 Q42 175 42 248 Q42 320 74.5 379.5 Q107 439 163.5 473.5 Q220 508 289 508 Q359 508 411.5 476.5 Q464 445 493 388 Q522 331 522 256 L522 217 L137 217 Z M434 294 Q430 347 391.5 386.5 Q353 426 290 426 Q227 426 187 388 Q147 350 138 294 L434 294 Z M184 669 L396 669 L396 593 L184 593 L184 669 Z " />
<glyph glyph-name="eogonek" unicode="&#x119;" horiz-adv-x="565" d="M242 -94 Q242 -53 278 -13 L273 -13 Q205 -10 152.5 25.5 Q100 61 71 119 Q42 177 42 247 Q42 319 74.5 379 Q107 439 163 474 Q219 509 288 509 Q358 509 411.5 477.5 Q465 446 494 389 Q523 332 523 257 L523 221 L136 221 Q140 155 182.5 111.5 Q225 68 291 68 Q342 68 377.5 93 Q413 118 425 153 L509 128 Q493 85 465 55.5 Q437 26 390 4 Q350 -14 334 -33.5 Q318 -53 318 -75 Q318 -93 330.5 -104.5 Q343 -116 367 -116 L373 -116 L373 -182 Q366 -183 353 -183 Q302 -183 272 -158.5 Q242 -134 242 -94 Z M434 291 Q432 327 414 358.5 Q396 390 364.5 409.5 Q333 429 290 429 Q226 429 186 390 Q146 351 137 291 L434 291 Z " />
<glyph glyph-name="f" unicode="f" horiz-adv-x="362" d="M107 407 L20 407 L20 495 L107 495 L107 577 Q107 640 144 677.5 Q181 715 239 715 Q287 715 314.5 701.5 Q342 688 354 674 L306 607 Q301 613 288.5 619.5 Q276 626 258 626 Q205 626 205 566 L205 495 L340 495 L340 407 L205 407 L205 0 L107 0 L107 407 Z " />
<glyph glyph-name="g" unicode="g" horiz-adv-x="601" d="M288 -218 Q196 -218 140.5 -175 Q85 -132 64 -59 L156 -37 Q181 -134 288 -134 Q361 -134 399.5 -97 Q438 -60 438 7 L438 81 Q417 47 375 23.5 Q333 0 277 0 Q205 0 152 34.5 Q99 69 70.5 127 Q42 185 42 253 Q42 321 71 379.5 Q100 438 153.5 473.5 Q207 509 276 509 Q334 509 374.5 486.5 Q415 464 438 430 L454 495 L536 495 L536 9 Q536 -55 508.5 -106.5 Q481 -158 425.5 -188 Q370 -218 288 -218 Z M290 88 Q355 88 396.5 133.5 Q438 179 438 253 Q438 328 396.5 374.5 Q355 421 289 421 Q223 421 181.5 374.5 Q140 328 140 253 Q140 179 181.5 133.5 Q223 88 290 88 Z " />
<glyph glyph-name="gbreve" unicode="&#x11f;" horiz-adv-x="601" d="M288 -218 Q196 -218 140.5 -175 Q85 -132 64 -59 L156 -37 Q181 -134 288 -134 Q361 -134 399.5 -97 Q438 -60 438 7 L438 81 Q417 47 375 23.5 Q333 0 277 0 Q205 0 152 34.5 Q99 69 70.5 127 Q42 185 42 253 Q42 321 71 379.5 Q100 438 153.5 473.5 Q207 509 276 509 Q334 509 374.5 486.5 Q415 464 438 430 L454 495 L536 495 L536 9 Q536 -55 508.5 -106.5 Q481 -158 425.5 -188 Q370 -218 288 -218 Z M290 88 Q355 88 396.5 133.5 Q438 179 438 253 Q438 328 396.5 374.5 Q355 421 289 421 Q223 421 181.5 374.5 Q140 328 140 253 Q140 179 181.5 133.5 Q223 88 290 88 Z M290 570 Q234 570 198 605.5 Q162 641 159 696 L231 696 Q233 670 249 654 Q265 638 291 638 Q317 638 333.5 654 Q350 670 352 696 L423 696 Q421 641 384 605.5 Q347 570 290 570 Z " />
<glyph glyph-name="gcircumflex" unicode="&#x11d;" horiz-adv-x="601" d="M288 -218 Q196 -218 140.5 -175 Q85 -132 64 -59 L156 -37 Q181 -134 288 -134 Q361 -134 399.5 -97 Q438 -60 438 7 L438 81 Q417 47 375 23.5 Q333 0 277 0 Q205 0 152 34.5 Q99 69 70.5 127 Q42 185 42 253 Q42 321 71 379.5 Q100 438 153.5 473.5 Q207 509 276 509 Q334 509 374.5 486.5 Q415 464 438 430 L454 495 L536 495 L536 9 Q536 -55 508.5 -106.5 Q481 -158 425.5 -188 Q370 -218 288 -218 Z M290 88 Q355 88 396.5 133.5 Q438 179 438 253 Q438 328 396.5 374.5 Q355 421 289 421 Q223 421 181.5 374.5 Q140 328 140 253 Q140 179 181.5 133.5 Q223 88 290 88 Z M347 569 L291 632 L235 569 L149 569 L239 695 L342 695 L432 569 L347 569 Z " />
<glyph glyph-name="gcommaaccent" unicode="&#x123;" horiz-adv-x="601" d="M288 -218 Q196 -218 140.5 -175 Q85 -132 64 -59 L156 -37 Q181 -134 288 -134 Q361 -134 399.5 -97 Q438 -60 438 7 L438 81 Q417 47 375 23.5 Q333 0 277 0 Q205 0 152 34.5 Q99 69 70.5 127 Q42 185 42 253 Q42 321 71 379.5 Q100 438 153.5 473.5 Q207 509 276 509 Q334 509 374.5 486.5 Q415 464 438 430 L454 495 L536 495 L536 9 Q536 -55 508.5 -106.5 Q481 -158 425.5 -188 Q370 -218 288 -218 Z M290 88 Q355 88 396.5 133.5 Q438 179 438 253 Q438 328 396.5 374.5 Q355 421 289 421 Q223 421 181.5 374.5 Q140 328 140 253 Q140 179 181.5 133.5 Q223 88 290 88 Z M327 723 Q309 702 302 678 Q322 674 334 660.5 Q346 647 346 627 Q346 601 328.5 586.5 Q311 572 291 572 Q265 572 248.5 588 Q232 604 232 634 Q232 665 248 697 Q264 729 291 749 L327 723 Z " />
<glyph glyph-name="gdotaccent" unicode="&#x121;" horiz-adv-x="601" d="M288 -218 Q196 -218 140.5 -175 Q85 -132 64 -59 L156 -37 Q181 -134 288 -134 Q361 -134 399.5 -97 Q438 -60 438 7 L438 81 Q417 47 375 23.5 Q333 0 277 0 Q205 0 152 34.5 Q99 69 70.5 127 Q42 185 42 253 Q42 321 71 379.5 Q100 438 153.5 473.5 Q207 509 276 509 Q334 509 374.5 486.5 Q415 464 438 430 L454 495 L536 495 L536 9 Q536 -55 508.5 -106.5 Q481 -158 425.5 -188 Q370 -218 288 -218 Z M290 88 Q355 88 396.5 133.5 Q438 179 438 253 Q438 328 396.5 374.5 Q355 421 289 421 Q223 421 181.5 374.5 Q140 328 140 253 Q140 179 181.5 133.5 Q223 88 290 88 Z M292 568 Q265 568 246 586.5 Q227 605 227 632 Q227 658 246 677 Q265 696 292 696 Q318 696 336.5 677 Q355 658 355 632 Q355 605 336.5 586.5 Q318 568 292 568 Z " />
<glyph glyph-name="h" unicode="h" horiz-adv-x="556" d="M65 700 L162 700 L162 435 Q218 509 318 509 Q400 509 445.5 460 Q491 411 491 311 L491 0 L393 0 L393 294 Q393 362 365 389.5 Q337 417 287 417 Q235 417 198.5 379 Q162 341 162 275 L162 0 L65 0 L65 700 Z " />
<glyph glyph-name="hbar" unicode="&#x127;" horiz-adv-x="560" d="M322 509 Q404 509 449.5 460 Q495 411 495 311 L495 0 L397 0 L397 294 Q397 362 369 389.5 Q341 417 291 417 Q239 417 202.5 379 Q166 341 166 275 L166 0 L69 0 L69 556 L21 556 L21 626 L69 626 L69 700 L166 700 L166 626 L309 626 L309 556 L166 556 L166 435 Q222 509 322 509 Z " />
<glyph glyph-name="hcircumflex" unicode="&#x125;" horiz-adv-x="556" d="M117 802 L61 739 L-25 739 L66 865 L168 865 L259 739 L173 739 L117 802 Z M318 509 Q400 509 445.5 460 Q491 411 491 311 L491 0 L393 0 L393 294 Q393 362 365 389.5 Q337 417 287 417 Q235 417 198.5 379 Q162 341 162 275 L162 0 L65 0 L65 700 L162 700 L162 435 Q218 509 318 509 Z " />
<glyph glyph-name="i" unicode="i" horiz-adv-x="238" d="M70 495 L168 495 L168 0 L70 0 L70 495 Z M120 568 Q93 568 74 586.5 Q55 605 55 632 Q55 658 74 677 Q93 696 120 696 Q146 696 164.5 677 Q183 658 183 632 Q183 605 164.5 586.5 Q146 568 120 568 Z " />
<glyph glyph-name="dotlessi" unicode="&#x131;" horiz-adv-x="238" d="M70 495 L168 495 L168 0 L70 0 L70 495 Z " />
<glyph glyph-name="iacute" unicode="&#xed;" horiz-adv-x="238" d="M70 495 L168 495 L168 0 L70 0 L70 495 Z M139 695 L266 695 L159 569 L72 569 L139 695 Z " />
<glyph glyph-name="ibreve" unicode="&#x12d;" horiz-adv-x="238" d="M70 495 L168 495 L168 0 L70 0 L70 495 Z M118 570 Q62 570 26 605.5 Q-10 641 -13 696 L59 696 Q61 670 77 654 Q93 638 119 638 Q145 638 161.5 654 Q178 670 180 696 L251 696 Q249 641 212 605.5 Q175 570 118 570 Z " />
<glyph glyph-name="icircumflex" unicode="&#xee;" horiz-adv-x="238" d="M70 495 L168 495 L168 0 L70 0 L70 495 Z M175 569 L119 632 L63 569 L-23 569 L67 695 L170 695 L260 569 L175 569 Z " />
<glyph glyph-name="idieresis" unicode="&#xef;" horiz-adv-x="238" d="M70 495 L168 495 L168 0 L70 0 L70 495 Z M35 568 Q9 568 -10 587 Q-29 606 -29 632 Q-29 658 -10 677 Q9 696 35 696 Q61 696 80 677 Q99 658 99 632 Q99 606 80 587 Q61 568 35 568 Z M203 568 Q177 568 158 587 Q139 606 139 632 Q139 658 158 677 Q177 696 203 696 Q229 696 248 677 Q267 658 267 632 Q267 606 248 587 Q229 568 203 568 Z " />
<glyph glyph-name="igrave" unicode="&#xec;" horiz-adv-x="238" d="M70 495 L168 495 L168 0 L70 0 L70 495 Z M-28 695 L99 695 L166 569 L79 569 L-28 695 Z " />
<glyph glyph-name="ij" unicode="&#x133;" horiz-adv-x="484" d="M70 495 L168 495 L168 0 L70 0 L70 495 Z M120 568 Q93 568 74 586.5 Q55 605 55 632 Q55 658 74 677 Q93 696 120 696 Q146 696 164.5 677 Q183 658 183 632 Q183 605 164.5 586.5 Q146 568 120 568 Z M283 -219 Q243 -219 215.5 -207 Q188 -195 176 -181 L221 -111 Q237 -129 267 -129 Q317 -129 317 -69 L317 495 L415 495 L415 -80 Q415 -143 377.5 -181 Q340 -219 283 -219 Z M367 568 Q340 568 321 586.5 Q302 605 302 632 Q302 658 321 677 Q340 696 367 696 Q393 696 411.5 677 Q430 658 430 632 Q430 605 411.5 586.5 Q393 568 367 568 Z " />
<glyph glyph-name="imacron" unicode="&#x12b;" horiz-adv-x="238" d="M70 495 L168 495 L168 0 L70 0 L70 495 Z M13 670 L225 670 L225 594 L13 594 L13 670 Z " />
<glyph glyph-name="iogonek" unicode="&#x12f;" horiz-adv-x="238" d="M120 568 Q93 568 74 586.5 Q55 605 55 632 Q55 658 74 677 Q93 696 120 696 Q146 696 164.5 677 Q183 658 183 632 Q183 605 164.5 586.5 Q146 568 120 568 Z M70 495 L168 495 L168 0 Q106 -32 106 -75 Q106 -93 119 -104.5 Q132 -116 156 -116 L162 -116 L161 -182 Q154 -183 141 -183 Q90 -183 60.5 -158.5 Q31 -134 31 -94 Q31 -40 76 0 L70 0 L70 495 Z " />
<glyph glyph-name="itilde" unicode="&#x129;" horiz-adv-x="238" d="M70 495 L168 495 L168 0 L70 0 L70 495 Z M178 576 Q158 576 143 581 Q128 586 107 596 Q79 611 62 611 Q49 611 36.5 602 Q24 593 14 574 L-41 611 Q-13 686 55 686 Q75 686 89.5 681.5 Q104 677 124 667 Q141 659 151 655 Q161 651 174 651 Q201 651 221 690 L278 652 Q264 614 237.5 595 Q211 576 178 576 Z " />
<glyph glyph-name="j" unicode="j" horiz-adv-x="246" d="M45 -219 Q5 -219 -22.5 -207 Q-50 -195 -62 -181 L-17 -111 Q-1 -129 29 -129 Q79 -129 79 -69 L79 495 L177 495 L177 -80 Q177 -143 139.5 -181 Q102 -219 45 -219 Z M129 568 Q102 568 83 586.5 Q64 605 64 632 Q64 658 83 677 Q102 696 129 696 Q155 696 173.5 677 Q192 658 192 632 Q192 605 173.5 586.5 Q155 568 129 568 Z " />
<glyph glyph-name="uni0237" unicode="&#x237;" horiz-adv-x="246" d="M45 -219 Q5 -219 -22.5 -207 Q-50 -195 -62 -181 L-17 -111 Q-1 -129 29 -129 Q79 -129 79 -69 L79 495 L177 495 L177 -80 Q177 -143 139.5 -181 Q102 -219 45 -219 Z " />
<glyph glyph-name="jcircumflex" unicode="&#x135;" horiz-adv-x="246" d="M45 -219 Q5 -219 -22.5 -207 Q-50 -195 -62 -181 L-17 -111 Q-1 -129 29 -129 Q79 -129 79 -69 L79 495 L177 495 L177 -80 Q177 -143 139.5 -181 Q102 -219 45 -219 Z M184 569 L128 632 L72 569 L-14 569 L76 695 L179 695 L269 569 L184 569 Z " />
<glyph glyph-name="k" unicode="k" horiz-adv-x="510" d="M219 231 L163 172 L163 0 L65 0 L65 700 L163 700 L163 299 L351 495 L471 495 L284 299 L494 0 L382 0 L219 231 Z " />
<glyph glyph-name="kcommaaccent" unicode="&#x137;" horiz-adv-x="510" d="M219 231 L163 172 L163 0 L65 0 L65 700 L163 700 L163 299 L351 495 L471 495 L284 299 L494 0 L382 0 L219 231 Z M227 -210 Q245 -189 251 -165 Q231 -161 219 -147.5 Q207 -134 207 -114 Q207 -88 224.5 -73.5 Q242 -59 263 -59 Q289 -59 305.5 -75 Q322 -91 322 -120 Q322 -151 306 -183 Q290 -215 263 -236 L227 -210 Z " />
<glyph glyph-name="kgreenlandic" unicode="&#x138;" horiz-adv-x="510" d="M219 231 L163 172 L163 0 L65 0 L65 495 L163 495 L163 299 L351 495 L471 495 L284 299 L494 0 L382 0 L219 231 Z " />
<glyph glyph-name="l" unicode="l" horiz-adv-x="228" d="M65 700 L163 700 L163 0 L65 0 L65 700 Z " />
<glyph glyph-name="lacute" unicode="&#x13a;" horiz-adv-x="228" d="M65 700 L163 700 L163 0 L65 0 L65 700 Z M137 897 L264 897 L157 771 L70 771 L137 897 Z " />
<glyph glyph-name="lcaron" unicode="&#x13e;" horiz-adv-x="228" d="M65 700 L163 700 L163 0 L65 0 L65 700 Z M242 700 L343 700 L271 574 L205 574 L242 700 Z " />
<glyph glyph-name="lcommaaccent" unicode="&#x13c;" horiz-adv-x="228" d="M65 700 L163 700 L163 0 L65 0 L65 700 Z M75 -210 Q93 -189 99 -165 Q79 -161 67 -147.5 Q55 -134 55 -114 Q55 -88 72.5 -73.5 Q90 -59 111 -59 Q137 -59 153.5 -75 Q170 -91 170 -120 Q170 -151 154 -183 Q138 -215 111 -236 L75 -210 Z " />
<glyph glyph-name="ldot" unicode="&#x140;" horiz-adv-x="357" d="M65 700 L163 700 L163 0 L65 0 L65 700 Z M295 283 Q267 283 247.5 302.5 Q228 322 228 350 Q228 378 247.5 397.5 Q267 417 295 417 Q323 417 342.5 397.5 Q362 378 362 350 Q362 322 342.5 302.5 Q323 283 295 283 Z " />
<glyph glyph-name="lslash" unicode="&#x142;" horiz-adv-x="318" d="M208 339 L208 0 L110 0 L110 265 L53 222 L6 288 L110 366 L110 700 L208 700 L208 440 L264 482 L312 417 L208 339 Z " />
<glyph glyph-name="m" unicode="m" horiz-adv-x="846" d="M65 495 L146 495 L160 432 Q186 468 225.5 488.5 Q265 509 316 509 Q368 509 403 486.5 Q438 464 455 428 Q482 465 524 487 Q566 509 620 509 Q692 509 736.5 464 Q781 419 781 329 L781 0 L683 0 L683 298 Q683 363 658 390 Q633 417 586 417 Q537 417 504.5 381 Q472 345 472 280 L472 0 L374 0 L374 298 Q374 417 278 417 Q229 417 196 381 Q163 345 163 280 L163 0 L65 0 L65 495 Z " />
<glyph glyph-name="n" unicode="n" horiz-adv-x="557" d="M65 495 L146 495 L161 432 Q218 509 318 509 Q400 509 446 460 Q492 411 492 311 L492 0 L394 0 L394 294 Q394 362 366 389.5 Q338 417 288 417 Q235 417 199 379.5 Q163 342 163 276 L163 0 L65 0 L65 495 Z " />
<glyph glyph-name="nacute" unicode="&#x144;" horiz-adv-x="557" d="M65 495 L146 495 L161 432 Q218 509 318 509 Q400 509 446 460 Q492 411 492 311 L492 0 L394 0 L394 294 Q394 362 366 389.5 Q338 417 288 417 Q235 417 199 379.5 Q163 342 163 276 L163 0 L65 0 L65 495 Z M299 695 L426 695 L319 569 L232 569 L299 695 Z " />
<glyph glyph-name="napostrophe" unicode="&#x149;" horiz-adv-x="598" d="M22 560 Q41 585 46 605 Q26 609 14 622.5 Q2 636 2 656 Q2 682 19.5 696.5 Q37 711 58 711 Q84 711 100.5 695 Q117 679 117 649 Q117 619 101 587 Q85 555 58 534 L22 560 Z M106 495 L187 495 L202 432 Q259 509 359 509 Q441 509 487 460 Q533 411 533 311 L533 0 L435 0 L435 294 Q435 362 407 389.5 Q379 417 329 417 Q276 417 240 379.5 Q204 342 204 276 L204 0 L106 0 L106 495 Z " />
<glyph glyph-name="ncaron" unicode="&#x148;" horiz-adv-x="557" d="M65 495 L146 495 L161 432 Q218 509 318 509 Q400 509 446 460 Q492 411 492 311 L492 0 L394 0 L394 294 Q394 362 366 389.5 Q338 417 288 417 Q235 417 199 379.5 Q163 342 163 276 L163 0 L65 0 L65 495 Z M420 695 L330 569 L227 569 L137 695 L223 695 L279 632 L335 695 L420 695 Z " />
<glyph glyph-name="ncommaaccent" unicode="&#x146;" horiz-adv-x="557" d="M65 495 L146 495 L161 432 Q218 509 318 509 Q400 509 446 460 Q492 411 492 311 L492 0 L394 0 L394 294 Q394 362 366 389.5 Q338 417 288 417 Q235 417 199 379.5 Q163 342 163 276 L163 0 L65 0 L65 495 Z M245 -210 Q263 -189 269 -165 Q249 -161 237 -147.5 Q225 -134 225 -114 Q225 -88 242.5 -73.5 Q260 -59 281 -59 Q307 -59 323.5 -75 Q340 -91 340 -120 Q340 -151 324 -183 Q308 -215 281 -236 L245 -210 Z " />
<glyph glyph-name="eng" unicode="&#x14b;" horiz-adv-x="557" d="M318 509 Q400 509 446 460 Q492 411 492 311 L492 -80 Q492 -143 454 -181 Q416 -219 359 -219 Q320 -219 292.5 -207 Q265 -195 253 -181 L297 -111 Q315 -129 344 -129 Q394 -129 394 -69 L394 294 Q394 362 366 389.5 Q338 417 288 417 Q235 417 199 379.5 Q163 342 163 276 L163 0 L65 0 L65 495 L146 495 L161 432 Q218 509 318 509 Z " />
<glyph glyph-name="ntilde" unicode="&#xf1;" horiz-adv-x="557" d="M65 495 L146 495 L161 432 Q218 509 318 509 Q400 509 446 460 Q492 411 492 311 L492 0 L394 0 L394 294 Q394 362 366 389.5 Q338 417 288 417 Q235 417 199 379.5 Q163 342 163 276 L163 0 L65 0 L65 495 Z M338 576 Q318 576 303 581 Q288 586 267 596 Q239 611 222 611 Q209 611 196.5 602 Q184 593 174 574 L119 611 Q147 686 215 686 Q235 686 249.5 681.5 Q264 677 284 667 Q301 659 311 655 Q321 651 334 651 Q361 651 381 690 L438 652 Q424 614 397.5 595 Q371 576 338 576 Z " />
<glyph glyph-name="o" unicode="o" horiz-adv-x="594" d="M297 -14 Q222 -14 163.5 22 Q105 58 73.5 118 Q42 178 42 247 Q42 317 74 377 Q106 437 164.5 473 Q223 509 297 509 Q372 509 430 473 Q488 437 520 377 Q552 317 552 247 Q552 178 520 118 Q488 58 430 22 Q372 -14 297 -14 Z M297 76 Q342 76 377.5 98 Q413 120 433.5 159.5 Q454 199 454 247 Q454 296 433.5 335 Q413 374 377.5 396.5 Q342 419 297 419 Q252 419 216 396.5 Q180 374 160 335 Q140 296 140 247 Q140 198 160 159 Q180 120 216 98 Q252 76 297 76 Z " />
<glyph glyph-name="oacute" unicode="&#xf3;" horiz-adv-x="594" d="M297 -14 Q222 -14 163.5 22 Q105 58 73.5 118 Q42 178 42 247 Q42 317 74 377 Q106 437 164.5 473 Q223 509 297 509 Q372 509 430 473 Q488 437 520 377 Q552 317 552 247 Q552 178 520 118 Q488 58 430 22 Q372 -14 297 -14 Z M297 76 Q342 76 377.5 98 Q413 120 433.5 159.5 Q454 199 454 247 Q454 296 433.5 335 Q413 374 377.5 396.5 Q342 419 297 419 Q252 419 216 396.5 Q180 374 160 335 Q140 296 140 247 Q140 198 160 159 Q180 120 216 98 Q252 76 297 76 Z M317 695 L444 695 L337 569 L250 569 L317 695 Z " />
<glyph glyph-name="obreve" unicode="&#x14f;" horiz-adv-x="594" d="M297 -14 Q222 -14 163.5 22 Q105 58 73.5 118 Q42 178 42 247 Q42 317 74 377 Q106 437 164.5 473 Q223 509 297 509 Q372 509 430 473 Q488 437 520 377 Q552 317 552 247 Q552 178 520 118 Q488 58 430 22 Q372 -14 297 -14 Z M297 76 Q342 76 377.5 98 Q413 120 433.5 159.5 Q454 199 454 247 Q454 296 433.5 335 Q413 374 377.5 396.5 Q342 419 297 419 Q252 419 216 396.5 Q180 374 160 335 Q140 296 140 247 Q140 198 160 159 Q180 120 216 98 Q252 76 297 76 Z M296 570 Q240 570 204 605.5 Q168 641 165 696 L237 696 Q239 670 255 654 Q271 638 297 638 Q323 638 339.5 654 Q356 670 358 696 L429 696 Q427 641 390 605.5 Q353 570 296 570 Z " />
<glyph glyph-name="ocircumflex" unicode="&#xf4;" horiz-adv-x="594" d="M297 -14 Q222 -14 163.5 22 Q105 58 73.5 118 Q42 178 42 247 Q42 317 74 377 Q106 437 164.5 473 Q223 509 297 509 Q372 509 430 473 Q488 437 520 377 Q552 317 552 247 Q552 178 520 118 Q488 58 430 22 Q372 -14 297 -14 Z M297 76 Q342 76 377.5 98 Q413 120 433.5 159.5 Q454 199 454 247 Q454 296 433.5 335 Q413 374 377.5 396.5 Q342 419 297 419 Q252 419 216 396.5 Q180 374 160 335 Q140 296 140 247 Q140 198 160 159 Q180 120 216 98 Q252 76 297 76 Z M353 569 L297 632 L241 569 L155 569 L245 695 L348 695 L438 569 L353 569 Z " />
<glyph glyph-name="odieresis" unicode="&#xf6;" horiz-adv-x="594" d="M297 -14 Q222 -14 163.5 22 Q105 58 73.5 118 Q42 178 42 247 Q42 317 74 377 Q106 437 164.5 473 Q223 509 297 509 Q372 509 430 473 Q488 437 520 377 Q552 317 552 247 Q552 178 520 118 Q488 58 430 22 Q372 -14 297 -14 Z M297 76 Q342 76 377.5 98 Q413 120 433.5 159.5 Q454 199 454 247 Q454 296 433.5 335 Q413 374 377.5 396.5 Q342 419 297 419 Q252 419 216 396.5 Q180 374 160 335 Q140 296 140 247 Q140 198 160 159 Q180 120 216 98 Q252 76 297 76 Z M213 568 Q187 568 168 587 Q149 606 149 632 Q149 658 168 677 Q187 696 213 696 Q239 696 258 677 Q277 658 277 632 Q277 606 258 587 Q239 568 213 568 Z M381 568 Q355 568 336 587 Q317 606 317 632 Q317 658 336 677 Q355 696 381 696 Q407 696 426 677 Q445 658 445 632 Q445 606 426 587 Q407 568 381 568 Z " />
<glyph glyph-name="ograve" unicode="&#xf2;" horiz-adv-x="594" d="M297 -14 Q222 -14 163.5 22 Q105 58 73.5 118 Q42 178 42 247 Q42 317 74 377 Q106 437 164.5 473 Q223 509 297 509 Q372 509 430 473 Q488 437 520 377 Q552 317 552 247 Q552 178 520 118 Q488 58 430 22 Q372 -14 297 -14 Z M297 76 Q342 76 377.5 98 Q413 120 433.5 159.5 Q454 199 454 247 Q454 296 433.5 335 Q413 374 377.5 396.5 Q342 419 297 419 Q252 419 216 396.5 Q180 374 160 335 Q140 296 140 247 Q140 198 160 159 Q180 120 216 98 Q252 76 297 76 Z M150 695 L277 695 L344 569 L257 569 L150 695 Z " />
<glyph glyph-name="ohungarumlaut" unicode="&#x151;" horiz-adv-x="594" d="M297 -14 Q222 -14 163.5 22 Q105 58 73.5 118 Q42 178 42 247 Q42 317 74 377 Q106 437 164.5 473 Q223 509 297 509 Q372 509 430 473 Q488 437 520 377 Q552 317 552 247 Q552 178 520 118 Q488 58 430 22 Q372 -14 297 -14 Z M297 76 Q342 76 377.5 98 Q413 120 433.5 159.5 Q454 199 454 247 Q454 296 433.5 335 Q413 374 377.5 396.5 Q342 419 297 419 Q252 419 216 396.5 Q180 374 160 335 Q140 296 140 247 Q140 198 160 159 Q180 120 216 98 Q252 76 297 76 Z M182 569 L247 695 L362 695 L257 569 L182 569 Z M329 569 L394 695 L509 695 L404 569 L329 569 Z " />
<glyph glyph-name="omacron" unicode="&#x14d;" horiz-adv-x="594" d="M297 -14 Q222 -14 163.5 22 Q105 58 73.5 118 Q42 178 42 247 Q42 317 74 377 Q106 437 164.5 473 Q223 509 297 509 Q372 509 430 473 Q488 437 520 377 Q552 317 552 247 Q552 178 520 118 Q488 58 430 22 Q372 -14 297 -14 Z M297 76 Q342 76 377.5 98 Q413 120 433.5 159.5 Q454 199 454 247 Q454 296 433.5 335 Q413 374 377.5 396.5 Q342 419 297 419 Q252 419 216 396.5 Q180 374 160 335 Q140 296 140 247 Q140 198 160 159 Q180 120 216 98 Q252 76 297 76 Z M191 670 L403 670 L403 594 L191 594 L191 670 Z " />
<glyph glyph-name="oslash" unicode="&#xf8;" horiz-adv-x="594" d="M479 434 Q514 397 533 348.5 Q552 300 552 247 Q552 178 520 118 Q488 58 430 22 Q372 -14 297 -14 Q231 -14 178 14 L138 -41 L76 4 L116 60 Q81 96 61.5 145 Q42 194 42 247 Q42 317 74 377 Q106 437 164.5 473 Q223 509 297 509 Q362 509 418 480 L456 532 L517 487 L479 434 Z M140 247 Q140 185 173 139 L364 404 Q334 419 297 419 Q252 419 216 396.5 Q180 374 160 335 Q140 296 140 247 Z M297 76 Q342 76 377.5 98 Q413 120 433.5 159.5 Q454 199 454 247 Q454 309 422 355 L232 90 Q262 76 297 76 Z " />
<glyph glyph-name="oslashacute" unicode="&#x1ff;" horiz-adv-x="594" d="M479 434 Q514 397 533 348.5 Q552 300 552 247 Q552 178 520 118 Q488 58 430 22 Q372 -14 297 -14 Q231 -14 178 14 L138 -41 L76 4 L116 60 Q81 96 61.5 145 Q42 194 42 247 Q42 317 74 377 Q106 437 164.5 473 Q223 509 297 509 Q362 509 418 480 L456 532 L517 487 L479 434 Z M140 247 Q140 185 173 139 L364 404 Q334 419 297 419 Q252 419 216 396.5 Q180 374 160 335 Q140 296 140 247 Z M297 76 Q342 76 377.5 98 Q413 120 433.5 159.5 Q454 199 454 247 Q454 309 422 355 L232 90 Q262 76 297 76 Z M315 695 L442 695 L335 569 L248 569 L315 695 Z " />
<glyph glyph-name="otilde" unicode="&#xf5;" horiz-adv-x="594" d="M297 -14 Q222 -14 163.5 22 Q105 58 73.5 118 Q42 178 42 247 Q42 317 74 377 Q106 437 164.5 473 Q223 509 297 509 Q372 509 430 473 Q488 437 520 377 Q552 317 552 247 Q552 178 520 118 Q488 58 430 22 Q372 -14 297 -14 Z M297 76 Q342 76 377.5 98 Q413 120 433.5 159.5 Q454 199 454 247 Q454 296 433.5 335 Q413 374 377.5 396.5 Q342 419 297 419 Q252 419 216 396.5 Q180 374 160 335 Q140 296 140 247 Q140 198 160 159 Q180 120 216 98 Q252 76 297 76 Z M356 576 Q336 576 321 581 Q306 586 285 596 Q257 611 240 611 Q227 611 214.5 602 Q202 593 192 574 L137 611 Q165 686 233 686 Q253 686 267.5 681.5 Q282 677 302 667 Q319 659 329 655 Q339 651 352 651 Q379 651 399 690 L456 652 Q442 614 415.5 595 Q389 576 356 576 Z " />
<glyph glyph-name="oe" unicode="&#x153;" horiz-adv-x="985" d="M943 217 L558 217 Q561 177 580.5 143 Q600 109 634 88.5 Q668 68 711 68 Q763 68 798.5 93.5 Q834 119 846 154 L930 127 Q908 65 852 25.5 Q796 -14 711 -14 Q645 -14 592 15 Q539 44 506 95 Q472 45 418 15.5 Q364 -14 297 -14 Q222 -14 163.5 22 Q105 58 73.5 118 Q42 178 42 247 Q42 317 74 377 Q106 437 164.5 473 Q223 509 297 509 Q365 509 419 479.5 Q473 450 507 399 Q541 450 594 479 Q647 508 710 508 Q780 508 832.5 476.5 Q885 445 914 388 Q943 331 943 256 L943 217 Z M855 294 Q851 347 812.5 386.5 Q774 426 711 426 Q648 426 608 388 Q568 350 559 294 L855 294 Z M297 76 Q342 76 377.5 98 Q413 120 433.5 159.5 Q454 199 454 247 Q454 296 433.5 335 Q413 374 377.5 396.5 Q342 419 297 419 Q252 419 216 396.5 Q180 374 160 335 Q140 296 140 247 Q140 198 160 159 Q180 120 216 98 Q252 76 297 76 Z " />
<glyph glyph-name="p" unicode="p" horiz-adv-x="606" d="M326 508 Q395 508 449.5 471.5 Q504 435 534 375 Q564 315 564 247 Q564 177 535.5 117.5 Q507 58 453 22 Q399 -14 327 -14 Q272 -14 230 8 Q188 30 163 64 L163 -205 L65 -205 L65 495 L146 495 L159 428 Q184 462 226 485 Q268 508 326 508 Z M314 420 Q247 420 204.5 371 Q162 322 162 247 Q162 171 204.5 122.5 Q247 74 314 74 Q357 74 392 96 Q427 118 446.5 157.5 Q466 197 466 247 Q466 296 446.5 335.5 Q427 375 392 397.5 Q357 420 314 420 Z " />
<glyph glyph-name="thorn" unicode="&#xfe;" horiz-adv-x="605" d="M65 700 L165 700 L162 430 Q189 466 230.5 487 Q272 508 326 508 Q395 508 449 471.5 Q503 435 533 375 Q563 315 563 247 Q563 177 534.5 117.5 Q506 58 452 22 Q398 -14 326 -14 Q225 -14 163 64 L163 -205 L65 -205 L65 700 Z M313 76 Q357 76 392 98 Q427 120 446.5 159 Q466 198 466 247 Q466 295 446.5 334.5 Q427 374 392 396 Q357 418 313 418 Q269 418 234.5 396 Q200 374 181 335 Q162 296 162 247 Q162 172 204 124 Q246 76 313 76 Z " />
<glyph glyph-name="q" unicode="q" horiz-adv-x="606" d="M280 508 Q338 508 380 485 Q422 462 447 428 L460 495 L541 495 L541 -205 L443 -205 L443 64 Q418 30 376 8 Q334 -14 279 -14 Q207 -14 153 22 Q99 58 70.5 117.5 Q42 177 42 247 Q42 315 72 375 Q102 435 156.5 471.5 Q211 508 280 508 Z M292 420 Q248 420 213.5 397.5 Q179 375 159.5 335.5 Q140 296 140 247 Q140 197 159.5 157.5 Q179 118 213.5 96 Q248 74 292 74 Q359 74 401 122.5 Q443 171 443 247 Q443 323 401 371.5 Q359 420 292 420 Z " />
<glyph glyph-name="r" unicode="r" horiz-adv-x="387" d="M65 495 L146 495 L161 433 Q179 465 212.5 487 Q246 509 290 509 Q319 509 342 501.5 Q365 494 379 484 L341 398 Q332 405 315.5 410.5 Q299 416 277 416 Q228 416 195.5 377.5 Q163 339 163 274 L163 0 L65 0 L65 495 Z " />
<glyph glyph-name="racute" unicode="&#x155;" horiz-adv-x="387" d="M65 495 L146 495 L161 433 Q179 465 212.5 487 Q246 509 290 509 Q319 509 342 501.5 Q365 494 379 484 L341 398 Q332 405 315.5 410.5 Q299 416 277 416 Q228 416 195.5 377.5 Q163 339 163 274 L163 0 L65 0 L65 495 Z M244 695 L371 695 L264 569 L177 569 L244 695 Z " />
<glyph glyph-name="rcaron" unicode="&#x159;" horiz-adv-x="387" d="M65 495 L146 495 L161 433 Q179 465 212.5 487 Q246 509 290 509 Q319 509 342 501.5 Q365 494 379 484 L341 398 Q332 405 315.5 410.5 Q299 416 277 416 Q228 416 195.5 377.5 Q163 339 163 274 L163 0 L65 0 L65 495 Z M365 695 L275 569 L172 569 L82 695 L168 695 L224 632 L280 695 L365 695 Z " />
<glyph glyph-name="rcommaaccent" unicode="&#x157;" horiz-adv-x="387" d="M65 495 L146 495 L161 433 Q179 465 212.5 487 Q246 509 290 509 Q319 509 342 501.5 Q365 494 379 484 L341 398 Q332 405 315.5 410.5 Q299 416 277 416 Q228 416 195.5 377.5 Q163 339 163 274 L163 0 L65 0 L65 495 Z M80 -210 Q98 -189 104 -165 Q84 -161 72 -147.5 Q60 -134 60 -114 Q60 -88 77.5 -73.5 Q95 -59 116 -59 Q142 -59 158.5 -75 Q175 -91 175 -120 Q175 -151 159 -183 Q143 -215 116 -236 L80 -210 Z " />
<glyph glyph-name="s" unicode="s" horiz-adv-x="484" d="M246 -14 Q166 -14 114 24.5 Q62 63 42 136 L130 163 Q142 121 167.5 95 Q193 69 246 69 Q292 69 320.5 87.5 Q349 106 349 138 Q349 162 328 179.5 Q307 197 245 208 Q157 224 108 256.5 Q59 289 59 358 Q59 425 111.5 466.5 Q164 508 246 508 Q321 508 369.5 470.5 Q418 433 433 365 L346 340 Q337 378 313.5 401.5 Q290 425 246 425 Q198 425 175 406.5 Q152 388 152 362 Q152 333 179 318.5 Q206 304 262 294 Q350 277 396 242.5 Q442 208 442 139 Q442 95 417 60 Q392 25 347 5.5 Q302 -14 246 -14 Z " />
<glyph glyph-name="sacute" unicode="&#x15b;" horiz-adv-x="484" d="M246 -14 Q166 -14 114 24.5 Q62 63 42 136 L130 163 Q142 121 167.5 95 Q193 69 246 69 Q292 69 320.5 87.5 Q349 106 349 138 Q349 162 328 179.5 Q307 197 245 208 Q157 224 108 256.5 Q59 289 59 358 Q59 425 111.5 466.5 Q164 508 246 508 Q321 508 369.5 470.5 Q418 433 433 365 L346 340 Q337 378 313.5 401.5 Q290 425 246 425 Q198 425 175 406.5 Q152 388 152 362 Q152 333 179 318.5 Q206 304 262 294 Q350 277 396 242.5 Q442 208 442 139 Q442 95 417 60 Q392 25 347 5.5 Q302 -14 246 -14 Z M268 694 L395 694 L288 568 L201 568 L268 694 Z " />
<glyph glyph-name="scaron" unicode="&#x161;" horiz-adv-x="484" d="M246 -14 Q166 -14 114 24.5 Q62 63 42 136 L130 163 Q142 121 167.5 95 Q193 69 246 69 Q292 69 320.5 87.5 Q349 106 349 138 Q349 162 328 179.5 Q307 197 245 208 Q157 224 108 256.5 Q59 289 59 358 Q59 425 111.5 466.5 Q164 508 246 508 Q321 508 369.5 470.5 Q418 433 433 365 L346 340 Q337 378 313.5 401.5 Q290 425 246 425 Q198 425 175 406.5 Q152 388 152 362 Q152 333 179 318.5 Q206 304 262 294 Q350 277 396 242.5 Q442 208 442 139 Q442 95 417 60 Q392 25 347 5.5 Q302 -14 246 -14 Z M389 694 L299 568 L196 568 L106 694 L192 694 L248 631 L304 694 L389 694 Z " />
<glyph glyph-name="scedilla" unicode="&#x15f;" horiz-adv-x="484" d="M442 139 Q442 78 395 36.5 Q348 -5 273 -13 L258 -42 Q294 -43 318.5 -65 Q343 -87 343 -123 Q343 -166 317 -191.5 Q291 -217 248 -217 Q210 -217 184.5 -196.5 Q159 -176 156 -146 L211 -127 Q211 -143 221 -152.5 Q231 -162 248 -162 Q263 -162 273 -152.5 Q283 -143 283 -127 Q283 -112 273 -103 Q263 -94 248 -94 Q232 -94 225 -101 L182 -76 L216 -13 Q149 -5 104.5 32.5 Q60 70 42 136 L130 163 Q142 121 167.5 95 Q193 69 246 69 Q292 69 320.5 87.5 Q349 106 349 138 Q349 162 328 179.5 Q307 197 245 208 Q157 224 108 256.5 Q59 289 59 358 Q59 425 111.5 466.5 Q164 508 246 508 Q321 508 369.5 470.5 Q418 433 433 365 L346 340 Q337 378 313.5 401.5 Q290 425 246 425 Q198 425 175 406.5 Q152 388 152 362 Q152 333 179 318.5 Q206 304 262 294 Q350 277 396 242.5 Q442 208 442 139 Z " />
<glyph glyph-name="scircumflex" unicode="&#x15d;" horiz-adv-x="484" d="M246 -14 Q166 -14 114 24.5 Q62 63 42 136 L130 163 Q142 121 167.5 95 Q193 69 246 69 Q292 69 320.5 87.5 Q349 106 349 138 Q349 162 328 179.5 Q307 197 245 208 Q157 224 108 256.5 Q59 289 59 358 Q59 425 111.5 466.5 Q164 508 246 508 Q321 508 369.5 470.5 Q418 433 433 365 L346 340 Q337 378 313.5 401.5 Q290 425 246 425 Q198 425 175 406.5 Q152 388 152 362 Q152 333 179 318.5 Q206 304 262 294 Q350 277 396 242.5 Q442 208 442 139 Q442 95 417 60 Q392 25 347 5.5 Q302 -14 246 -14 Z M304 568 L248 631 L192 568 L106 568 L196 694 L299 694 L389 568 L304 568 Z " />
<glyph glyph-name="scommaaccent" unicode="&#x219;" horiz-adv-x="484" d="M246 -14 Q166 -14 114 24.5 Q62 63 42 136 L130 163 Q142 121 167.5 95 Q193 69 246 69 Q292 69 320.5 87.5 Q349 106 349 138 Q349 162 328 179.5 Q307 197 245 208 Q157 224 108 256.5 Q59 289 59 358 Q59 425 111.5 466.5 Q164 508 246 508 Q321 508 369.5 470.5 Q418 433 433 365 L346 340 Q337 378 313.5 401.5 Q290 425 246 425 Q198 425 175 406.5 Q152 388 152 362 Q152 333 179 318.5 Q206 304 262 294 Q350 277 396 242.5 Q442 208 442 139 Q442 95 417 60 Q392 25 347 5.5 Q302 -14 246 -14 Z M208 -210 Q226 -189 232 -165 Q212 -161 200 -147.5 Q188 -134 188 -114 Q188 -88 205.5 -73.5 Q223 -59 244 -59 Q270 -59 286.5 -75 Q303 -91 303 -120 Q303 -151 287 -183 Q271 -215 244 -236 L208 -210 Z " />
<glyph glyph-name="germandbls" unicode="&#xdf;" horiz-adv-x="541" d="M65 521 Q65 610 119.5 662.5 Q174 715 266 715 Q318 715 360.5 692.5 Q403 670 428.5 627.5 Q454 585 454 528 Q454 478 431 444.5 Q408 411 379 391 L379 389 Q421 374 460 333.5 Q499 293 499 208 Q499 147 472 98 Q445 49 395 20.5 Q345 -8 278 -8 Q243 -8 216 -1 L227 83 Q244 78 269 78 Q324 78 363.5 110.5 Q403 143 403 207 Q403 271 364 303.5 Q325 336 262 336 L237 336 L237 420 L263 420 Q306 420 337.5 448 Q369 476 369 525 Q369 575 341 604 Q313 633 261 633 Q216 633 187.5 603 Q159 573 159 519 L159 0 L65 0 L65 521 Z " />
<glyph glyph-name="longs" unicode="&#x17f;" horiz-adv-x="274" d="M65 597 Q65 655 96 684.5 Q127 714 179 714 Q204 714 225.5 709.5 Q247 705 258 699 L235 619 Q221 625 201 625 Q183 625 173 614.5 Q163 604 163 585 L163 0 L65 0 L65 597 Z " />
<glyph glyph-name="t" unicode="t" horiz-adv-x="373" d="M240 -14 Q182 -14 145.5 22.5 Q109 59 109 123 L109 407 L20 407 L20 495 L109 495 L109 624 L207 624 L207 495 L341 495 L341 407 L207 407 L207 135 Q207 77 259 77 Q288 77 307 96 L352 26 Q339 11 310.5 -1.5 Q282 -14 240 -14 Z " />
<glyph glyph-name="tbar" unicode="&#x167;" horiz-adv-x="374" d="M353 26 Q313 -14 240 -14 Q182 -14 145.5 19.5 Q109 53 109 113 L109 224 L43 224 L43 294 L109 294 L109 421 L20 421 L20 495 L109 495 L109 624 L207 624 L207 495 L341 495 L341 421 L207 421 L207 294 L301 294 L301 224 L207 224 L207 125 Q207 100 220 88.5 Q233 77 259 77 Q277 77 289.5 83 Q302 89 307 95 L353 26 Z " />
<glyph glyph-name="tcaron" unicode="&#x165;" horiz-adv-x="373" d="M284 700 L400 700 L323 574 L243 574 L284 700 Z M240 -14 Q182 -14 145.5 22.5 Q109 59 109 123 L109 407 L20 407 L20 495 L109 495 L109 624 L207 624 L207 495 L341 495 L341 407 L207 407 L207 135 Q207 77 259 77 Q288 77 307 96 L352 26 Q339 11 310.5 -1.5 Q282 -14 240 -14 Z " />
<glyph glyph-name="uni0163" unicode="&#x163;" horiz-adv-x="373" d="M352 26 Q340 12 315.5 0.5 Q291 -11 255 -14 L240 -42 Q276 -43 300.5 -65 Q325 -87 325 -123 Q325 -166 299 -191.5 Q273 -217 230 -217 Q192 -217 166.5 -196.5 Q141 -176 138 -146 L193 -127 Q193 -143 203 -152.5 Q213 -162 230 -162 Q245 -162 255 -152.5 Q265 -143 265 -127 Q265 -112 255 -103 Q245 -94 230 -94 Q214 -94 207 -101 L164 -76 L200 -9 Q158 3 133.5 36.5 Q109 70 109 123 L109 407 L20 407 L20 495 L109 495 L109 624 L207 624 L207 495 L341 495 L341 407 L207 407 L207 135 Q207 77 259 77 Q288 77 307 96 L352 26 Z " />
<glyph glyph-name="uni021B" unicode="&#x21b;" horiz-adv-x="373" d="M240 -14 Q182 -14 145.5 22.5 Q109 59 109 123 L109 407 L20 407 L20 495 L109 495 L109 624 L207 624 L207 495 L341 495 L341 407 L207 407 L207 135 Q207 77 259 77 Q288 77 307 96 L352 26 Q339 11 310.5 -1.5 Q282 -14 240 -14 Z M190 -210 Q208 -189 214 -165 Q194 -161 182 -147.5 Q170 -134 170 -114 Q170 -88 187.5 -73.5 Q205 -59 226 -59 Q252 -59 268.5 -75 Q285 -91 285 -120 Q285 -151 269 -183 Q253 -215 226 -236 L190 -210 Z " />
<glyph glyph-name="u" unicode="u" horiz-adv-x="557" d="M492 0 L411 0 L396 63 Q339 -14 239 -14 Q157 -14 111 34.5 Q65 83 65 183 L65 495 L163 495 L163 200 Q163 133 191 105 Q219 77 269 77 Q322 77 358 114.5 Q394 152 394 218 L394 495 L492 495 L492 0 Z " />
<glyph glyph-name="uacute" unicode="&#xfa;" horiz-adv-x="557" d="M492 0 L411 0 L396 63 Q339 -14 239 -14 Q157 -14 111 34.5 Q65 83 65 183 L65 495 L163 495 L163 200 Q163 133 191 105 Q219 77 269 77 Q322 77 358 114.5 Q394 152 394 218 L394 495 L492 495 L492 0 Z M299 695 L426 695 L319 569 L232 569 L299 695 Z " />
<glyph glyph-name="ubreve" unicode="&#x16d;" horiz-adv-x="557" d="M492 0 L411 0 L396 63 Q339 -14 239 -14 Q157 -14 111 34.5 Q65 83 65 183 L65 495 L163 495 L163 200 Q163 133 191 105 Q219 77 269 77 Q322 77 358 114.5 Q394 152 394 218 L394 495 L492 495 L492 0 Z M278 570 Q222 570 186 605.5 Q150 641 147 696 L219 696 Q221 670 237 654 Q253 638 279 638 Q305 638 321.5 654 Q338 670 340 696 L411 696 Q409 641 372 605.5 Q335 570 278 570 Z " />
<glyph glyph-name="ucircumflex" unicode="&#xfb;" horiz-adv-x="557" d="M492 0 L411 0 L396 63 Q339 -14 239 -14 Q157 -14 111 34.5 Q65 83 65 183 L65 495 L163 495 L163 200 Q163 133 191 105 Q219 77 269 77 Q322 77 358 114.5 Q394 152 394 218 L394 495 L492 495 L492 0 Z M335 569 L279 632 L223 569 L137 569 L227 695 L330 695 L420 569 L335 569 Z " />
<glyph glyph-name="udieresis" unicode="&#xfc;" horiz-adv-x="557" d="M492 0 L411 0 L396 63 Q339 -14 239 -14 Q157 -14 111 34.5 Q65 83 65 183 L65 495 L163 495 L163 200 Q163 133 191 105 Q219 77 269 77 Q322 77 358 114.5 Q394 152 394 218 L394 495 L492 495 L492 0 Z M195 568 Q169 568 150 587 Q131 606 131 632 Q131 658 150 677 Q169 696 195 696 Q221 696 240 677 Q259 658 259 632 Q259 606 240 587 Q221 568 195 568 Z M363 568 Q337 568 318 587 Q299 606 299 632 Q299 658 318 677 Q337 696 363 696 Q389 696 408 677 Q427 658 427 632 Q427 606 408 587 Q389 568 363 568 Z " />
<glyph glyph-name="ugrave" unicode="&#xf9;" horiz-adv-x="557" d="M492 0 L411 0 L396 63 Q339 -14 239 -14 Q157 -14 111 34.5 Q65 83 65 183 L65 495 L163 495 L163 200 Q163 133 191 105 Q219 77 269 77 Q322 77 358 114.5 Q394 152 394 218 L394 495 L492 495 L492 0 Z M132 695 L259 695 L326 569 L239 569 L132 695 Z " />
<glyph glyph-name="uhungarumlaut" unicode="&#x171;" horiz-adv-x="557" d="M492 0 L411 0 L396 63 Q339 -14 239 -14 Q157 -14 111 34.5 Q65 83 65 183 L65 495 L163 495 L163 200 Q163 133 191 105 Q219 77 269 77 Q322 77 358 114.5 Q394 152 394 218 L394 495 L492 495 L492 0 Z M164 569 L229 695 L344 695 L239 569 L164 569 Z M311 569 L376 695 L491 695 L386 569 L311 569 Z " />
<glyph glyph-name="umacron" unicode="&#x16b;" horiz-adv-x="557" d="M492 0 L411 0 L396 63 Q339 -14 239 -14 Q157 -14 111 34.5 Q65 83 65 183 L65 495 L163 495 L163 200 Q163 133 191 105 Q219 77 269 77 Q322 77 358 114.5 Q394 152 394 218 L394 495 L492 495 L492 0 Z M173 670 L385 670 L385 594 L173 594 L173 670 Z " />
<glyph glyph-name="uogonek" unicode="&#x173;" horiz-adv-x="557" d="M492 0 Q430 -32 430 -75 Q430 -93 443 -104.5 Q456 -116 480 -116 L486 -116 L485 -182 Q478 -183 465 -183 Q414 -183 384.5 -158.5 Q355 -134 355 -94 Q355 -62 370 -36.5 Q385 -11 409 7 L396 63 Q339 -14 239 -14 Q157 -14 111 34.5 Q65 83 65 183 L65 495 L163 495 L163 200 Q163 133 191 105 Q219 77 269 77 Q322 77 358 114.5 Q394 152 394 218 L394 495 L492 495 L492 0 Z " />
<glyph glyph-name="uring" unicode="&#x16f;" horiz-adv-x="557" d="M492 0 L411 0 L396 63 Q339 -14 239 -14 Q157 -14 111 34.5 Q65 83 65 183 L65 495 L163 495 L163 200 Q163 133 191 105 Q219 77 269 77 Q322 77 358 114.5 Q394 152 394 218 L394 495 L492 495 L492 0 Z M279 544 Q242 544 215 571 Q188 598 188 636 Q188 674 215 701 Q242 728 279 728 Q317 728 344 701 Q371 674 371 636 Q371 599 344 571.5 Q317 544 279 544 Z M279 602 Q293 602 303 612 Q313 622 313 636 Q313 650 303 660 Q293 670 279 670 Q265 670 255 660 Q245 650 245 636 Q245 622 255 612 Q265 602 279 602 Z " />
<glyph glyph-name="utilde" unicode="&#x169;" horiz-adv-x="557" d="M492 0 L411 0 L396 63 Q339 -14 239 -14 Q157 -14 111 34.5 Q65 83 65 183 L65 495 L163 495 L163 200 Q163 133 191 105 Q219 77 269 77 Q322 77 358 114.5 Q394 152 394 218 L394 495 L492 495 L492 0 Z M338 576 Q318 576 303 581 Q288 586 267 596 Q239 611 222 611 Q209 611 196.5 602 Q184 593 174 574 L119 611 Q147 686 215 686 Q235 686 249.5 681.5 Q264 677 284 667 Q301 659 311 655 Q321 651 334 651 Q361 651 381 690 L438 652 Q424 614 397.5 595 Q371 576 338 576 Z " />
<glyph glyph-name="v" unicode="v" horiz-adv-x="513" d="M497 495 L309 0 L205 0 L16 495 L117 495 L257 111 L397 495 L497 495 Z " />
<glyph glyph-name="w" unicode="w" horiz-adv-x="759" d="M743 495 L590 0 L489 0 L380 373 L270 0 L169 0 L16 495 L115 495 L222 117 L331 495 L427 495 L537 118 L644 495 L743 495 Z " />
<glyph glyph-name="wacute" unicode="&#x1e83;" horiz-adv-x="759" d="M743 495 L590 0 L489 0 L380 373 L270 0 L169 0 L16 495 L115 495 L222 117 L331 495 L427 495 L537 118 L644 495 L743 495 Z M399 695 L526 695 L419 569 L332 569 L399 695 Z " />
<glyph glyph-name="wcircumflex" unicode="&#x175;" horiz-adv-x="759" d="M743 495 L590 0 L489 0 L380 373 L270 0 L169 0 L16 495 L115 495 L222 117 L331 495 L427 495 L537 118 L644 495 L743 495 Z M435 569 L379 632 L323 569 L237 569 L327 695 L430 695 L520 569 L435 569 Z " />
<glyph glyph-name="wdieresis" unicode="&#x1e85;" horiz-adv-x="759" d="M743 495 L590 0 L489 0 L380 373 L270 0 L169 0 L16 495 L115 495 L222 117 L331 495 L427 495 L537 118 L644 495 L743 495 Z M295 568 Q269 568 250 587 Q231 606 231 632 Q231 658 250 677 Q269 696 295 696 Q321 696 340 677 Q359 658 359 632 Q359 606 340 587 Q321 568 295 568 Z M463 568 Q437 568 418 587 Q399 606 399 632 Q399 658 418 677 Q437 696 463 696 Q489 696 508 677 Q527 658 527 632 Q527 606 508 587 Q489 568 463 568 Z " />
<glyph glyph-name="wgrave" unicode="&#x1e81;" horiz-adv-x="759" d="M743 495 L590 0 L489 0 L380 373 L270 0 L169 0 L16 495 L115 495 L222 117 L331 495 L427 495 L537 118 L644 495 L743 495 Z M232 695 L359 695 L426 569 L339 569 L232 695 Z " />
<glyph glyph-name="x" unicode="x" horiz-adv-x="504" d="M379 0 L252 178 L124 0 L16 0 L196 249 L20 495 L129 495 L252 321 L375 495 L483 495 L308 250 L488 0 L379 0 Z " />
<glyph glyph-name="uni1E8B" unicode="&#x1e8b;" horiz-adv-x="504" d="M379 0 L252 178 L124 0 L16 0 L196 249 L20 495 L129 495 L252 321 L375 495 L483 495 L308 250 L488 0 L379 0 Z M253 568 Q226 568 207 586.5 Q188 605 188 632 Q188 658 207 677 Q226 696 253 696 Q279 696 297.5 677 Q316 658 316 632 Q316 605 297.5 586.5 Q279 568 253 568 Z " />
<glyph glyph-name="y" unicode="y" horiz-adv-x="569" d="M504 495 L504 9 Q504 -55 479 -106.5 Q454 -158 403.5 -188 Q353 -218 278 -218 Q191 -218 138 -175.5 Q85 -133 65 -60 L157 -40 Q179 -133 278 -133 Q341 -133 373.5 -96 Q406 -59 406 7 L406 75 Q376 38 339 19.5 Q302 1 246 1 Q167 1 117 49.5 Q67 98 67 196 L67 495 L165 495 L165 218 Q165 150 194 121 Q223 92 276 92 Q333 92 369.5 129.5 Q406 167 406 234 L406 495 L504 495 Z " />
<glyph glyph-name="yacute" unicode="&#xfd;" horiz-adv-x="569" d="M504 495 L504 9 Q504 -55 479 -106.5 Q454 -158 403.5 -188 Q353 -218 278 -218 Q191 -218 138 -175.5 Q85 -133 65 -60 L157 -40 Q179 -133 278 -133 Q341 -133 373.5 -96 Q406 -59 406 7 L406 75 Q376 38 339 19.5 Q302 1 246 1 Q167 1 117 49.5 Q67 98 67 196 L67 495 L165 495 L165 218 Q165 150 194 121 Q223 92 276 92 Q333 92 369.5 129.5 Q406 167 406 234 L406 495 L504 495 Z M305 695 L432 695 L325 569 L238 569 L305 695 Z " />
<glyph glyph-name="ycircumflex" unicode="&#x177;" horiz-adv-x="569" d="M504 495 L504 9 Q504 -55 479 -106.5 Q454 -158 403.5 -188 Q353 -218 278 -218 Q191 -218 138 -175.5 Q85 -133 65 -60 L157 -40 Q179 -133 278 -133 Q341 -133 373.5 -96 Q406 -59 406 7 L406 75 Q376 38 339 19.5 Q302 1 246 1 Q167 1 117 49.5 Q67 98 67 196 L67 495 L165 495 L165 218 Q165 150 194 121 Q223 92 276 92 Q333 92 369.5 129.5 Q406 167 406 234 L406 495 L504 495 Z M341 569 L285 632 L229 569 L143 569 L233 695 L336 695 L426 569 L341 569 Z " />
<glyph glyph-name="ydieresis" unicode="&#xff;" horiz-adv-x="569" d="M504 495 L504 9 Q504 -55 479 -106.5 Q454 -158 403.5 -188 Q353 -218 278 -218 Q191 -218 138 -175.5 Q85 -133 65 -60 L157 -40 Q179 -133 278 -133 Q341 -133 373.5 -96 Q406 -59 406 7 L406 75 Q376 38 339 19.5 Q302 1 246 1 Q167 1 117 49.5 Q67 98 67 196 L67 495 L165 495 L165 218 Q165 150 194 121 Q223 92 276 92 Q333 92 369.5 129.5 Q406 167 406 234 L406 495 L504 495 Z M201 568 Q175 568 156 587 Q137 606 137 632 Q137 658 156 677 Q175 696 201 696 Q227 696 246 677 Q265 658 265 632 Q265 606 246 587 Q227 568 201 568 Z M369 568 Q343 568 324 587 Q305 606 305 632 Q305 658 324 677 Q343 696 369 696 Q395 696 414 677 Q433 658 433 632 Q433 606 414 587 Q395 568 369 568 Z " />
<glyph glyph-name="ygrave" unicode="&#x1ef3;" horiz-adv-x="569" d="M504 495 L504 9 Q504 -55 479 -106.5 Q454 -158 403.5 -188 Q353 -218 278 -218 Q191 -218 138 -175.5 Q85 -133 65 -60 L157 -40 Q179 -133 278 -133 Q341 -133 373.5 -96 Q406 -59 406 7 L406 75 Q376 38 339 19.5 Q302 1 246 1 Q167 1 117 49.5 Q67 98 67 196 L67 495 L165 495 L165 218 Q165 150 194 121 Q223 92 276 92 Q333 92 369.5 129.5 Q406 167 406 234 L406 495 L504 495 Z M138 695 L265 695 L332 569 L245 569 L138 695 Z " />
<glyph glyph-name="z" unicode="z" horiz-adv-x="469" d="M41 77 L305 411 L49 411 L49 495 L425 495 L425 418 L160 83 L428 83 L427 0 L41 0 L41 77 Z " />
<glyph glyph-name="zacute" unicode="&#x17a;" horiz-adv-x="469" d="M41 77 L305 411 L49 411 L49 495 L425 495 L425 418 L160 83 L428 83 L427 0 L41 0 L41 77 Z M255 695 L382 695 L275 569 L188 569 L255 695 Z " />
<glyph glyph-name="zcaron" unicode="&#x17e;" horiz-adv-x="469" d="M41 77 L305 411 L49 411 L49 495 L425 495 L425 418 L160 83 L428 83 L427 0 L41 0 L41 77 Z M376 695 L286 569 L183 569 L93 695 L179 695 L235 632 L291 695 L376 695 Z " />
<glyph glyph-name="zdotaccent" unicode="&#x17c;" horiz-adv-x="469" d="M41 77 L305 411 L49 411 L49 495 L425 495 L425 418 L160 83 L428 83 L427 0 L41 0 L41 77 Z M236 568 Q209 568 190 586.5 Q171 605 171 632 Q171 658 190 677 Q209 696 236 696 Q262 696 280.5 677 Q299 658 299 632 Q299 605 280.5 586.5 Q262 568 236 568 Z " />
<glyph glyph-name="uni01B6" unicode="&#x1b6;" horiz-adv-x="469" d="M428 83 L427 0 L41 0 L41 77 L149 214 L70 214 L70 282 L203 282 L305 411 L49 411 L49 495 L425 495 L425 418 L317 282 L395 282 L395 214 L264 214 L160 83 L428 83 Z " />
<glyph glyph-name="fi" unicode="&#xfb01;" horiz-adv-x="600" d="M107 407 L20 407 L20 495 L107 495 L107 577 Q107 640 144 677.5 Q181 715 239 715 Q287 715 314.5 701.5 Q342 688 354 674 L306 607 Q301 613 288.5 619.5 Q276 626 258 626 Q205 626 205 566 L205 495 L340 495 L340 407 L205 407 L205 0 L107 0 L107 407 Z M432 495 L530 495 L530 0 L432 0 L432 495 Z M482 568 Q455 568 436 586.5 Q417 605 417 632 Q417 658 436 677 Q455 696 482 696 Q508 696 526.5 677 Q545 658 545 632 Q545 605 526.5 586.5 Q508 568 482 568 Z " />
<glyph glyph-name="fl" unicode="&#xfb02;" horiz-adv-x="590" d="M107 407 L20 407 L20 495 L107 495 L107 577 Q107 640 144 677.5 Q181 715 239 715 Q287 715 314.5 701.5 Q342 688 354 674 L306 607 Q301 613 288.5 619.5 Q276 626 258 626 Q205 626 205 566 L205 495 L340 495 L340 407 L205 407 L205 0 L107 0 L107 407 Z M427 700 L525 700 L525 0 L427 0 L427 700 Z " />
<glyph glyph-name="ordfeminine" unicode="&#xaa;" horiz-adv-x="342" d="M145 377 Q93 377 59.5 406.5 Q26 436 26 484 Q26 526 56.5 554.5 Q87 583 162 594 L240 606 L240 614 Q240 680 171 680 Q108 680 98 621 L32 637 Q44 689 78.5 715 Q113 741 173 741 Q235 741 275 709 Q315 677 315 614 L316 387 L252 387 L244 419 Q212 377 145 377 Z M164 439 Q197 439 218.5 457 Q240 475 240 509 L240 553 L167 543 Q132 538 115.5 525 Q99 512 99 488 Q99 466 116.5 452.5 Q134 439 164 439 Z " />
<glyph glyph-name="ordmasculine" unicode="&#xba;" horiz-adv-x="416" d="M208 381 Q155 381 114.5 406 Q74 431 52 473 Q30 515 30 563 Q30 611 52.5 653 Q75 695 115.5 720 Q156 745 208 745 Q261 745 301.5 720 Q342 695 364 653 Q386 611 386 563 Q386 515 364 473 Q342 431 301.5 406 Q261 381 208 381 Z M208 443 Q256 443 287.5 477 Q319 511 319 563 Q319 615 287.5 649.5 Q256 684 208 684 Q159 684 128 650 Q97 616 97 563 Q97 511 128 477 Q159 443 208 443 Z " />
<glyph glyph-name="uni0394" unicode="&#x394;" horiz-adv-x="668" d="M281 700 L388 700 L646 0 L22 0 L281 700 Z M511 90 L335 573 L157 90 L511 90 Z " />
<glyph glyph-name="uni03A9" unicode="&#x3a9;" horiz-adv-x="820" d="M765 353 Q765 272 731 203 Q697 134 638 88 L765 88 L765 0 L480 0 L480 88 Q566 110 615.5 181 Q665 252 665 351 Q665 428 633 490 Q601 552 543 587.5 Q485 623 411 623 Q336 623 277.5 587.5 Q219 552 187 490 Q155 428 155 351 Q155 252 204 181.5 Q253 111 339 88 L339 0 L55 0 L55 88 L178 88 Q122 131 88.5 197.5 Q55 264 55 353 Q55 454 100 536.5 Q145 619 226 667 Q307 715 411 715 Q513 715 594 667 Q675 619 720 536 Q765 453 765 353 Z " />
<glyph glyph-name="uni03BC" unicode="&#x3bc;" horiz-adv-x="557" d="M492 495 L492 0 L411 0 L396 63 Q339 -14 239 -14 Q195 -14 163 -1 L163 -205 L65 -205 L65 495 L163 495 L163 200 Q163 133 191 105 Q219 77 269 77 Q322 77 358 114.5 Q394 152 394 218 L394 495 L492 495 Z " />
<glyph glyph-name="pi" unicode="&#x3c0;" horiz-adv-x="642" d="M621 25 Q608 10 580.5 -2 Q553 -14 510 -14 Q454 -14 417.5 22.5 Q381 59 380 123 L380 410 L219 410 L219 0 L121 0 L121 410 L20 410 L20 495 L608 495 L608 410 L478 410 L478 133 Q478 75 529 75 Q544 75 557 80.5 Q570 86 576 92 L621 25 Z " />
<glyph glyph-name="zero" unicode="0" horiz-adv-x="603" d="M303 -14 Q174 -14 109 88 Q44 190 44 353 Q44 456 72 537.5 Q100 619 158 666.5 Q216 714 302 714 Q387 714 445 666.5 Q503 619 531 537.5 Q559 456 559 353 Q559 248 531.5 165.5 Q504 83 446.5 34.5 Q389 -14 303 -14 Z M303 78 Q382 78 420.5 153 Q459 228 459 350 Q459 470 419.5 546 Q380 622 302 622 Q222 622 182.5 546 Q143 470 143 350 Q143 229 182.5 153.5 Q222 78 303 78 Z " />
<glyph glyph-name="one" unicode="1" horiz-adv-x="355" d="M167 590 Q140 573 98 558.5 Q56 544 22 539 L22 637 Q55 643 95 660.5 Q135 678 167 700 L267 700 L267 0 L167 0 L167 590 Z " />
<glyph glyph-name="two" unicode="2" horiz-adv-x="560" d="M57 93 L291 299 Q335 337 359 363 Q383 389 399 422 Q415 455 415 495 Q415 549 377.5 585.5 Q340 622 281 622 Q219 622 178 581 Q137 540 137 473 L44 500 Q47 564 79.5 612.5 Q112 661 165 687.5 Q218 714 281 714 Q347 714 400.5 686 Q454 658 484.5 608 Q515 558 515 496 Q515 440 495 395 Q475 350 443.5 315 Q412 280 361 236 L198 92 L516 92 L516 0 L57 0 L57 93 Z " />
<glyph glyph-name="three" unicode="3" horiz-adv-x="580" d="M286 -14 Q217 -14 162.5 13.5 Q108 41 77 88 Q46 135 44 190 L136 217 Q139 158 181.5 118 Q224 78 286 78 Q352 78 394 118.5 Q436 159 436 220 Q436 283 395.5 323 Q355 363 286 363 Q259 363 235 355 L184 417 L371 608 L66 608 L66 700 L490 700 L490 608 L332 443 Q423 438 479.5 378.5 Q536 319 536 220 Q536 154 504 100.5 Q472 47 415 16.5 Q358 -14 286 -14 Z " />
<glyph glyph-name="four" unicode="4" horiz-adv-x="565" d="M345 183 L29 183 L29 259 L340 700 L445 700 L445 269 L536 269 L536 183 L445 183 L445 0 L345 0 L345 183 Z M345 269 L345 560 L137 268 L345 269 Z " />
<glyph glyph-name="five" unicode="5" horiz-adv-x="580" d="M288 -14 Q222 -14 167 13 Q112 40 80 84.5 Q48 129 44 180 L137 208 Q142 150 184.5 114 Q227 78 288 78 Q354 78 395.5 119 Q437 160 437 224 Q437 287 395 328 Q353 369 288 369 Q248 369 214.5 353.5 Q181 338 164 316 L75 347 L113 700 L490 700 L490 608 L197 608 L177 422 Q195 435 226.5 445.5 Q258 456 294 456 Q365 456 420 427 Q475 398 505.5 345 Q536 292 536 224 Q536 154 503.5 100 Q471 46 414 16 Q357 -14 288 -14 Z " />
<glyph glyph-name="six" unicode="6" horiz-adv-x="585" d="M296 -14 Q172 -14 108 70.5 Q44 155 44 312 Q44 506 104 610 Q164 714 303 714 Q392 714 446.5 667.5 Q501 621 522 542 L434 515 Q403 622 303 622 Q221 622 187 561.5 Q153 501 149 389 Q169 414 210 435 Q251 456 305 456 Q372 456 425.5 427 Q479 398 510 345 Q541 292 541 222 Q541 153 509 99 Q477 45 421.5 15.5 Q366 -14 296 -14 Z M296 78 Q361 78 401 118.5 Q441 159 441 223 Q441 287 401 326.5 Q361 366 296 366 Q233 366 192.5 326 Q152 286 152 223 Q152 183 170 150 Q188 117 221 97.5 Q254 78 296 78 Z " />
<glyph glyph-name="seven" unicode="7" horiz-adv-x="513" d="M144 0 Q170 141 238 318.5 Q306 496 372 608 L29 608 L29 700 L484 700 L484 608 Q413 497 341.5 319.5 Q270 142 244 0 L144 0 Z " />
<glyph glyph-name="eight" unicode="8" horiz-adv-x="573" d="M432 378 Q478 351 503.5 305.5 Q529 260 529 204 Q529 140 497.5 90 Q466 40 411 12.5 Q356 -15 287 -15 Q217 -15 161.5 12.5 Q106 40 75 90 Q44 140 44 204 Q44 260 69.5 305 Q95 350 142 378 Q109 403 91 439.5 Q73 476 73 519 Q73 575 100.5 619.5 Q128 664 177 688.5 Q226 713 287 713 Q347 713 396 688 Q445 663 473 619 Q501 575 501 519 Q501 476 483 439.5 Q465 403 432 378 Z M171 521 Q171 473 204 444.5 Q237 416 287 416 Q336 416 369.5 444.5 Q403 473 403 521 Q403 569 369.5 598 Q336 627 287 627 Q237 627 204 598 Q171 569 171 521 Z M287 75 Q347 75 388 110.5 Q429 146 429 204 Q429 264 388 299 Q347 334 287 334 Q227 334 185.5 298.5 Q144 263 144 204 Q144 146 186 110.5 Q228 75 287 75 Z " />
<glyph glyph-name="nine" unicode="9" horiz-adv-x="585" d="M289 714 Q413 714 477 629.5 Q541 545 541 388 Q541 194 481 90 Q421 -14 282 -14 Q193 -14 138.5 32.5 Q84 79 63 158 L151 185 Q182 78 282 78 Q364 78 398 138.5 Q432 199 436 311 Q416 286 375 265 Q334 244 280 244 Q213 244 159.5 273 Q106 302 75 355 Q44 408 44 478 Q44 547 76 601 Q108 655 163.5 684.5 Q219 714 289 714 Z M289 622 Q225 622 184.5 582 Q144 542 144 477 Q144 413 184 373.5 Q224 334 289 334 Q352 334 392.5 374 Q433 414 433 477 Q433 517 415 550 Q397 583 364 602.5 Q331 622 289 622 Z " />
<glyph glyph-name="uni2080" unicode="&#x2080;" horiz-adv-x="336" d="M169 -82 Q103 -82 69.5 -32 Q36 18 36 100 Q36 180 70 231 Q104 282 168 282 Q233 282 266.5 231.5 Q300 181 300 100 Q300 19 266.5 -31.5 Q233 -82 169 -82 Z M169 -19 Q200 -19 215 12.5 Q230 44 230 100 Q230 154 214.5 185.5 Q199 217 168 217 Q136 217 120.5 186 Q105 155 105 100 Q105 44 120.5 12.5 Q136 -19 169 -19 Z " />
<glyph glyph-name="uni2081" unicode="&#x2081;" horiz-adv-x="209" d="M87 198 Q74 190 53.5 183 Q33 176 18 174 L18 242 Q32 245 53.5 255 Q75 265 87 275 L155 275 L155 -75 L87 -75 L87 198 Z " />
<glyph glyph-name="uni2082" unicode="&#x2082;" horiz-adv-x="315" d="M43 -10 L162 92 Q188 116 198.5 132 Q209 148 209 169 Q209 189 194.5 203.5 Q180 218 157 218 Q131 218 115 201 Q99 184 100 155 L36 173 Q38 222 72.5 252 Q107 282 157 282 Q208 282 243.5 250 Q279 218 279 170 Q279 133 262 105.5 Q245 78 211 48 L142 -10 L279 -10 L279 -75 L43 -75 L43 -10 Z " />
<glyph glyph-name="uni2083" unicode="&#x2083;" horiz-adv-x="325" d="M160 -82 Q106 -82 71.5 -51.5 Q37 -21 36 23 L100 41 Q101 16 117.5 -0.5 Q134 -17 160 -17 Q186 -17 203 -1.5 Q220 14 220 39 Q220 64 203.5 80 Q187 96 160 96 Q150 96 139 93 L104 134 L185 211 L49 211 L49 275 L266 275 L266 211 L204 149 Q240 143 264.5 115 Q289 87 289 39 Q289 -14 252.5 -48 Q216 -82 160 -82 Z " />
<glyph glyph-name="uni2084" unicode="&#x2084;" horiz-adv-x="309" d="M180 12 L24 12 L24 62 L174 275 L248 275 L248 70 L285 70 L285 12 L248 12 L248 -75 L179 -75 L180 12 Z M180 70 L179 181 L99 70 L180 70 Z " />
<glyph glyph-name="uni2085" unicode="&#x2085;" horiz-adv-x="322" d="M159 -82 Q108 -82 72.5 -52.5 Q37 -23 36 18 L101 38 Q102 13 118 -2 Q134 -17 159 -17 Q184 -17 200.5 -1 Q217 15 217 40 Q217 64 200 79.5 Q183 95 159 95 Q142 95 129 88.5 Q116 82 110 74 L49 96 L67 275 L266 275 L266 210 L126 210 L120 146 Q126 150 138.5 153 Q151 156 165 156 Q219 156 252.5 124.5 Q286 93 286 40 Q286 -15 250.5 -48.5 Q215 -82 159 -82 Z " />
<glyph glyph-name="uni2086" unicode="&#x2086;" horiz-adv-x="329" d="M167 -82 Q101 -82 68.5 -38 Q36 6 36 86 Q36 181 67.5 231.5 Q99 282 170 282 Q217 282 246 258 Q275 234 284 193 L224 175 Q217 197 204.5 207.5 Q192 218 170 218 Q139 218 125 196 Q111 174 109 133 Q115 141 132 149 Q149 157 175 157 Q226 157 259.5 124.5 Q293 92 293 39 Q293 -15 257 -48.5 Q221 -82 167 -82 Z M167 -18 Q192 -18 208 -2 Q224 14 224 39 Q224 64 208 79.5 Q192 95 167 95 Q141 95 125 79.5 Q109 64 109 39 Q109 15 125.5 -1.5 Q142 -18 167 -18 Z " />
<glyph glyph-name="uni2087" unicode="&#x2087;" horiz-adv-x="278" d="M80 -75 Q90 -7 119 76.5 Q148 160 178 211 L24 211 L24 275 L255 275 L255 211 Q221 159 190 75.5 Q159 -8 149 -75 L80 -75 Z " />
<glyph glyph-name="uni2088" unicode="&#x2088;" horiz-adv-x="323" d="M246 113 Q265 98 276 77 Q287 56 287 30 Q287 -19 251 -50.5 Q215 -82 162 -82 Q108 -82 72 -50.5 Q36 -19 36 30 Q36 56 47 77 Q58 98 78 113 Q49 140 49 181 Q49 225 81.5 253.5 Q114 282 162 282 Q210 282 242.5 253.5 Q275 225 275 181 Q275 140 246 113 Z M116 181 Q116 162 129.5 150.5 Q143 139 162 139 Q181 139 194.5 150.5 Q208 162 208 181 Q208 200 194.5 211.5 Q181 223 162 223 Q143 223 129.5 211.5 Q116 200 116 181 Z M162 -20 Q186 -20 202.5 -6 Q219 8 219 31 Q219 54 202.5 68.5 Q186 83 162 83 Q138 83 121.5 68.5 Q105 54 105 31 Q105 8 121.5 -6 Q138 -20 162 -20 Z " />
<glyph glyph-name="uni2089" unicode="&#x2089;" horiz-adv-x="328" d="M159 -82 Q112 -82 83 -58 Q54 -34 45 7 L105 25 Q112 3 124.5 -7.5 Q137 -18 159 -18 Q217 -18 220 68 Q214 60 197 51.5 Q180 43 154 43 Q103 43 69.5 75.5 Q36 108 36 162 Q36 216 72 249 Q108 282 162 282 Q228 282 260 238 Q292 194 292 114 Q292 19 261 -31.5 Q230 -82 159 -82 Z M162 105 Q187 105 203.5 121 Q220 137 220 161 Q220 185 203.5 201.5 Q187 218 162 218 Q137 218 121 202 Q105 186 105 161 Q105 136 121 120.5 Q137 105 162 105 Z " />
<glyph glyph-name="uni2070" unicode="&#x2070;" horiz-adv-x="336" d="M169 429 Q103 429 69.5 479 Q36 529 36 611 Q36 691 70 742 Q104 793 168 793 Q233 793 266.5 742.5 Q300 692 300 611 Q300 530 266.5 479.5 Q233 429 169 429 Z M169 492 Q200 492 215 523.5 Q230 555 230 611 Q230 665 214.5 696.5 Q199 728 168 728 Q136 728 120.5 697 Q105 666 105 611 Q105 555 120.5 523.5 Q136 492 169 492 Z " />
<glyph glyph-name="uni00B9" unicode="&#xb9;" horiz-adv-x="209" d="M87 709 Q74 701 53.5 694 Q33 687 18 685 L18 753 Q32 756 53.5 766 Q75 776 87 786 L155 786 L155 436 L87 436 L87 709 Z " />
<glyph glyph-name="uni00B2" unicode="&#xb2;" horiz-adv-x="315" d="M43 501 L162 603 Q188 627 198.5 643 Q209 659 209 680 Q209 700 194.5 714.5 Q180 729 157 729 Q131 729 115 712 Q99 695 100 666 L36 684 Q38 733 72.5 763 Q107 793 157 793 Q208 793 243.5 761 Q279 729 279 681 Q279 644 262 616.5 Q245 589 211 559 L142 501 L279 501 L279 436 L43 436 L43 501 Z " />
<glyph glyph-name="uni00B3" unicode="&#xb3;" horiz-adv-x="325" d="M160 429 Q106 429 71.5 459.5 Q37 490 36 534 L100 552 Q101 527 117.5 510.5 Q134 494 160 494 Q186 494 203 509.5 Q220 525 220 550 Q220 575 203.5 591 Q187 607 160 607 Q150 607 139 604 L104 645 L185 722 L49 722 L49 786 L266 786 L266 722 L204 660 Q240 654 264.5 626 Q289 598 289 550 Q289 497 252.5 463 Q216 429 160 429 Z " />
<glyph glyph-name="uni2074" unicode="&#x2074;" horiz-adv-x="309" d="M180 523 L24 523 L24 573 L174 786 L248 786 L248 581 L285 581 L285 523 L248 523 L248 436 L179 436 L180 523 Z M180 581 L179 692 L99 581 L180 581 Z " />
<glyph glyph-name="uni2075" unicode="&#x2075;" horiz-adv-x="322" d="M159 429 Q108 429 72.5 458.5 Q37 488 36 529 L101 549 Q102 524 118 509 Q134 494 159 494 Q184 494 200.5 510 Q217 526 217 551 Q217 575 200 590.5 Q183 606 159 606 Q142 606 129 599.5 Q116 593 110 585 L49 607 L67 786 L266 786 L266 721 L126 721 L120 657 Q126 661 138.5 664 Q151 667 165 667 Q219 667 252.5 635.5 Q286 604 286 551 Q286 496 250.5 462.5 Q215 429 159 429 Z " />
<glyph glyph-name="uni2076" unicode="&#x2076;" horiz-adv-x="329" d="M167 429 Q101 429 68.5 473 Q36 517 36 597 Q36 692 67.5 742.5 Q99 793 170 793 Q217 793 246 769 Q275 745 284 704 L224 686 Q217 708 204.5 718.5 Q192 729 170 729 Q139 729 125 707 Q111 685 109 644 Q115 652 132 660 Q149 668 175 668 Q226 668 259.5 635.5 Q293 603 293 550 Q293 496 257 462.5 Q221 429 167 429 Z M167 493 Q192 493 208 509 Q224 525 224 550 Q224 575 208 590.5 Q192 606 167 606 Q141 606 125 590.5 Q109 575 109 550 Q109 526 125.5 509.5 Q142 493 167 493 Z " />
<glyph glyph-name="uni2077" unicode="&#x2077;" horiz-adv-x="278" d="M80 436 Q90 504 119 587.5 Q148 671 178 722 L24 722 L24 786 L255 786 L255 722 Q221 670 190 586.5 Q159 503 149 436 L80 436 Z " />
<glyph glyph-name="uni2078" unicode="&#x2078;" horiz-adv-x="323" d="M246 624 Q265 609 276 588 Q287 567 287 541 Q287 492 251 460.5 Q215 429 162 429 Q108 429 72 460.5 Q36 492 36 541 Q36 567 47 588 Q58 609 78 624 Q49 651 49 692 Q49 736 81.5 764.5 Q114 793 162 793 Q210 793 242.5 764.5 Q275 736 275 692 Q275 651 246 624 Z M116 692 Q116 673 129.5 661.5 Q143 650 162 650 Q181 650 194.5 661.5 Q208 673 208 692 Q208 711 194.5 722.5 Q181 734 162 734 Q143 734 129.5 722.5 Q116 711 116 692 Z M162 491 Q186 491 202.5 505 Q219 519 219 542 Q219 565 202.5 579.5 Q186 594 162 594 Q138 594 121.5 579.5 Q105 565 105 542 Q105 519 121.5 505 Q138 491 162 491 Z " />
<glyph glyph-name="uni2079" unicode="&#x2079;" horiz-adv-x="328" d="M159 429 Q112 429 83 453 Q54 477 45 518 L105 536 Q112 514 124.5 503.5 Q137 493 159 493 Q217 493 220 579 Q214 571 197 562.5 Q180 554 154 554 Q103 554 69.5 586.5 Q36 619 36 673 Q36 727 72 760 Q108 793 162 793 Q228 793 260 749 Q292 705 292 625 Q292 530 261 479.5 Q230 429 159 429 Z M162 616 Q187 616 203.5 632 Q220 648 220 672 Q220 696 203.5 712.5 Q187 729 162 729 Q137 729 121 713 Q105 697 105 672 Q105 647 121 631.5 Q137 616 162 616 Z " />
<glyph glyph-name="fraction" unicode="&#x2044;" horiz-adv-x="217" d="M-200 37 L363 707 L417 664 L-146 -7 L-200 37 Z " />
<glyph glyph-name="uni215F" unicode="&#x215f;" horiz-adv-x="506" d="M134 623 Q121 615 100.5 608 Q80 601 65 599 L65 667 Q79 670 100.5 680 Q122 690 134 700 L202 700 L202 350 L134 350 L134 623 Z M90 37 L653 707 L707 664 L144 -7 L90 37 Z " />
<glyph glyph-name="onehalf" unicode="&#xbd;" horiz-adv-x="813" d="M134 623 Q121 615 100.5 608 Q80 601 65 599 L65 667 Q79 670 100.5 680 Q122 690 134 700 L202 700 L202 350 L134 350 L134 623 Z M80 37 L643 707 L697 664 L134 -7 L80 37 Z M513 65 L632 167 Q658 191 668.5 207 Q679 223 679 244 Q679 264 664.5 278.5 Q650 293 627 293 Q601 293 585 276 Q569 259 570 230 L506 248 Q508 297 542.5 327 Q577 357 627 357 Q678 357 713.5 325 Q749 293 749 245 Q749 208 732 180.5 Q715 153 681 123 L612 65 L749 65 L749 0 L513 0 L513 65 Z " />
<glyph glyph-name="uni2153" unicode="&#x2153;" horiz-adv-x="842" d="M134 623 Q121 615 100.5 608 Q80 601 65 599 L65 667 Q79 670 100.5 680 Q122 690 134 700 L202 700 L202 350 L134 350 L134 623 Z M91 37 L654 707 L708 664 L145 -7 L91 37 Z M648 -7 Q594 -7 559.5 23.5 Q525 54 524 98 L588 116 Q589 91 605.5 74.5 Q622 58 648 58 Q674 58 691 73.5 Q708 89 708 114 Q708 139 691.5 155 Q675 171 648 171 Q638 171 627 168 L592 209 L673 286 L537 286 L537 350 L754 350 L754 286 L692 224 Q728 218 752.5 190 Q777 162 777 114 Q777 61 740.5 27 Q704 -7 648 -7 Z " />
<glyph glyph-name="uni2154" unicode="&#x2154;" horiz-adv-x="879" d="M72 415 L191 517 Q217 541 227.5 557 Q238 573 238 594 Q238 614 223.5 628.5 Q209 643 186 643 Q160 643 144 626 Q128 609 129 580 L65 598 Q67 647 101.5 677 Q136 707 186 707 Q237 707 272.5 675 Q308 643 308 595 Q308 558 291 530.5 Q274 503 240 473 L171 415 L308 415 L308 350 L72 350 L72 415 Z M135 37 L698 707 L752 664 L189 -7 L135 37 Z M685 -7 Q631 -7 596.5 23.5 Q562 54 561 98 L625 116 Q626 91 642.5 74.5 Q659 58 685 58 Q711 58 728 73.5 Q745 89 745 114 Q745 139 728.5 155 Q712 171 685 171 Q675 171 664 168 L629 209 L710 286 L574 286 L574 350 L791 350 L791 286 L729 224 Q765 218 789.5 190 Q814 162 814 114 Q814 61 777.5 27 Q741 -7 685 -7 Z " />
<glyph glyph-name="onequarter" unicode="&#xbc;" horiz-adv-x="784" d="M134 623 Q121 615 100.5 608 Q80 601 65 599 L65 667 Q79 670 100.5 680 Q122 690 134 700 L202 700 L202 350 L134 350 L134 623 Z M92 37 L655 707 L709 664 L146 -7 L92 37 Z M613 87 L457 87 L457 137 L607 350 L681 350 L681 145 L718 145 L718 87 L681 87 L681 0 L612 0 L613 87 Z M613 145 L612 256 L532 145 L613 145 Z " />
<glyph glyph-name="threequarters" unicode="&#xbe;" horiz-adv-x="818" d="M189 343 Q135 343 100.5 373.5 Q66 404 65 448 L129 466 Q130 441 146.5 424.5 Q163 408 189 408 Q215 408 232 423.5 Q249 439 249 464 Q249 489 232.5 505 Q216 521 189 521 Q179 521 168 518 L133 559 L214 636 L78 636 L78 700 L295 700 L295 636 L233 574 Q269 568 293.5 540 Q318 512 318 464 Q318 411 281.5 377 Q245 343 189 343 Z M125 37 L688 707 L742 664 L179 -7 L125 37 Z M647 87 L491 87 L491 137 L641 350 L715 350 L715 145 L752 145 L752 87 L715 87 L715 0 L646 0 L647 87 Z M647 145 L646 256 L566 145 L647 145 Z " />
<glyph glyph-name="asterisk" unicode="&#x2a;" horiz-adv-x="436" d="M277 538 L354 433 L294 389 L218 493 L141 389 L81 433 L158 538 L36 577 L58 647 L181 607 L181 736 L254 736 L254 608 L376 647 L400 577 L277 538 Z " />
<glyph glyph-name="backslash" unicode="&#x5c;" horiz-adv-x="420" d="M289 0 L21 700 L121 700 L389 0 L289 0 Z " />
<glyph glyph-name="middot" unicode="&#xb7;" horiz-adv-x="196" d="M98 233 Q70 233 50.5 252.5 Q31 272 31 300 Q31 328 50.5 347.5 Q70 367 98 367 Q126 367 145.5 347.5 Q165 328 165 300 Q165 272 145.5 252.5 Q126 233 98 233 Z " />
<glyph glyph-name="bullet" unicode="&#x2022;" horiz-adv-x="252" d="M127 205 Q86 205 58.5 232.5 Q31 260 31 300 Q31 339 59 367 Q87 395 127 395 Q165 395 193 367 Q221 339 221 300 Q221 260 193.5 232.5 Q166 205 127 205 Z " />
<glyph glyph-name="colon" unicode="&#x3a;" horiz-adv-x="196" d="M98 294 Q70 294 50.5 313.5 Q31 333 31 362 Q31 389 50.5 408.5 Q70 428 98 428 Q126 428 145.5 408.5 Q165 389 165 362 Q165 334 145.5 314 Q126 294 98 294 Z M98 -7 Q70 -7 50.5 12.5 Q31 32 31 60 Q31 88 50.5 107.5 Q70 127 98 127 Q126 127 145.5 107.5 Q165 88 165 60 Q165 32 145.5 12.5 Q126 -7 98 -7 Z " />
<glyph glyph-name="comma" unicode="&#x2c;" horiz-adv-x="196" d="M40 -97 Q56 -77 67.5 -51 Q79 -25 80 -4 Q57 4 44 20 Q31 36 31 59 Q31 88 50.5 107.5 Q70 127 97 127 Q126 127 145.5 107.5 Q165 88 165 51 Q165 9 143 -43.5 Q121 -96 82 -132 L40 -97 Z " />
<glyph glyph-name="ellipsis" unicode="&#x2026;" horiz-adv-x="628" d="M98 -7 Q70 -7 50.5 13 Q31 33 31 60 Q31 88 50.5 107.5 Q70 127 98 127 Q126 127 145.5 107.5 Q165 88 165 60 Q165 33 145.5 13 Q126 -7 98 -7 Z M314 -7 Q287 -7 267.5 13 Q248 33 248 60 Q248 88 267.5 107.5 Q287 127 314 127 Q342 127 362 107.5 Q382 88 382 60 Q382 33 362 13 Q342 -7 314 -7 Z M530 -7 Q502 -7 482.5 13 Q463 33 463 60 Q463 88 482.5 107.5 Q502 127 530 127 Q558 127 577.5 107.5 Q597 88 597 60 Q597 33 577.5 13 Q558 -7 530 -7 Z " />
<glyph glyph-name="exclam" unicode="&#x21;" horiz-adv-x="288" d="M94 700 L194 700 L194 190 L94 190 L94 700 Z M144 -7 Q116 -7 96.5 13.5 Q77 34 77 61 Q77 87 96.5 107 Q116 127 144 127 Q171 127 191 106.5 Q211 86 211 59 Q211 32 191 12.5 Q171 -7 144 -7 Z " />
<glyph glyph-name="exclamdown" unicode="&#xa1;" horiz-adv-x="288" d="M144 502 Q171 502 191 482.5 Q211 463 211 436 Q211 409 191 388.5 Q171 368 144 368 Q116 368 96.5 388 Q77 408 77 434 Q77 461 96.5 481.5 Q116 502 144 502 Z M194 305 L194 -205 L94 -205 L94 305 L194 305 Z " />
<glyph glyph-name="numbersign" unicode="&#x23;" horiz-adv-x="761" d="M579 439 L554 260 L697 260 L697 178 L543 178 L519 0 L430 0 L454 178 L258 178 L234 0 L146 0 L170 178 L31 178 L31 260 L181 260 L206 439 L62 439 L62 521 L217 521 L241 700 L329 700 L305 521 L501 521 L526 700 L614 700 L590 521 L730 521 L730 439 L579 439 Z M490 439 L294 439 L269 260 L466 260 L490 439 Z " />
<glyph glyph-name="period" unicode="&#x2e;" horiz-adv-x="196" d="M98 -7 Q70 -7 50.5 12.5 Q31 32 31 60 Q31 88 50.5 107.5 Q70 127 98 127 Q126 127 145.5 107.5 Q165 88 165 60 Q165 32 145.5 12.5 Q126 -7 98 -7 Z " />
<glyph glyph-name="question" unicode="&#x3f;" horiz-adv-x="518" d="M256 715 Q321 715 373.5 687 Q426 659 456.5 610 Q487 561 487 500 Q487 422 442 362.5 Q397 303 314 282 L314 186 L215 186 L215 350 L233 350 Q308 350 348.5 391 Q389 432 391 495 Q391 550 353.5 586.5 Q316 623 258 623 Q195 623 158.5 586 Q122 549 121 487 L31 511 Q34 571 64 617.5 Q94 664 144 689.5 Q194 715 256 715 Z M266 127 Q294 127 313.5 107.5 Q333 88 333 60 Q333 32 313.5 12.5 Q294 -7 266 -7 Q238 -7 218.5 12.5 Q199 32 199 60 Q199 88 218.5 107.5 Q238 127 266 127 Z " />
<glyph glyph-name="questiondown" unicode="&#xbf;" horiz-adv-x="518" d="M252 368 Q224 368 204.5 387.5 Q185 407 185 435 Q185 463 204.5 482.5 Q224 502 252 502 Q280 502 299.5 482.5 Q319 463 319 435 Q319 407 299.5 387.5 Q280 368 252 368 Z M487 -16 Q484 -76 454 -122.5 Q424 -169 374 -194.5 Q324 -220 262 -220 Q197 -220 144.5 -192 Q92 -164 61.5 -115 Q31 -66 31 -5 Q31 73 76 132.5 Q121 192 204 213 L204 309 L303 309 L303 145 L285 145 Q210 145 169.5 104 Q129 63 127 0 Q127 -55 164.5 -91.5 Q202 -128 260 -128 Q323 -128 359.5 -91 Q396 -54 397 8 L487 -16 Z " />
<glyph glyph-name="quotedbl" unicode="&#x22;" horiz-adv-x="328" d="M199 736 L297 736 L297 513 L199 513 L199 736 Z M31 736 L129 736 L129 513 L31 513 L31 736 Z " />
<glyph glyph-name="quotesingle" unicode="&#x27;" horiz-adv-x="160" d="M31 736 L129 736 L129 513 L31 513 L31 736 Z " />
<glyph glyph-name="semicolon" unicode="&#x3b;" horiz-adv-x="202" d="M104 294 Q76 294 56.5 313.5 Q37 333 37 361 Q37 390 56.5 409 Q76 428 104 428 Q132 428 151.5 408.5 Q171 389 171 361 Q171 333 151.5 313.5 Q132 294 104 294 Z M40 -100 Q56 -80 67.5 -54 Q79 -28 80 -7 Q57 1 44 17 Q31 33 31 56 Q31 85 50.5 104.5 Q70 124 97 124 Q126 124 145.5 104.5 Q165 85 165 48 Q165 6 143 -46.5 Q121 -99 82 -135 L40 -100 Z " />
<glyph glyph-name="slash" unicode="&#x2f;" horiz-adv-x="430" d="M299 700 L399 700 L131 0 L31 0 L299 700 Z " />
<glyph glyph-name="underscore" unicode="&#x5f;" horiz-adv-x="500" d="M0 -50 L500 -50 L500 -136 L0 -136 L0 -50 Z " />
<glyph glyph-name="braceleft" unicode="&#x7b;" horiz-adv-x="278" d="M197 -171 Q154 -171 121.5 -142.5 Q89 -114 89 -62 L89 198 Q89 227 74.5 241 Q60 255 36 255 L36 348 Q60 348 74.5 362 Q89 376 89 405 L89 660 Q89 712 121.5 740.5 Q154 769 197 769 L242 769 L242 681 L220 681 Q185 680 185 626 L185 377 Q185 326 154 300 Q170 287 177.5 269 Q185 251 185 224 L185 -28 Q185 -82 220 -83 L242 -83 L242 -171 L197 -171 Z " />
<glyph glyph-name="braceright" unicode="&#x7d;" horiz-adv-x="278" d="M36 -83 L58 -83 Q93 -82 93 -28 L93 224 Q93 251 100.5 269 Q108 287 124 300 Q93 326 93 377 L93 626 Q93 680 58 681 L36 681 L36 769 L81 769 Q124 769 156.5 740.5 Q189 712 189 660 L189 405 Q189 376 203.5 362 Q218 348 242 348 L242 255 Q218 255 203.5 241 Q189 227 189 198 L189 -62 Q189 -114 156.5 -142.5 Q124 -171 81 -171 L36 -171 L36 -83 Z " />
<glyph glyph-name="bracketleft" unicode="&#x5b;" horiz-adv-x="232" d="M36 769 L196 769 L196 681 L128 681 L128 -83 L196 -83 L196 -171 L36 -171 L36 769 Z " />
<glyph glyph-name="bracketright" unicode="&#x5d;" horiz-adv-x="232" d="M36 -83 L104 -83 L104 681 L36 681 L36 769 L196 769 L196 -171 L36 -171 L36 -83 Z " />
<glyph glyph-name="parenleft" unicode="&#x28;" horiz-adv-x="265" d="M166 -171 Q112 -91 74 29.5 Q36 150 36 300 Q36 451 74 571 Q112 691 167 769 L245 718 Q198 652 165 543.5 Q132 435 132 298 Q132 164 165.5 56.5 Q199 -51 245 -119 L166 -171 Z " />
<glyph glyph-name="parenright" unicode="&#x29;" horiz-adv-x="265" d="M20 -119 Q66 -51 99.5 56.5 Q133 164 133 298 Q133 435 100 543.5 Q67 652 20 718 L98 769 Q153 691 191 571 Q229 451 229 300 Q229 150 191 29.5 Q153 -91 99 -171 L20 -119 Z " />
<glyph glyph-name="emdash" unicode="&#x2014;" horiz-adv-x="1100" d="M50 345 L1050 345 L1050 255 L50 255 L50 345 Z " />
<glyph glyph-name="endash" unicode="&#x2013;" horiz-adv-x="600" d="M50 345 L550 345 L550 255 L50 255 L50 345 Z " />
<glyph glyph-name="hyphen" unicode="&#x2d;" horiz-adv-x="361" d="M50 345 L311 345 L311 255 L50 255 L50 345 Z " />
<glyph glyph-name="uni00AD" unicode="&#xad;" horiz-adv-x="600" d="M51 345 L312 345 L312 255 L51 255 L51 345 Z " />
<glyph glyph-name="guillemotleft" unicode="&#xab;" horiz-adv-x="498" d="M245 485 L152 301 L245 115 L144 115 L50 301 L143 485 L245 485 Z M355 301 L448 115 L347 115 L253 301 L346 485 L448 485 L355 301 Z " />
<glyph glyph-name="guillemotright" unicode="&#xbb;" horiz-adv-x="498" d="M448 301 L354 115 L253 115 L346 301 L253 485 L355 485 L448 301 Z M245 301 L151 115 L50 115 L143 301 L50 485 L152 485 L245 301 Z " />
<glyph glyph-name="guilsinglleft" unicode="&#x2039;" horiz-adv-x="295" d="M152 301 L245 115 L144 115 L50 301 L143 485 L245 485 L152 301 Z " />
<glyph glyph-name="guilsinglright" unicode="&#x203a;" horiz-adv-x="295" d="M245 301 L151 115 L50 115 L143 301 L50 485 L152 485 L245 301 Z " />
<glyph glyph-name="quotedblbase" unicode="&#x201e;" horiz-adv-x="381" d="M40 -87 Q56 -67 67.5 -41 Q79 -15 80 6 Q57 14 44 30 Q31 46 31 69 Q31 98 50.5 117.5 Q70 137 97 137 Q126 137 145.5 117.5 Q165 98 165 61 Q165 19 143 -33.5 Q121 -86 82 -122 L40 -87 Z M225 -87 Q241 -67 252.5 -41 Q264 -15 265 6 Q242 14 229 30 Q216 46 216 69 Q216 98 235.5 117.5 Q255 137 282 137 Q311 137 330.5 117.5 Q350 98 350 61 Q350 19 328 -33.5 Q306 -86 267 -122 L225 -87 Z " />
<glyph glyph-name="quotedblleft" unicode="&#x201c;" horiz-adv-x="381" d="M156 721 Q140 701 128.5 675 Q117 649 116 628 Q139 620 152 604 Q165 588 165 565 Q165 536 145.5 516.5 Q126 497 99 497 Q70 497 50.5 516.5 Q31 536 31 573 Q31 615 53 667.5 Q75 720 114 756 L156 721 Z M341 721 Q325 701 313.5 675 Q302 649 301 628 Q324 620 337 604 Q350 588 350 565 Q350 536 330.5 516.5 Q311 497 284 497 Q255 497 235.5 516.5 Q216 536 216 573 Q216 615 238 667.5 Q260 720 299 756 L341 721 Z " />
<glyph glyph-name="quotedblright" unicode="&#x201d;" horiz-adv-x="381" d="M40 528 Q56 548 67.5 574 Q79 600 80 621 Q57 629 44 645 Q31 661 31 684 Q31 713 50.5 732.5 Q70 752 97 752 Q126 752 145.5 732.5 Q165 713 165 676 Q165 634 143 581.5 Q121 529 82 493 L40 528 Z M225 528 Q241 548 252.5 574 Q264 600 265 621 Q242 629 229 645 Q216 661 216 684 Q216 713 235.5 732.5 Q255 752 282 752 Q311 752 330.5 732.5 Q350 713 350 676 Q350 634 328 581.5 Q306 529 267 493 L225 528 Z " />
<glyph glyph-name="quoteleft" unicode="&#x2018;" horiz-adv-x="196" d="M156 720 Q140 700 128.5 674 Q117 648 116 627 Q139 619 152 603 Q165 587 165 564 Q165 535 145.5 515.5 Q126 496 99 496 Q70 496 50.5 515.5 Q31 535 31 572 Q31 614 53 666.5 Q75 719 114 755 L156 720 Z " />
<glyph glyph-name="quoteright" unicode="&#x2019;" horiz-adv-x="196" d="M40 530 Q56 550 67.5 576 Q79 602 80 623 Q57 631 44 647 Q31 663 31 686 Q31 715 50.5 734.5 Q70 754 97 754 Q126 754 145.5 734.5 Q165 715 165 678 Q165 636 143 583.5 Q121 531 82 495 L40 530 Z " />
<glyph glyph-name="quotesinglbase" unicode="&#x201a;" horiz-adv-x="196" d="M40 -97 Q56 -77 67.5 -51 Q79 -25 80 -4 Q57 4 44 20 Q31 36 31 59 Q31 88 50.5 107.5 Q70 127 97 127 Q126 127 145.5 107.5 Q165 88 165 51 Q165 9 143 -43.5 Q121 -96 82 -132 L40 -97 Z " />
<glyph glyph-name="uni00A0" unicode="&#xa0;" horiz-adv-x="280" d="" />
<glyph glyph-name="cent" unicode="&#xa2;" horiz-adv-x="558" d="M295 177 Q341 177 375 202 Q409 227 424 270 L513 240 Q491 181 446.5 141.5 Q402 102 339 91 L339 10 L240 10 L240 92 Q180 104 135 141.5 Q90 179 66 233 Q42 287 42 348 Q42 410 66 464 Q90 518 135 555 Q180 592 240 605 L240 691 L339 691 L339 607 Q404 596 449 556 Q494 516 514 456 L424 426 Q410 470 376 495 Q342 520 295 520 Q250 520 215 498 Q180 476 160 436.5 Q140 397 140 348 Q140 299 160 260 Q180 221 215 199 Q250 177 295 177 Z " />
<glyph glyph-name="currency" unicode="&#xa4;" horiz-adv-x="602" d="M527 352 Q527 284 490 227 L560 155 L495 91 L424 161 Q370 126 302 126 Q231 126 177 161 L106 91 L42 155 L112 227 Q77 282 77 352 Q77 419 112 474 L42 544 L106 608 L175 540 Q230 578 302 578 Q375 578 428 542 L495 608 L560 544 L492 476 Q527 420 527 352 Z M302 216 Q359 216 395.5 254 Q432 292 432 352 Q432 412 395.5 450 Q359 488 302 488 Q244 488 207.5 450 Q171 412 171 352 Q171 293 207.5 254.5 Q244 216 302 216 Z " />
<glyph glyph-name="dollar" unicode="&#x24;" horiz-adv-x="602" d="M560 193 Q560 112 503 57 Q446 2 355 -10 L355 -78 L258 -78 L258 -10 Q175 1 119.5 51 Q64 101 42 187 L136 214 Q151 157 180.5 124.5 Q210 92 258 82 L258 320 Q163 343 114 389.5 Q65 436 65 513 Q65 592 118 645.5 Q171 699 258 712 L258 778 L355 778 L355 711 Q430 700 478.5 651.5 Q527 603 547 524 L454 497 Q442 547 418.5 577.5 Q395 608 355 619 L355 398 Q460 372 510 323.5 Q560 275 560 193 Z M165 513 Q165 477 187.5 455.5 Q210 434 258 420 L258 620 Q215 610 190 582.5 Q165 555 165 513 Z M355 81 Q403 90 431.5 118.5 Q460 147 460 193 Q460 229 438.5 254.5 Q417 280 355 298 L355 81 Z " />
<glyph glyph-name="Euro" unicode="&#x20ac;" horiz-adv-x="732" d="M687 89 Q597 -14 448 -14 Q327 -14 239 50 Q151 114 119 226 L20 226 L42 306 L104 306 Q102 334 102 350 Q102 366 104 394 L20 394 L42 474 L121 474 Q155 583 243 648.5 Q331 714 448 714 Q593 714 684 615 L611 554 Q583 586 542 604 Q501 622 448 622 Q373 622 314.5 582 Q256 542 226 474 L471 474 L448 394 L204 394 Q201 372 201 349 Q201 334 203 306 L424 306 L401 226 L223 226 Q251 155 310.5 116 Q370 77 449 77 Q553 77 614 147 L687 89 Z " />
<glyph glyph-name="florin" unicode="&#x192;" horiz-adv-x="423" d="M268 495 L392 495 L392 407 L268 407 L268 -33 Q268 -96 230.5 -133.5 Q193 -171 135 -171 Q87 -171 59.5 -157.5 Q32 -144 20 -131 L67 -62 Q85 -80 116 -80 Q168 -80 168 -22 L168 407 L71 407 L71 495 L168 495 L168 631 Q168 694 205 731.5 Q242 769 300 769 Q375 769 415 729 L368 660 Q350 678 319 678 Q268 678 268 620 L268 495 Z " />
<glyph glyph-name="sterling" unicode="&#xa3;" horiz-adv-x="525" d="M510 90 L510 0 L20 0 L20 90 L93 90 L93 303 L20 303 L20 391 L93 391 L93 496 Q93 601 151 657.5 Q209 714 300 714 Q387 714 438 670.5 Q489 627 500 557 L409 539 Q403 573 375.5 597.5 Q348 622 300 622 Q252 622 222.5 590 Q193 558 193 500 L193 391 L424 391 L424 303 L193 303 L193 90 L510 90 Z " />
<glyph glyph-name="yen" unicode="&#xa5;" horiz-adv-x="623" d="M407 358 L523 358 L523 276 L362 276 L362 204 L523 204 L523 122 L362 122 L362 0 L262 0 L262 122 L100 122 L100 204 L262 204 L262 276 L100 276 L100 358 L217 358 L22 700 L131 700 L311 378 L492 700 L601 700 L407 358 Z " />
<glyph glyph-name="uni2219" unicode="&#x2219;" horiz-adv-x="600" d="M300 282 Q272 282 252.5 301.5 Q233 321 233 349 Q233 377 252.5 396.5 Q272 416 300 416 Q328 416 347.5 396.5 Q367 377 367 349 Q367 321 347.5 301.5 Q328 282 300 282 Z " />
<glyph glyph-name="plus" unicode="&#x2b;" horiz-adv-x="600" d="M254 305 L50 305 L50 395 L254 395 L254 600 L346 600 L346 395 L550 395 L550 305 L346 305 L346 100 L254 100 L254 305 Z " />
<glyph glyph-name="minus" unicode="&#x2212;" horiz-adv-x="600" d="M50 395 L550 395 L550 305 L50 305 L50 395 Z " />
<glyph glyph-name="multiply" unicode="&#xd7;" horiz-adv-x="600" d="M365 350 L534 181 L469 116 L300 285 L131 116 L66 181 L235 350 L66 519 L131 585 L300 415 L470 585 L534 519 L365 350 Z " />
<glyph glyph-name="divide" unicode="&#xf7;" horiz-adv-x="600" d="M299 497 Q271 497 251.5 516.5 Q232 536 232 564 Q232 592 251.5 611.5 Q271 631 299 631 Q327 631 346.5 611.5 Q366 592 366 564 Q366 536 346.5 516.5 Q327 497 299 497 Z M40 393 L560 393 L560 307 L40 307 L40 393 Z M300 84 Q272 84 252.5 103.5 Q233 123 233 151 Q233 179 252.5 198.5 Q272 218 300 218 Q328 218 347.5 198.5 Q367 179 367 151 Q367 123 347.5 103.5 Q328 84 300 84 Z " />
<glyph glyph-name="equal" unicode="&#x3d;" horiz-adv-x="600" d="M50 511 L550 511 L550 421 L50 421 L50 511 Z M50 279 L550 279 L550 189 L50 189 L50 279 Z " />
<glyph glyph-name="notequal" unicode="&#x2260;" horiz-adv-x="600" d="M382 421 L316 279 L550 279 L550 189 L274 189 L223 78 L141 116 L175 189 L50 189 L50 279 L217 279 L282 421 L50 421 L50 511 L324 511 L375 621 L457 583 L424 511 L550 511 L550 421 L382 421 Z " />
<glyph glyph-name="greater" unicode="&#x3e;" horiz-adv-x="600" d="M550 401 L550 301 L50 91 L50 191 L430 351 L50 509 L50 609 L550 401 Z " />
<glyph glyph-name="less" unicode="&#x3c;" horiz-adv-x="600" d="M50 401 L550 609 L550 509 L170 351 L550 191 L550 91 L50 301 L50 401 Z " />
<glyph glyph-name="greaterequal" unicode="&#x2265;" horiz-adv-x="600" d="M551 504 L551 404 L50 203 L50 303 L426 454 L50 605 L50 705 L551 504 Z M51 141 L551 141 L551 51 L51 51 L51 141 Z " />
<glyph glyph-name="lessequal" unicode="&#x2264;" horiz-adv-x="600" d="M551 605 L175 454 L551 303 L551 203 L51 404 L51 504 L551 705 L551 605 Z M50 141 L550 141 L550 51 L50 51 L50 141 Z " />
<glyph glyph-name="plusminus" unicode="&#xb1;" horiz-adv-x="600" d="M254 404 L50 404 L50 494 L254 494 L254 699 L346 699 L346 494 L550 494 L550 404 L346 404 L346 199 L254 199 L254 404 Z M52 140 L552 140 L552 50 L52 50 L52 140 Z " />
<glyph glyph-name="approxequal" unicode="&#x2248;" horiz-adv-x="600" d="M411 164 Q382 164 355.5 171.5 Q329 179 286 194 Q251 207 231.5 212.5 Q212 218 194 218 Q170 218 151 205.5 Q132 193 112 165 L48 218 Q78 264 112 284.5 Q146 305 189 305 Q219 305 247 297.5 Q275 290 313 276 Q348 263 367.5 257.5 Q387 252 407 252 Q430 252 448 264 Q466 276 485 303 L553 251 Q523 206 489 185 Q455 164 411 164 Z M411 392 Q382 392 355.5 399.5 Q329 407 286 422 Q251 435 231.5 440.5 Q212 446 194 446 Q170 446 151 433.5 Q132 421 112 393 L48 446 Q78 492 112 512.5 Q146 533 189 533 Q219 533 247 525.5 Q275 518 313 504 Q348 491 367.5 485.5 Q387 480 407 480 Q430 480 448 492 Q466 504 485 531 L553 479 Q523 434 489 413 Q455 392 411 392 Z " />
<glyph glyph-name="asciitilde" unicode="&#x7e;" horiz-adv-x="600" d="M410 280 Q381 280 354.5 287.5 Q328 295 285 310 Q250 323 230.5 328.5 Q211 334 193 334 Q169 334 150 321.5 Q131 309 111 281 L47 334 Q77 380 111 400.5 Q145 421 188 421 Q218 421 246 413.5 Q274 406 312 392 Q347 379 366.5 373.5 Q386 368 406 368 Q429 368 447 380 Q465 392 484 419 L552 367 Q522 322 488 301 Q454 280 410 280 Z " />
<glyph glyph-name="logicalnot" unicode="&#xac;" horiz-adv-x="600" d="M551 230 L455 230 L455 380 L48 380 L48 470 L551 470 L551 230 Z " />
<glyph glyph-name="infinity" unicode="&#x221e;" horiz-adv-x="658" d="M189 211 Q129 211 89.5 251 Q50 291 50 350 Q50 409 89.5 449 Q129 489 189 489 Q225 489 259 469.5 Q293 450 329 408 Q364 449 397 469 Q430 489 468 489 Q529 489 568.5 449.5 Q608 410 608 350 Q608 290 568.5 250.5 Q529 211 468 211 Q430 211 398.5 231 Q367 251 329 293 Q292 250 258.5 230.5 Q225 211 189 211 Z M189 290 Q214 290 234 304.5 Q254 319 283 350 Q254 381 234 395.5 Q214 410 189 410 Q164 410 147 393 Q130 376 130 350 Q130 324 147 307 Q164 290 189 290 Z M468 290 Q494 290 510.5 307 Q527 324 527 350 Q527 376 510.5 393 Q494 410 468 410 Q445 410 422.5 395.5 Q400 381 375 350 Q400 319 422.5 304.5 Q445 290 468 290 Z " />
<glyph glyph-name="emptyset" unicode="&#x2205;" horiz-adv-x="602" d="M502 495 Q549 431 549 350 Q549 283 515.5 225.5 Q482 168 424.5 134.5 Q367 101 300 101 Q220 101 156 148 L107 99 L50 155 L99 204 Q52 270 52 350 Q52 417 85.5 474.5 Q119 532 176 565.5 Q233 599 300 599 Q380 599 446 552 L495 601 L552 545 L502 495 Z M135 350 Q135 302 157 263 L388 494 Q348 518 300 518 Q254 518 216 496 Q178 474 156.5 435.5 Q135 397 135 350 Z M467 350 Q467 399 444 437 L213 206 Q250 182 300 182 Q347 182 385.5 204 Q424 226 445.5 264.5 Q467 303 467 350 Z " />
<glyph glyph-name="integral" unicode="&#x222b;" horiz-adv-x="423" d="M300 769 Q375 769 415 729 L368 660 Q350 678 319 678 Q268 678 268 620 L268 -33 Q268 -96 230.5 -133.5 Q193 -171 135 -171 Q87 -171 59.5 -157.5 Q32 -144 20 -131 L67 -62 Q85 -80 116 -80 Q168 -80 168 -22 L168 631 Q168 694 205 731.5 Q242 769 300 769 Z " />
<glyph glyph-name="uni2206" unicode="&#x2206;" horiz-adv-x="668" d="M335 700 L646 0 L22 0 L335 700 Z M511 90 L335 494 L157 90 L511 90 Z " />
<glyph glyph-name="product" unicode="&#x220f;" horiz-adv-x="557" d="M507 0 L409 0 L409 608 L149 608 L149 0 L50 0 L50 700 L507 700 L507 0 Z " />
<glyph glyph-name="summation" unicode="&#x2211;" horiz-adv-x="600" d="M550 610 L186 610 L424 350 L186 90 L550 90 L550 0 L50 0 L50 79 L296 350 L50 621 L50 700 L550 700 L550 610 Z " />
<glyph glyph-name="radical" unicode="&#x221a;" horiz-adv-x="600" d="M578 700 L311 0 L203 0 L90 305 L20 305 L20 395 L149 395 L257 111 L473 700 L578 700 Z " />
<glyph glyph-name="partialdiff" unicode="&#x2202;" horiz-adv-x="585" d="M289 -14 Q219 -14 163.5 15.5 Q108 45 76 99 Q44 153 44 222 Q44 292 75 345 Q106 398 159.5 427 Q213 456 280 456 Q334 456 375 435 Q416 414 436 389 Q432 501 398 561.5 Q364 622 282 622 Q182 622 151 515 L63 542 Q84 621 138.5 667.5 Q193 714 282 714 Q421 714 481 610 Q541 506 541 312 Q541 155 477 70.5 Q413 -14 289 -14 Z M289 78 Q331 78 364 97.5 Q397 117 415 150 Q433 183 433 223 Q433 286 392.5 326 Q352 366 289 366 Q224 366 184 326.5 Q144 287 144 223 Q144 159 184.5 118.5 Q225 78 289 78 Z " />
<glyph glyph-name="uni00B5" unicode="&#xb5;" horiz-adv-x="557" d="M492 495 L492 0 L411 0 L396 63 Q339 -14 239 -14 Q195 -14 163 -1 L163 -205 L65 -205 L65 495 L163 495 L163 200 Q163 133 191 105 Q219 77 269 77 Q322 77 358 114.5 Q394 152 394 218 L394 495 L492 495 Z " />
<glyph glyph-name="percent" unicode="&#x25;" horiz-adv-x="755" d="M201 412 Q160 412 125.5 430.5 Q91 449 70.5 483 Q50 517 50 559 Q50 601 69.5 635 Q89 669 122 688 Q155 707 195 707 Q236 707 271 688 Q306 669 326 635.5 Q346 602 346 559 Q346 516 327 482.5 Q308 449 274.5 430.5 Q241 412 201 412 Z M566 700 L662 700 L185 0 L88 0 L566 700 Z M201 480 Q233 480 255.5 502.5 Q278 525 278 559 Q278 596 255 617.5 Q232 639 197 639 Q164 639 142.5 617 Q121 595 121 559 Q121 524 144 502 Q167 480 201 480 Z M558 -7 Q517 -7 483 11.5 Q449 30 429 64 Q409 98 409 140 Q409 182 428.5 216 Q448 250 481.5 269 Q515 288 555 288 Q596 288 630.5 269 Q665 250 685 216.5 Q705 183 705 140 Q705 97 685.5 63.5 Q666 30 632 11.5 Q598 -7 558 -7 Z M560 61 Q592 61 614.5 84 Q637 107 637 140 Q637 177 614 198.5 Q591 220 557 220 Q523 220 501 198.5 Q479 177 479 140 Q479 105 502 83 Q525 61 560 61 Z " />
<glyph glyph-name="perthousand" unicode="&#x2030;" horiz-adv-x="1102" d="M201 412 Q160 412 125.5 430.5 Q91 449 70.5 483 Q50 517 50 559 Q50 601 69.5 635 Q89 669 122 688 Q155 707 195 707 Q236 707 271 688 Q306 669 326 635.5 Q346 602 346 559 Q346 516 327 482.5 Q308 449 274.5 430.5 Q241 412 201 412 Z M566 700 L662 700 L185 0 L88 0 L566 700 Z M201 480 Q233 480 255.5 502.5 Q278 525 278 559 Q278 596 255 617.5 Q232 639 197 639 Q164 639 142.5 617 Q121 595 121 559 Q121 524 144 502 Q167 480 201 480 Z M558 -7 Q517 -7 483 11.5 Q449 30 429 64 Q409 98 409 140 Q409 182 428.5 216 Q448 250 481.5 269 Q515 288 555 288 Q596 288 630.5 269 Q665 250 685 216.5 Q705 183 705 140 Q705 97 685.5 63.5 Q666 30 632 11.5 Q598 -7 558 -7 Z M905 -12 Q864 -12 829.5 7 Q795 26 775 60 Q755 94 755 136 Q755 178 774.5 211.5 Q794 245 828 264 Q862 283 902 283 Q943 283 977.5 264.5 Q1012 246 1032 212 Q1052 178 1052 136 Q1052 93 1032.5 59.5 Q1013 26 979 7 Q945 -12 905 -12 Z M560 61 Q592 61 614.5 84 Q637 107 637 140 Q637 177 614 198.5 Q591 220 557 220 Q523 220 501 198.5 Q479 177 479 140 Q479 105 502 83 Q525 61 560 61 Z M906 56 Q938 56 960.5 79 Q983 102 983 136 Q983 173 960.5 194.5 Q938 216 904 216 Q870 216 848 194.5 Q826 173 826 136 Q826 101 849 78.5 Q872 56 906 56 Z " />
<glyph glyph-name="arrowup" unicode="&#x2191;" horiz-adv-x="633" d="M527 264 L356 433 L356 14 L276 14 L276 433 L107 263 L50 321 L316 586 L583 321 L527 264 Z " />
<glyph glyph-name="uni2197" unicode="&#x2197;" horiz-adv-x="533" d="M483 515 L483 138 L403 138 L403 377 L107 81 L50 138 L347 435 L107 436 L107 516 L483 515 Z " />
<glyph glyph-name="arrowright" unicode="&#x2192;" horiz-adv-x="673" d="M623 299 L356 33 L300 90 L469 258 L50 258 L50 340 L470 339 L301 510 L357 567 L623 299 Z " />
<glyph glyph-name="uni2198" unicode="&#x2198;" horiz-adv-x="533" d="M483 461 L483 84 L107 83 L107 163 L347 164 L50 461 L107 518 L403 222 L403 461 L483 461 Z " />
<glyph glyph-name="arrowdown" unicode="&#x2193;" horiz-adv-x="633" d="M583 279 L316 14 L50 279 L107 337 L276 167 L276 586 L356 586 L356 167 L527 336 L583 279 Z " />
<glyph glyph-name="uni2199" unicode="&#x2199;" horiz-adv-x="533" d="M186 164 L426 163 L426 83 L50 84 L50 461 L130 461 L130 222 L426 518 L483 461 L186 164 Z " />
<glyph glyph-name="arrowleft" unicode="&#x2190;" horiz-adv-x="673" d="M623 258 L204 258 L373 90 L317 33 L50 299 L316 567 L372 510 L203 339 L623 340 L623 258 Z " />
<glyph glyph-name="uni2196" unicode="&#x2196;" horiz-adv-x="533" d="M426 81 L130 377 L130 138 L50 138 L50 515 L426 516 L426 436 L186 435 L483 138 L426 81 Z " />
<glyph glyph-name="arrowboth" unicode="&#x2194;" horiz-adv-x="823" d="M773 299 L506 33 L450 90 L619 258 L204 258 L373 90 L317 33 L50 299 L316 567 L372 510 L204 340 L619 340 L451 510 L507 567 L773 299 Z " />
<glyph glyph-name="arrowupdn" unicode="&#x2195;" horiz-adv-x="634" d="M527 263 L584 207 L316 -59 L50 208 L107 264 L275 95 L275 510 L107 341 L50 397 L316 664 L584 398 L527 342 L357 510 L357 95 L527 263 Z " />
<glyph glyph-name="uni21A9" unicode="&#x21a9;" horiz-adv-x="655" d="M421 635 Q472 634 514 608.5 Q556 583 580.5 541 Q605 499 605 448 Q605 397 580.5 354.5 Q556 312 513.5 286.5 Q471 261 420 260 L202 260 L334 128 L278 71 L50 299 L277 527 L334 471 L203 339 L420 339 Q464 341 495 372.5 Q526 404 526 448 Q526 491 495 522.5 Q464 554 421 555 L421 635 Z " />
<glyph glyph-name="uni21AA" unicode="&#x21aa;" horiz-adv-x="655" d="M605 299 L377 71 L321 128 L453 260 L235 260 Q184 261 141.5 286.5 Q99 312 74.5 354.5 Q50 397 50 448 Q50 499 74.5 541 Q99 583 141 608.5 Q183 634 234 635 L234 555 Q191 554 160 522.5 Q129 491 129 448 Q129 404 160 372.5 Q191 341 235 339 L452 339 L321 471 L378 527 L605 299 Z " />
<glyph glyph-name="uni21B0" unicode="&#x21b0;" horiz-adv-x="616" d="M566 342 L566 1 L485 1 L485 262 L202 262 L372 91 L316 34 L50 301 L317 568 L373 511 L204 342 L566 342 Z " />
<glyph glyph-name="uni21B1" unicode="&#x21b1;" horiz-adv-x="616" d="M566 301 L300 34 L244 91 L414 262 L131 262 L131 1 L50 1 L50 342 L412 342 L243 511 L299 568 L566 301 Z " />
<glyph glyph-name="uni21B2" unicode="&#x21b2;" horiz-adv-x="616" d="M566 600 L566 259 L204 259 L373 90 L317 33 L50 300 L316 567 L372 510 L202 339 L485 339 L485 600 L566 600 Z " />
<glyph glyph-name="uni21B3" unicode="&#x21b3;" horiz-adv-x="616" d="M566 300 L299 33 L243 90 L412 259 L50 259 L50 600 L131 600 L131 339 L414 339 L244 510 L300 567 L566 300 Z " />
<glyph glyph-name="uni21B4" unicode="&#x21b4;" horiz-adv-x="643" d="M593 321 L327 54 L59 320 L116 376 L287 207 L287 519 L50 519 L50 600 L367 600 L368 208 L536 377 L593 321 Z " />
<glyph glyph-name="uni2B0F" unicode="&#x2b0f;" horiz-adv-x="643" d="M536 277 L368 446 L367 54 L50 54 L50 135 L287 135 L287 447 L116 278 L59 334 L327 600 L593 333 L536 277 Z " />
<glyph glyph-name="uni2B10" unicode="&#x2b10;" horiz-adv-x="643" d="M356 519 L356 207 L527 376 L584 320 L316 54 L50 321 L107 377 L275 208 L276 600 L593 600 L593 519 L356 519 Z " />
<glyph glyph-name="uni2B11" unicode="&#x2b11;" horiz-adv-x="643" d="M593 135 L593 54 L276 54 L275 446 L107 277 L50 333 L316 600 L584 334 L527 278 L356 447 L356 135 L593 135 Z " />
<glyph glyph-name="uni258A" unicode="&#x258a;" horiz-adv-x="600" d="M75 700 L525 700 L525 0 L75 0 L75 700 Z " />
<glyph glyph-name="uni25D0" unicode="&#x25d0;" horiz-adv-x="597" d="M298 549 Q365 549 422.5 515.5 Q480 482 513.5 424.5 Q547 367 547 300 Q547 233 513.5 175.5 Q480 118 422.5 84.5 Q365 51 298 51 Q231 51 174 84.5 Q117 118 83.5 175.5 Q50 233 50 300 Q50 367 83.5 424.5 Q117 482 174 515.5 Q231 549 298 549 Z M301 104 Q354 105 397.5 130.5 Q441 156 466.5 200 Q492 244 492 300 Q492 355 466.5 399.5 Q441 444 397.5 469.5 Q354 495 301 496 L301 104 Z " />
<glyph glyph-name="lozenge" unicode="&#x25ca;" horiz-adv-x="629" d="M579 350 L578 350 L369 1 L260 1 L51 350 L50 350 L50 351 L51 351 L260 700 L369 700 L578 351 L579 351 L579 350 Z M469 351 L315 609 L160 351 L315 92 L469 351 Z " />
<glyph glyph-name="smileface" unicode="&#x263a;" horiz-adv-x="828" d="M414 -14 Q316 -14 232 35 Q148 84 99 167.5 Q50 251 50 350 Q50 449 99 532.5 Q148 616 232 665 Q316 714 414 714 Q513 714 596.5 665 Q680 616 729 532.5 Q778 449 778 350 Q778 251 729 167.5 Q680 84 596.5 35 Q513 -14 414 -14 Z M414 51 Q495 51 564 91.5 Q633 132 673.5 200.5 Q714 269 714 350 Q714 431 673.5 499.5 Q633 568 564 608.5 Q495 649 414 649 Q333 649 264.5 608.5 Q196 568 155.5 499.5 Q115 431 115 350 Q115 269 155.5 200.5 Q196 132 264.5 91.5 Q333 51 414 51 Z M302 350 Q277 350 258.5 368 Q240 386 240 411 Q240 437 258.5 455 Q277 473 302 473 Q327 473 345 455 Q363 437 363 411 Q363 386 345 368 Q327 350 302 350 Z M526 350 Q501 350 483 368 Q465 386 465 411 Q465 437 483 455 Q501 473 526 473 Q552 473 570 455 Q588 437 588 411 Q588 386 569.5 368 Q551 350 526 350 Z " />
<glyph glyph-name="uni2713" unicode="&#x2713;" horiz-adv-x="677" d="M627 659 L288 0 L189 0 L50 249 L125 292 L237 91 L543 700 L627 659 Z " />
<glyph glyph-name="at" unicode="&#x40;" horiz-adv-x="839" d="M421 612 Q528 612 610.5 567 Q693 522 738.5 440 Q784 358 784 251 Q784 166 741 116 Q698 66 625 66 Q585 66 557.5 80.5 Q530 95 518 120 Q466 66 398 66 Q328 66 289.5 113.5 Q251 161 251 229 Q251 278 271.5 322 Q292 366 331 394 Q370 422 424 422 Q459 422 484.5 409.5 Q510 397 525 377 L532 412 L595 412 L576 195 L576 185 Q574 165 586.5 152 Q599 139 625 139 Q664 139 686 171.5 Q708 204 708 251 Q708 339 673 404 Q638 469 573 504 Q508 539 421 539 Q339 539 273 500 Q207 461 169.5 394 Q132 327 132 246 Q132 166 170.5 99 Q209 32 275.5 -7 Q342 -46 421 -46 Q465 -46 506 -33 Q547 -20 574 -1 L615 -60 Q580 -85 528.5 -102 Q477 -119 421 -119 Q320 -119 236.5 -70.5 Q153 -22 104 61.5 Q55 145 55 246 Q55 345 104 429 Q153 513 237 562.5 Q321 612 421 612 Z M409 137 Q456 137 484 173 Q512 209 512 255 Q512 295 490.5 323 Q469 351 428 351 Q381 351 352.5 314.5 Q324 278 324 232 Q324 192 346 164.5 Q368 137 409 137 Z " />
<glyph glyph-name="ampersand" unicode="&#x26;" horiz-adv-x="585" d="M564 334 L495 334 L495 204 Q495 140 466 90 Q437 40 387 12.5 Q337 -15 275 -15 Q208 -15 155 12.5 Q102 40 72 89.5 Q42 139 42 204 Q42 262 69 308 Q96 354 144 381 Q113 406 96.5 441.5 Q80 477 80 519 Q80 575 107.5 619 Q135 663 182.5 688 Q230 713 289 713 Q370 713 421.5 673.5 Q473 634 487 567 L398 545 Q390 583 360.5 605 Q331 627 290 627 Q240 627 207 598 Q174 569 174 521 Q174 473 206.5 444.5 Q239 416 289 416 L401 416 L401 483 L495 483 L495 416 L564 416 L564 334 Z M401 334 L283 334 Q224 334 183 298.5 Q142 263 142 204 Q142 146 181.5 110.5 Q221 75 276 75 Q329 75 365 110.5 Q401 146 401 204 L401 334 Z " />
<glyph glyph-name="paragraph" unicode="&#xb6;" horiz-adv-x="618" d="M589 622 L499 622 L499 -205 L412 -205 L411 622 L316 622 L316 -205 L229 -205 L229 300 Q175 300 129 327 Q83 354 56 400 Q29 446 29 500 Q29 554 56 600 Q83 646 128.5 673 Q174 700 229 700 L589 700 L589 622 Z " />
<glyph glyph-name="section" unicode="&#xa7;" horiz-adv-x="487" d="M397 244 Q445 206 445 139 Q445 95 419.5 60 Q394 25 349 5.5 Q304 -14 247 -14 Q168 -14 114.5 23 Q61 60 42 126 L126 153 Q153 65 247 65 Q294 65 322.5 84 Q351 103 351 136 Q351 161 329 179 Q307 197 246 207 Q157 223 107.5 256 Q58 289 58 358 Q58 422 106 462 Q58 499 58 564 Q58 631 111 672.5 Q164 714 247 714 Q320 714 368.5 679 Q417 644 435 579 L352 557 Q342 593 316 613.5 Q290 634 248 634 Q198 634 175 615 Q152 596 152 568 Q152 539 179.5 524 Q207 509 263 499 Q352 482 398.5 447.5 Q445 413 445 344 Q445 314 432.5 288.5 Q420 263 397 244 Z M152 363 Q152 334 179 319 Q206 304 263 293 Q291 288 310 283 Q351 301 351 342 Q351 366 329 384.5 Q307 403 246 413 L200 422 Q174 414 163 398.5 Q152 383 152 363 Z " />
<glyph glyph-name="copyright" unicode="&#xa9;" horiz-adv-x="828" d="M414 -13 Q315 -13 231.5 36 Q148 85 99 168.5 Q50 252 50 351 Q50 450 99 533.5 Q148 617 231.5 666 Q315 715 414 715 Q513 715 596.5 666 Q680 617 729 533.5 Q778 450 778 351 Q778 252 729 168.5 Q680 85 596.5 36 Q513 -13 414 -13 Z M414 54 Q495 54 563 94 Q631 134 671 202 Q711 270 711 351 Q711 432 671 500 Q631 568 563 608 Q495 648 414 648 Q333 648 265 608 Q197 568 157 500 Q117 432 117 351 Q117 270 157 202 Q197 134 265 94 Q333 54 414 54 Z M413 154 Q358 154 315 178.5 Q272 203 248 247.5 Q224 292 224 351 Q224 408 248 453 Q272 498 314.5 523 Q357 548 412 548 Q473 548 517.5 517.5 Q562 487 581 430 L515 409 Q504 444 478.5 464 Q453 484 412 484 Q360 484 326 446 Q292 408 292 351 Q292 292 326.5 255 Q361 218 414 218 Q454 218 478.5 236.5 Q503 255 514 286 L579 265 Q558 212 516.5 183 Q475 154 413 154 Z " />
<glyph glyph-name="registered" unicode="&#xae;" horiz-adv-x="436" d="M218 344 Q169 344 127 368.5 Q85 393 60.5 434.5 Q36 476 36 526 Q36 575 60.5 617 Q85 659 127 683.5 Q169 708 218 708 Q267 708 309 683.5 Q351 659 375.5 617 Q400 575 400 526 Q400 476 375.5 434.5 Q351 393 309 368.5 Q267 344 218 344 Z M218 386 Q256 386 288 405 Q320 424 338.5 456 Q357 488 357 526 Q357 564 338.5 596 Q320 628 288 646.5 Q256 665 218 665 Q180 665 148 646.5 Q116 628 97 596 Q78 564 78 526 Q78 488 97 456 Q116 424 148 405 Q180 386 218 386 Z M156 618 L229 618 Q256 618 272.5 602 Q289 586 289 563 Q289 522 257 507 L292 433 L247 433 L217 501 L197 501 L197 433 L156 433 L156 618 Z M224 537 Q236 537 242.5 543.5 Q249 550 249 559 Q249 569 243 575 Q237 581 224 581 L197 581 L197 537 L224 537 Z " />
<glyph glyph-name="trademark" unicode="&#x2122;" horiz-adv-x="570" d="M50 700 L231 700 L231 658 L164 658 L164 461 L118 461 L118 658 L50 658 L50 700 Z M520 461 L474 461 L474 616 L408 461 L377 461 L311 614 L311 461 L266 461 L266 700 L316 700 L392 523 L468 700 L520 700 L520 461 Z " />
<glyph glyph-name="degree" unicode="&#xb0;" horiz-adv-x="369" d="M184 411 Q144 411 110 431 Q76 451 56 485 Q36 519 36 559 Q36 600 56 634 Q76 668 110 688 Q144 708 184 708 Q225 708 259 688 Q293 668 313 634 Q333 600 333 559 Q333 519 313 485 Q293 451 259 431 Q225 411 184 411 Z M184 480 Q218 480 241 503 Q264 526 264 559 Q264 592 241 615 Q218 638 184 638 Q151 638 128 615 Q105 592 105 559 Q105 526 128 503 Q151 480 184 480 Z " />
<glyph glyph-name="bar" unicode="&#x7c;" horiz-adv-x="200" d="M50 769 L150 769 L150 -171 L50 -171 L50 769 Z " />
<glyph glyph-name="brokenbar" unicode="&#xa6;" horiz-adv-x="200" d="M50 769 L150 769 L150 360 L50 360 L50 769 Z M50 240 L150 240 L150 -171 L50 -171 L50 240 Z " />
<glyph glyph-name="dagger" unicode="&#x2020;" horiz-adv-x="318" d="M282 536 L196 536 L196 350 L123 350 L123 536 L36 536 L36 603 L123 603 L123 700 L196 700 L196 603 L282 603 L282 536 Z " />
<glyph glyph-name="daggerdbl" unicode="&#x2021;" horiz-adv-x="318" d="M196 536 L196 487 L282 487 L282 420 L196 420 L196 323 L123 323 L123 420 L36 420 L36 487 L123 487 L123 536 L36 536 L36 603 L123 603 L123 700 L196 700 L196 603 L282 603 L282 536 L196 536 Z " />
<glyph glyph-name="estimated" unicode="&#x212e;" horiz-adv-x="893" d="M445 -14 Q329 -14 239.5 30.5 Q150 75 100 157.5 Q50 240 50 349 Q50 456 100.5 539 Q151 622 241 667.5 Q331 713 447 713 Q625 711 730 614 Q835 517 843 338 L211 338 Q203 338 199 335 Q195 332 195 320 L195 142 Q195 122 229 91.5 Q263 61 321 38 Q379 15 450 15 Q521 15 587.5 47 Q654 79 698 129 L773 129 Q699 48 627.5 17 Q556 -14 445 -14 Z M678 361 Q689 361 692.5 365 Q696 369 696 379 L696 552 Q696 581 657 612.5 Q618 644 559 665.5 Q500 687 444 687 Q379 686 322 662.5 Q265 639 230 608 Q195 577 195 560 L195 370 Q195 361 212 361 L678 361 Z " />
<glyph glyph-name="asciicircum" unicode="&#x5e;" horiz-adv-x="629" d="M469 350 L315 609 L160 350 L50 350 L260 700 L369 700 L579 350 L469 350 Z " />
<glyph glyph-name="uni0308" unicode="&#x308;" d="M-84 568 Q-110 568 -129 587 Q-148 606 -148 632 Q-148 658 -129 677 Q-110 696 -84 696 Q-58 696 -39 677 Q-20 658 -20 632 Q-20 606 -39 587 Q-58 568 -84 568 Z M84 568 Q58 568 39 587 Q20 606 20 632 Q20 658 39 677 Q58 696 84 696 Q110 696 129 677 Q148 658 148 632 Q148 606 129 587 Q110 568 84 568 Z " />
<glyph glyph-name="uni0307" unicode="&#x307;" d="M1 568 Q-26 568 -45 586.5 Q-64 605 -64 632 Q-64 658 -45 677 Q-26 696 1 696 Q27 696 45.5 677 Q64 658 64 632 Q64 605 45.5 586.5 Q27 568 1 568 Z " />
<glyph glyph-name="gravecomb" unicode="&#x300;" d="M-147 695 L-20 695 L47 569 L-40 569 L-147 695 Z " />
<glyph glyph-name="acutecomb" unicode="&#x301;" d="M20 695 L147 695 L40 569 L-47 569 L20 695 Z " />
<glyph glyph-name="uni030B" unicode="&#x30b;" d="M-119 569 L-54 695 L61 695 L-44 569 L-119 569 Z M28 569 L93 695 L208 695 L103 569 L28 569 Z " />
<glyph glyph-name="uni0302" unicode="&#x302;" d="M56 569 L0 632 L-56 569 L-142 569 L-52 695 L51 695 L141 569 L56 569 Z " />
<glyph glyph-name="uni030C" unicode="&#x30c;" d="M141 695 L51 569 L-52 569 L-142 695 L-56 695 L0 632 L56 695 L141 695 Z " />
<glyph glyph-name="uni0306" unicode="&#x306;" d="M-1 570 Q-57 570 -93 605.5 Q-129 641 -132 696 L-60 696 Q-58 670 -42 654 Q-26 638 0 638 Q26 638 42.5 654 Q59 670 61 696 L132 696 Q130 641 93 605.5 Q56 570 -1 570 Z " />
<glyph glyph-name="uni030A" unicode="&#x30a;" d="M0 544 Q-37 544 -64 571 Q-91 598 -91 636 Q-91 674 -64 701 Q-37 728 0 728 Q38 728 65 701 Q92 674 92 636 Q92 599 65 571.5 Q38 544 0 544 Z M0 602 Q14 602 24 612 Q34 622 34 636 Q34 650 24 660 Q14 670 0 670 Q-14 670 -24 660 Q-34 650 -34 636 Q-34 622 -24 612 Q-14 602 0 602 Z " />
<glyph glyph-name="tildecomb" unicode="&#x303;" d="M59 576 Q39 576 24 581 Q9 586 -12 596 Q-40 611 -57 611 Q-70 611 -82.5 602 Q-95 593 -105 574 L-160 611 Q-132 686 -64 686 Q-44 686 -29.5 681.5 Q-15 677 5 667 Q22 659 32 655 Q42 651 55 651 Q82 651 102 690 L159 652 Q145 614 118.5 595 Q92 576 59 576 Z " />
<glyph glyph-name="uni0304" unicode="&#x304;" d="M-106 670 L106 670 L106 594 L-106 594 L-106 670 Z " />
<glyph glyph-name="uni0312" unicode="&#x312;" d="M36 723 Q18 702 11 678 Q31 674 43 660.5 Q55 647 55 627 Q55 601 37.5 586.5 Q20 572 0 572 Q-26 572 -42.5 588 Q-59 604 -59 634 Q-59 665 -43 697 Q-27 729 0 749 L36 723 Z " />
<glyph glyph-name="uni0326" unicode="&#x326;" d="M-39 -210 Q-21 -189 -15 -165 Q-35 -161 -47 -147.5 Q-59 -134 -59 -114 Q-59 -88 -41.5 -73.5 Q-24 -59 -3 -59 Q23 -59 39.5 -75 Q56 -91 56 -120 Q56 -151 40 -183 Q24 -215 -3 -236 L-39 -210 Z " />
<glyph glyph-name="uni0327" unicode="&#x327;" d="M1 -217 Q-37 -217 -62.5 -196.5 Q-88 -176 -91 -146 L-36 -127 Q-36 -143 -26 -152.5 Q-16 -162 1 -162 Q16 -162 26 -152.5 Q36 -143 36 -127 Q36 -112 26 -103 Q16 -94 1 -94 Q-15 -94 -22 -101 L-65 -76 L-20 8 L33 0 L11 -42 Q47 -43 71.5 -65 Q96 -87 96 -123 Q96 -166 70 -191.5 Q44 -217 1 -217 Z " />
<glyph glyph-name="uni0328" unicode="&#x328;" d="M64 -182 Q57 -183 44 -183 Q-7 -183 -36.5 -158.5 Q-66 -134 -66 -94 Q-66 -55 -44.5 -26 Q-23 3 10 22 L71 0 Q9 -32 9 -75 Q9 -93 22 -104.5 Q35 -116 59 -116 L65 -116 L64 -182 Z " />
<glyph glyph-name="uni0335" unicode="&#x335;" d="M-173 409 L148 409 L148 339 L-173 339 L-173 409 Z " />
<glyph glyph-name="uni0336" unicode="&#x336;" d="M-86 389 L254 389 L254 311 L-86 311 L-86 389 Z " />
<glyph glyph-name="uni0337" unicode="&#x337;" d="M-70 292 L188 486 L235 422 L-23 227 L-70 292 Z " />
<glyph glyph-name="uni0338" unicode="&#x338;" d="M-120 -3 L260 525 L322 480 L-58 -48 L-120 -3 Z " />
<glyph glyph-name="uni02BB" unicode="&#x2bb;" horiz-adv-x="196" d="M40 516 Q56 536 67.5 562 Q79 588 80 609 Q57 617 44 633 Q31 649 31 672 Q31 701 50.5 720.5 Q70 740 97 740 Q126 740 145.5 720.5 Q165 701 165 664 Q165 622 143 569.5 Q121 517 82 481 L40 516 Z " />
<glyph glyph-name="acute" unicode="&#xb4;" horiz-adv-x="557" d="M289 695 L416 695 L309 569 L222 569 L289 695 Z " />
<glyph glyph-name="breve" unicode="&#x2d8;" horiz-adv-x="557" d="M268 570 Q212 570 176 605.5 Q140 641 137 696 L209 696 Q211 670 227 654 Q243 638 269 638 Q295 638 311.5 654 Q328 670 330 696 L401 696 Q399 641 362 605.5 Q325 570 268 570 Z " />
<glyph glyph-name="caron" unicode="&#x2c7;" horiz-adv-x="557" d="M421 695 L331 569 L228 569 L138 695 L224 695 L280 632 L336 695 L421 695 Z " />
<glyph glyph-name="cedilla" unicode="&#xb8;" horiz-adv-x="557" d="M272 -217 Q234 -217 208.5 -196.5 Q183 -176 180 -146 L235 -127 Q235 -143 245 -152.5 Q255 -162 272 -162 Q287 -162 297 -152.5 Q307 -143 307 -127 Q307 -112 297 -103 Q287 -94 272 -94 Q256 -94 249 -101 L206 -76 L251 8 L304 0 L282 -42 Q318 -43 342.5 -65 Q367 -87 367 -123 Q367 -166 341 -191.5 Q315 -217 272 -217 Z " />
<glyph glyph-name="circumflex" unicode="&#x2c6;" horiz-adv-x="557" d="M335 569 L279 632 L223 569 L137 569 L227 695 L330 695 L420 569 L335 569 Z " />
<glyph glyph-name="dieresis" unicode="&#xa8;" horiz-adv-x="557" d="M195 568 Q169 568 150 587 Q131 606 131 632 Q131 658 150 677 Q169 696 195 696 Q221 696 240 677 Q259 658 259 632 Q259 606 240 587 Q221 568 195 568 Z M363 568 Q337 568 318 587 Q299 606 299 632 Q299 658 318 677 Q337 696 363 696 Q389 696 408 677 Q427 658 427 632 Q427 606 408 587 Q389 568 363 568 Z " />
<glyph glyph-name="dotaccent" unicode="&#x2d9;" horiz-adv-x="557" d="M280 568 Q253 568 234 586.5 Q215 605 215 632 Q215 658 234 677 Q253 696 280 696 Q306 696 324.5 677 Q343 658 343 632 Q343 605 324.5 586.5 Q306 568 280 568 Z " />
<glyph glyph-name="grave" unicode="&#x60;" horiz-adv-x="557" d="M125 695 L252 695 L319 569 L232 569 L125 695 Z " />
<glyph glyph-name="hungarumlaut" unicode="&#x2dd;" horiz-adv-x="557" d="M151 569 L216 695 L331 695 L226 569 L151 569 Z M298 569 L363 695 L478 695 L373 569 L298 569 Z " />
<glyph glyph-name="overscore" unicode="&#xaf;" horiz-adv-x="557" d="M172 670 L384 670 L384 594 L172 594 L172 670 Z " />
<glyph glyph-name="ogonek" unicode="&#x2db;" horiz-adv-x="557" d="M322 -182 Q315 -183 302 -183 Q251 -183 221.5 -158.5 Q192 -134 192 -94 Q192 -55 213.5 -26 Q235 3 268 22 L329 0 Q267 -32 267 -75 Q267 -93 280 -104.5 Q293 -116 317 -116 L323 -116 L322 -182 Z " />
<glyph glyph-name="ring" unicode="&#x2da;" horiz-adv-x="557" d="M279 544 Q242 544 215 571 Q188 598 188 636 Q188 674 215 701 Q242 728 279 728 Q317 728 344 701 Q371 674 371 636 Q371 599 344 571.5 Q317 544 279 544 Z M279 602 Q293 602 303 612 Q313 622 313 636 Q313 650 303 660 Q293 670 279 670 Q265 670 255 660 Q245 650 245 636 Q245 622 255 612 Q265 602 279 602 Z " />
<glyph glyph-name="tilde" unicode="&#x2dc;" horiz-adv-x="557" d="M338 576 Q318 576 303 581 Q288 586 267 596 Q239 611 222 611 Q209 611 196.5 602 Q184 593 174 574 L119 611 Q147 686 215 686 Q235 686 249.5 681.5 Q264 677 284 667 Q301 659 311 655 Q321 651 334 651 Q361 651 381 690 L438 652 Q424 614 397.5 595 Q371 576 338 576 Z " />
<glyph glyph-name="uni20BF" unicode="&#x20bf;" horiz-adv-x="576" d="M531 211 Q531 138 486.5 88 Q442 38 364 27 L364 -50 L291 -50 L291 24 L236 24 L236 -50 L162 -50 L162 24 L77 24 L77 678 L162 678 L162 740 L236 740 L236 678 L291 678 L291 740 L364 740 L364 674 Q434 661 470 616 Q506 571 506 505 Q506 455 484 420 Q462 385 425 365 L425 363 Q467 349 499 312 Q531 275 531 211 Z M415 499 Q415 544 387 569.5 Q359 595 310 595 L170 595 L170 396 L310 396 Q361 396 388 424 Q415 452 415 499 Z M322 106 Q378 106 407.5 136.5 Q437 167 437 213 Q437 260 407 288.5 Q377 317 314 317 L170 317 L170 106 L322 106 Z " />
</font>
</svg>
